<?xml version="1.0" encoding="utf-8"?>
<!-- Generator: Adobe Illustrator 20.1.0, SVG Export Plug-In . SVG Version: 6.00 Build 0)  -->
<svg version="1.1" id="Layer_1" xmlns="http://www.w3.org/2000/svg" xmlns:xlink="http://www.w3.org/1999/xlink" x="0px" y="0px"
	 viewBox="0 0 58 58" style="enable-background:new 0 0 58 58;" xml:space="preserve">
<style type="text/css">
	.st0{fill:url(#SVGID_1_);}
	.st1{fill:url(#SVGID_2_);}
	.st2{fill:url(#SVGID_3_);}
	.st3{fill:url(#XMLID_122_);}
	.st4{fill:url(#XMLID_123_);}
	.st5{fill:url(#XMLID_124_);}
	.st6{fill:url(#XMLID_125_);}
	.st7{fill:url(#XMLID_126_);}
	.st8{fill:url(#XMLID_127_);}
	.st9{fill:url(#XMLID_128_);}
	.st10{fill:url(#XMLID_129_);}
	.st11{fill:url(#XMLID_130_);}
	.st12{fill:url(#XMLID_131_);}
	.st13{fill:url(#XMLID_132_);}
	.st14{fill:url(#XMLID_133_);}
	.st15{fill:#F49C3B;}
	.st16{fill:url(#SVGID_4_);}
	.st17{fill:url(#SVGID_5_);}
	.st18{fill:url(#SVGID_6_);}
	.st19{fill:url(#XMLID_134_);}
	.st20{fill:url(#XMLID_135_);}
	.st21{fill:url(#XMLID_136_);}
	.st22{fill:url(#XMLID_137_);}
	.st23{fill:url(#XMLID_138_);}
	.st24{fill:url(#XMLID_139_);}
	.st25{fill:url(#XMLID_140_);}
	.st26{fill:url(#XMLID_141_);}
	.st27{fill:url(#XMLID_142_);}
	.st28{fill:url(#XMLID_143_);}
	.st29{fill:url(#XMLID_144_);}
	.st30{fill:url(#XMLID_145_);}
	.st31{fill:url(#SVGID_7_);}
	.st32{fill:url(#SVGID_8_);}
	.st33{fill:url(#SVGID_9_);}
	.st34{fill:url(#XMLID_146_);}
	.st35{fill:url(#XMLID_147_);}
	.st36{fill:url(#XMLID_148_);}
	.st37{fill:url(#XMLID_149_);}
	.st38{fill:url(#XMLID_150_);}
	.st39{fill:url(#XMLID_151_);}
	.st40{fill:url(#XMLID_152_);}
	.st41{fill:url(#XMLID_153_);}
	.st42{fill:url(#XMLID_154_);}
	.st43{fill:url(#XMLID_155_);}
	.st44{fill:url(#XMLID_156_);}
	.st45{fill:url(#XMLID_157_);}
	.st46{fill:url(#SVGID_10_);}
	.st47{fill:url(#SVGID_11_);}
	.st48{fill:url(#SVGID_12_);}
	.st49{fill:url(#XMLID_158_);}
	.st50{fill:url(#XMLID_159_);}
	.st51{fill:url(#XMLID_160_);}
	.st52{fill:url(#XMLID_161_);}
	.st53{fill:url(#XMLID_162_);}
	.st54{fill:url(#XMLID_163_);}
	.st55{fill:url(#XMLID_164_);}
	.st56{fill:url(#XMLID_165_);}
	.st57{fill:url(#XMLID_166_);}
	.st58{fill:url(#XMLID_167_);}
	.st59{fill:url(#XMLID_168_);}
	.st60{fill:url(#XMLID_169_);}
	.st61{fill:url(#SVGID_13_);}
	.st62{fill:url(#SVGID_14_);}
	.st63{fill:url(#SVGID_15_);}
	.st64{fill:url(#XMLID_170_);}
	.st65{fill:url(#XMLID_171_);}
	.st66{fill:url(#XMLID_172_);}
	.st67{fill:url(#XMLID_173_);}
	.st68{fill:url(#XMLID_174_);}
	.st69{fill:url(#XMLID_175_);}
	.st70{fill:url(#XMLID_176_);}
	.st71{fill:url(#XMLID_177_);}
	.st72{fill:url(#XMLID_178_);}
	.st73{fill:url(#XMLID_179_);}
	.st74{fill:url(#XMLID_180_);}
	.st75{fill:url(#XMLID_181_);}
	.st76{fill:url(#SVGID_16_);}
	.st77{fill:url(#SVGID_17_);}
	.st78{fill:url(#SVGID_18_);}
	.st79{fill:url(#XMLID_182_);}
	.st80{fill:url(#XMLID_183_);}
	.st81{fill:url(#XMLID_184_);}
	.st82{fill:url(#XMLID_185_);}
	.st83{fill:url(#XMLID_186_);}
	.st84{fill:url(#XMLID_187_);}
	.st85{fill:url(#XMLID_188_);}
	.st86{fill:url(#XMLID_189_);}
	.st87{fill:url(#XMLID_190_);}
	.st88{fill:url(#XMLID_191_);}
	.st89{fill:url(#XMLID_192_);}
	.st90{fill:url(#XMLID_193_);}
	.st91{fill:url(#SVGID_19_);}
	.st92{fill:url(#SVGID_20_);}
	.st93{fill:url(#SVGID_21_);}
	.st94{fill:url(#XMLID_194_);}
	.st95{fill:url(#XMLID_195_);}
	.st96{fill:url(#XMLID_196_);}
	.st97{fill:url(#XMLID_197_);}
	.st98{fill:url(#XMLID_198_);}
	.st99{fill:url(#XMLID_199_);}
	.st100{fill:url(#XMLID_200_);}
	.st101{fill:url(#XMLID_201_);}
	.st102{fill:url(#XMLID_202_);}
	.st103{fill:url(#XMLID_203_);}
	.st104{fill:url(#XMLID_204_);}
	.st105{fill:url(#XMLID_205_);}
	.st106{fill:url(#SVGID_22_);}
	.st107{fill:url(#SVGID_23_);}
	.st108{fill:url(#SVGID_24_);}
	.st109{fill:url(#XMLID_206_);}
	.st110{fill:url(#XMLID_207_);}
	.st111{fill:url(#XMLID_208_);}
	.st112{fill:url(#XMLID_209_);}
	.st113{fill:url(#XMLID_210_);}
	.st114{fill:url(#XMLID_211_);}
	.st115{fill:url(#XMLID_212_);}
	.st116{fill:url(#XMLID_213_);}
	.st117{fill:url(#XMLID_214_);}
	.st118{fill:url(#XMLID_215_);}
	.st119{fill:url(#XMLID_216_);}
	.st120{fill:url(#XMLID_217_);}
	.st121{fill:url(#SVGID_25_);}
	.st122{fill:url(#SVGID_26_);}
	.st123{fill:url(#SVGID_27_);}
	.st124{fill:url(#XMLID_218_);}
	.st125{fill:url(#XMLID_219_);}
	.st126{fill:url(#XMLID_220_);}
	.st127{fill:url(#XMLID_221_);}
	.st128{fill:url(#XMLID_222_);}
	.st129{fill:url(#XMLID_223_);}
	.st130{fill:url(#XMLID_224_);}
	.st131{fill:url(#XMLID_225_);}
	.st132{fill:url(#XMLID_226_);}
	.st133{fill:url(#XMLID_227_);}
	.st134{fill:url(#XMLID_228_);}
	.st135{fill:url(#XMLID_229_);}
	.st136{fill:url(#SVGID_28_);}
	.st137{fill:url(#SVGID_29_);}
	.st138{fill:url(#SVGID_30_);}
	.st139{fill:url(#XMLID_230_);}
	.st140{fill:url(#XMLID_231_);}
	.st141{fill:url(#XMLID_232_);}
	.st142{fill:url(#XMLID_233_);}
	.st143{fill:url(#XMLID_234_);}
	.st144{fill:url(#XMLID_235_);}
	.st145{fill:url(#XMLID_236_);}
	.st146{fill:url(#XMLID_237_);}
	.st147{fill:url(#XMLID_238_);}
	.st148{fill:url(#XMLID_239_);}
	.st149{fill:url(#XMLID_240_);}
	.st150{fill:url(#XMLID_241_);}
</style>
<linearGradient id="SVGID_1_" gradientUnits="userSpaceOnUse" x1="0.4072" y1="57.6772" x2="58.0165" y2="-0.102">
	<stop  offset="0" style="stop-color:#F1F2F2"/>
	<stop  offset="1" style="stop-color:#FFFFFF"/>
</linearGradient>
<rect class="st0" width="58" height="58"/>
<g>
	
		<linearGradient id="SVGID_2_" gradientUnits="userSpaceOnUse" x1="10.8198" y1="58.0673" x2="30.3777" y2="58.0673" gradientTransform="matrix(0.9989 -4.584129e-02 4.584129e-02 0.9989 5.7675 -33.8892)">
		<stop  offset="0" style="stop-color:#FBB040"/>
		<stop  offset="1" style="stop-color:#F7941D"/>
	</linearGradient>
	<circle class="st1" cx="29" cy="23.2" r="9.8"/>
	
		<linearGradient id="SVGID_3_" gradientUnits="userSpaceOnUse" x1="11.7031" y1="58.0673" x2="29.4944" y2="58.0673" gradientTransform="matrix(0.9989 -4.584129e-02 4.584129e-02 0.9989 5.7675 -33.8892)">
		<stop  offset="0" style="stop-color:#F9ED32"/>
		<stop  offset="1" style="stop-color:#EFB25E"/>
	</linearGradient>
	<circle class="st2" cx="29" cy="23.2" r="8.9"/>
	
		<linearGradient id="XMLID_122_" gradientUnits="userSpaceOnUse" x1="37.9917" y1="61.3321" x2="10.6411" y2="52.0347" gradientTransform="matrix(0.9989 -4.584129e-02 4.584129e-02 0.9989 5.7675 -33.8892)">
		<stop  offset="0" style="stop-color:#00C9FF"/>
		<stop  offset="1" style="stop-color:#92FE9D"/>
	</linearGradient>
	<path id="XMLID_72_" class="st3" d="M28.3,7.9c-6.3,0.3-11.5,4.4-13.6,9.9l0,0c0,0-2.6,1.8-2.8,3.7s0.1,3.3,0.1,3.3
		s-0.2,1.2,0.8,1.8c0,0-0.6,1.4,1.2,1.9c0,0,0.2,2.3,1.9,1.1c0.5-0.6,0-1.1,0.7-2.2c0.7-1,1.9-3.6,2.9-2.4c0,0,0.1,0.7,0.5,1.8
		c0,0,2.1-1,1.7-3.2c-0.5-2.2-2.3-4.1,0.5-7.3c1.6-1.5,3.7-2.5,6.1-2.6c4.9-0.2,9.1,3.3,9.8,8l5.7-0.3C43.2,13.5,36.4,7.5,28.3,7.9z
		"/>
	
		<linearGradient id="XMLID_123_" gradientUnits="userSpaceOnUse" x1="30.1115" y1="58.7068" x2="33.8801" y2="49.8833" gradientTransform="matrix(0.9989 -4.584129e-02 4.584129e-02 0.9989 5.7675 -33.8892)">
		<stop  offset="0" style="stop-color:#134763;stop-opacity:0.3"/>
		<stop  offset="0.9839" style="stop-color:#134763;stop-opacity:0"/>
	</linearGradient>
	<path id="XMLID_71_" class="st4" d="M38.2,20.6c0.1,0.3,0.1,0.4,0.1,0.5c0,0,0,0,0,0c1.1,1.1,2.2-1.4,2.9-2.4
		c0.7-1,1.2-2.4,1.4-2.5c-0.2-0.4-0.4-0.7-0.6-1.1c0,0-0.5,0.4-0.7,1.5C41,17.8,39.7,20.7,38.2,20.6z"/>
	
		<linearGradient id="XMLID_124_" gradientUnits="userSpaceOnUse" x1="8.2503" y1="53.3692" x2="25.4911" y2="62.2153" gradientTransform="matrix(0.9989 -4.584129e-02 4.584129e-02 0.9989 5.7675 -33.8892)">
		<stop  offset="0" style="stop-color:#00C9FF"/>
		<stop  offset="1" style="stop-color:#92FE9D"/>
	</linearGradient>
	<path id="XMLID_70_" class="st5" d="M45.8,21.3c0,0,0.2-1.2-0.8-1.8c0,0,0.6-1.4-1.2-1.9c0,0-0.1-1.6-1.2-1.4
		c-0.5,0.1-0.9,0.6-1,1.1c0,0.4,0,0.8-0.4,1.3c-0.7,1-1.9,3.6-2.9,2.4c0,0-0.1-0.7-0.5-1.8c0,0-2.1,1-1.7,3.2
		c0.5,2.2,2.3,4.1-0.5,7.3c-1.6,1.5-3.7,2.5-6.1,2.6c-4.1,0.2-7.6-2.2-9.2-5.7c0,0,0,0,0,0c-0.4-1-0.5-1.7-0.5-1.8c0,0,0,0,0,0
		c-1.1-1.1-2.2,1.4-2.9,2.4c-0.7,1-0.2,1.6-0.7,2.2c-0.3,0.2-0.5,0.3-0.7,0.3c2.6,5.2,8.1,8.6,14.3,8.3c6.3-0.3,11.5-4.4,13.6-9.9
		l0,0c0,0,2.6-1.8,2.8-3.7C46.2,22.8,45.8,21.3,45.8,21.3z"/>
	
		<linearGradient id="XMLID_125_" gradientUnits="userSpaceOnUse" x1="9.4102" y1="60.7135" x2="8.2367" y2="64.4896" gradientTransform="matrix(0.9989 -4.584129e-02 4.584129e-02 0.9989 5.7675 -33.8892)">
		<stop  offset="0" style="stop-color:#134763;stop-opacity:0.3"/>
		<stop  offset="0.9839" style="stop-color:#134763;stop-opacity:0"/>
	</linearGradient>
	<path id="XMLID_69_" class="st6" d="M19.8,25.5c-0.1-0.3-0.1-0.4-0.1-0.5c0,0,0,0,0,0c-1.1-1.1-2.2,1.4-2.9,2.4
		c-0.7,1-0.2,1.6-0.7,2.2c-0.3,0.2-0.5,0.3-0.7,0.3c0.2,0.4,0.4,0.7,0.6,1.1c0,0,0.5-0.4,0.7-1.5C16.9,28.2,18.3,25.3,19.8,25.5z"/>
	
		<linearGradient id="XMLID_126_" gradientUnits="userSpaceOnUse" x1="4.4092" y1="58.156" x2="6.2747" y2="54.4551" gradientTransform="matrix(0.9989 -4.584129e-02 4.584129e-02 0.9989 5.7675 -33.8892)">
		<stop  offset="0" style="stop-color:#134763;stop-opacity:0.3"/>
		<stop  offset="0.9839" style="stop-color:#134763;stop-opacity:0"/>
	</linearGradient>
	<path id="XMLID_67_" class="st7" d="M12.6,24.7C12.6,24.7,12.6,24.7,12.6,24.7c0-0.2,0-0.2,0-0.3c0-0.1,0-0.2,0.1-0.3
		c0-0.1,0-0.1,0.1-0.2c0-0.1,0-0.1,0.1-0.2c0.1-0.1,0.1-0.2,0.2-0.3c0.1-0.1,0.2-0.2,0.2-0.3c0,0,0.1-0.1,0.1-0.1c0,0,0.1,0,0.1-0.1
		c0,0,0.1,0,0.1,0c0,0,0,0,0,0s0,0,0,0c0,0,0,0,0,0.1c0,0,0,0.1,0,0.1c0,0,0,0.1-0.1,0.1c0,0.1-0.1,0.2-0.1,0.3c0,0,0,0.1,0,0.1
		c0,0,0,0.1,0,0.1c0,0.1-0.1,0.1-0.1,0.2c0,0.1-0.1,0.1-0.1,0.2c0,0.1-0.1,0.1-0.1,0.2c-0.1,0.1-0.1,0.2-0.2,0.3
		C12.7,24.5,12.7,24.6,12.6,24.7C12.6,24.7,12.6,24.7,12.6,24.7z"/>
	
		<linearGradient id="XMLID_127_" gradientUnits="userSpaceOnUse" x1="5.1497" y1="59.6121" x2="7.1205" y2="56.1068" gradientTransform="matrix(0.9989 -4.584129e-02 4.584129e-02 0.9989 5.7675 -33.8892)">
		<stop  offset="0" style="stop-color:#134763;stop-opacity:0.3"/>
		<stop  offset="0.9839" style="stop-color:#134763;stop-opacity:0"/>
	</linearGradient>
	<path id="XMLID_66_" class="st8" d="M13,26.5c0,0,0-0.1,0-0.2c0,0,0-0.1,0-0.2c0-0.1,0-0.1,0.1-0.2c0-0.1,0-0.2,0.1-0.3
		c0,0,0-0.1,0.1-0.1c0,0,0-0.1,0.1-0.1c0,0,0-0.1,0.1-0.1c0,0,0,0,0-0.1c0,0,0,0,0-0.1c0,0,0.1-0.1,0.1-0.1c0,0,0.1-0.1,0.1-0.1
		c0,0,0.1-0.1,0.1-0.1c0,0,0.1-0.1,0.1-0.1c0.1-0.1,0.1-0.2,0.2-0.2c0.1-0.1,0.1-0.1,0.2-0.2c0,0,0.1-0.1,0.1-0.1
		c0,0,0.1-0.1,0.1-0.1c0.1,0,0.1-0.1,0.2-0.1c0.1,0,0.1-0.1,0.2-0.1c0,0,0.1,0,0.1,0c0,0,0,0,0,0s0,0,0,0c0,0,0,0-0.1,0.1
		c0,0-0.1,0.1-0.1,0.1c0,0-0.1,0.1-0.1,0.2c0,0-0.1,0.1-0.1,0.1c0,0-0.1,0.1-0.1,0.1c-0.1,0.1-0.1,0.1-0.2,0.2c0,0-0.1,0.1-0.1,0.1
		c0,0-0.1,0.1-0.1,0.1c0,0-0.1,0.1-0.1,0.1c0,0-0.1,0.1-0.1,0.1c0,0-0.1,0.1-0.1,0.1c0,0-0.1,0.1-0.1,0.1c-0.1,0.1-0.1,0.2-0.2,0.3
		c0,0.1-0.1,0.2-0.1,0.2c0,0.1-0.1,0.2-0.1,0.2c0,0.1-0.1,0.1-0.1,0.2c0,0.1-0.1,0.1-0.1,0.2C13,26.4,13,26.5,13,26.5
		C13,26.5,13,26.5,13,26.5z"/>
	
		<linearGradient id="XMLID_128_" gradientUnits="userSpaceOnUse" x1="6.6854" y1="60.3855" x2="9.7695" y2="54.3528" gradientTransform="matrix(0.9989 -4.584129e-02 4.584129e-02 0.9989 5.7675 -33.8892)">
		<stop  offset="0" style="stop-color:#134763;stop-opacity:0.3"/>
		<stop  offset="0.9839" style="stop-color:#134763;stop-opacity:0"/>
	</linearGradient>
	<path id="XMLID_65_" class="st9" d="M14.2,28.4c0,0,0-0.1,0-0.2c0-0.1,0-0.1,0-0.2c0,0,0-0.1,0-0.1c0,0,0-0.1,0-0.1
		c0-0.1,0.1-0.2,0.1-0.3c0-0.1,0-0.1,0.1-0.2c0-0.1,0-0.1,0.1-0.2c0-0.1,0.1-0.3,0.2-0.4c0-0.1,0.1-0.1,0.1-0.2
		c0-0.1,0.1-0.1,0.1-0.2c0.1-0.1,0.1-0.2,0.2-0.4c0,0,0-0.1,0.1-0.1c0,0,0-0.1,0.1-0.1c0-0.1,0.1-0.1,0.1-0.2c0,0,0-0.1,0.1-0.1
		c0,0,0-0.1,0.1-0.1c0,0,0.1-0.1,0.1-0.1c0,0,0.1-0.1,0.1-0.1c0,0,0.1-0.1,0.1-0.1c0.1-0.1,0.1-0.1,0.2-0.2c0.1-0.1,0.1-0.1,0.2-0.1
		c0,0,0.1-0.1,0.1-0.1c0,0,0,0,0,0s0,0,0,0c0,0,0,0.1-0.1,0.1c0,0.1-0.1,0.1-0.1,0.2c0,0,0,0.1-0.1,0.1c0,0-0.1,0.1-0.1,0.1
		c-0.1,0.1-0.1,0.2-0.2,0.3c0,0-0.1,0.1-0.1,0.2c0,0,0,0.1-0.1,0.1c0,0,0,0.1,0,0.1c-0.1,0.1-0.1,0.2-0.2,0.3
		c-0.1,0.1-0.1,0.2-0.2,0.4c0,0.1-0.1,0.1-0.1,0.2c0,0.1-0.1,0.1-0.1,0.2c0,0.1-0.1,0.1-0.1,0.2c0,0.1-0.1,0.1-0.1,0.2
		c0,0.1-0.1,0.1-0.1,0.2c0,0.1-0.1,0.1-0.1,0.2c0,0.1-0.1,0.2-0.1,0.3c0,0.1-0.1,0.2-0.1,0.3c0,0.1-0.1,0.1-0.1,0.2
		C14.2,28.4,14.2,28.4,14.2,28.4z"/>
	
		<linearGradient id="XMLID_129_" gradientUnits="userSpaceOnUse" x1="36.2091" y1="59.554" x2="33.8396" y2="63.8868" gradientTransform="matrix(0.9989 -4.584129e-02 4.584129e-02 0.9989 5.7675 -33.8892)">
		<stop  offset="0" style="stop-color:#134763;stop-opacity:0.3"/>
		<stop  offset="0.9839" style="stop-color:#134763;stop-opacity:0"/>
	</linearGradient>
	<path id="XMLID_64_" class="st10" d="M45.8,21.3C45.8,21.3,45.8,21.4,45.8,21.3c0,0.2,0,0.2,0,0.3c0,0.1,0,0.2-0.1,0.3
		c0,0.1,0,0.1-0.1,0.2c0,0.1,0,0.1-0.1,0.2c-0.1,0.1-0.1,0.2-0.2,0.3c-0.1,0.1-0.2,0.2-0.2,0.3c0,0-0.1,0.1-0.1,0.1
		c0,0-0.1,0-0.1,0.1c0,0-0.1,0-0.1,0c0,0,0,0,0,0s0,0,0,0c0,0,0,0,0-0.1c0,0,0-0.1,0-0.1c0,0,0-0.1,0.1-0.1c0-0.1,0.1-0.2,0.1-0.3
		c0,0,0-0.1,0-0.1c0,0,0-0.1,0-0.1c0-0.1,0.1-0.1,0.1-0.2c0-0.1,0.1-0.1,0.1-0.2c0-0.1,0.1-0.1,0.1-0.2c0.1-0.1,0.1-0.2,0.2-0.3
		C45.7,21.5,45.8,21.5,45.8,21.3C45.8,21.4,45.8,21.3,45.8,21.3z"/>
	
		<linearGradient id="XMLID_130_" gradientUnits="userSpaceOnUse" x1="34.8786" y1="58.1139" x2="31.2003" y2="63.5299" gradientTransform="matrix(0.9989 -4.584129e-02 4.584129e-02 0.9989 5.7675 -33.8892)">
		<stop  offset="0" style="stop-color:#134763;stop-opacity:0.3"/>
		<stop  offset="0.9839" style="stop-color:#134763;stop-opacity:0"/>
	</linearGradient>
	<path id="XMLID_63_" class="st11" d="M45,19.5c0,0,0,0.1,0,0.2c0,0,0,0.1,0,0.2c0,0.1,0,0.1-0.1,0.2c0,0.1,0,0.2-0.1,0.3
		c0,0,0,0.1-0.1,0.1c0,0,0,0.1-0.1,0.1c0,0,0,0.1-0.1,0.1c0,0,0,0,0,0.1c0,0,0,0,0,0.1c0,0-0.1,0.1-0.1,0.1c0,0-0.1,0.1-0.1,0.1
		c0,0-0.1,0.1-0.1,0.1c0,0-0.1,0.1-0.1,0.1c-0.1,0.1-0.1,0.2-0.2,0.2c-0.1,0.1-0.1,0.1-0.2,0.2c0,0-0.1,0.1-0.1,0.1
		c0,0-0.1,0.1-0.1,0.1c-0.1,0-0.1,0.1-0.2,0.1c-0.1,0-0.1,0.1-0.2,0.1c0,0-0.1,0-0.1,0c0,0,0,0,0,0s0,0,0,0c0,0,0,0,0.1-0.1
		c0,0,0.1-0.1,0.1-0.1c0,0,0.1-0.1,0.1-0.2c0,0,0.1-0.1,0.1-0.1c0,0,0.1-0.1,0.1-0.1c0.1-0.1,0.1-0.1,0.2-0.2c0,0,0.1-0.1,0.1-0.1
		c0,0,0.1-0.1,0.1-0.1c0,0,0.1-0.1,0.1-0.1c0,0,0.1-0.1,0.1-0.1c0,0,0.1-0.1,0.1-0.1c0,0,0.1-0.1,0.1-0.1c0.1-0.1,0.1-0.2,0.2-0.3
		c0-0.1,0.1-0.2,0.1-0.2c0-0.1,0.1-0.2,0.1-0.2c0-0.1,0.1-0.1,0.1-0.2c0-0.1,0.1-0.1,0.1-0.2C45,19.6,45,19.6,45,19.5
		C45,19.5,45,19.5,45,19.5z"/>
	
		<linearGradient id="XMLID_131_" gradientUnits="userSpaceOnUse" x1="35.1855" y1="53.5163" x2="37.3293" y2="47.8295" gradientTransform="matrix(0.9989 -4.584129e-02 4.584129e-02 0.9989 5.7675 -33.8892)">
		<stop  offset="0" style="stop-color:#134763;stop-opacity:0.3"/>
		<stop  offset="0.9839" style="stop-color:#134763;stop-opacity:0"/>
	</linearGradient>
	<path id="XMLID_62_" class="st12" d="M43.8,17.6c0,0,0,0.1,0,0.2c0,0.1,0,0.1,0,0.2c0,0,0,0.1,0,0.1c0,0,0,0.1,0,0.1
		c0,0.1-0.1,0.2-0.1,0.3c0,0.1,0,0.1-0.1,0.2c0,0.1,0,0.1-0.1,0.2c0,0.1-0.1,0.3-0.2,0.4c0,0.1-0.1,0.1-0.1,0.2
		c0,0.1-0.1,0.1-0.1,0.2C43.1,19.9,43,20,43,20.2c0,0,0,0.1-0.1,0.1c0,0,0,0.1-0.1,0.1c0,0.1-0.1,0.1-0.1,0.2c0,0,0,0.1-0.1,0.1
		c0,0,0,0.1-0.1,0.1c0,0-0.1,0.1-0.1,0.1c0,0-0.1,0.1-0.1,0.1c0,0-0.1,0.1-0.1,0.1c-0.1,0.1-0.1,0.1-0.2,0.2
		c-0.1,0.1-0.1,0.1-0.2,0.1c0,0-0.1,0.1-0.1,0.1c0,0,0,0,0,0s0,0,0,0c0,0,0-0.1,0.1-0.1c0-0.1,0.1-0.1,0.1-0.2c0,0,0-0.1,0.1-0.1
		c0,0,0.1-0.1,0.1-0.1c0.1-0.1,0.1-0.2,0.2-0.3c0,0,0.1-0.1,0.1-0.2c0,0,0-0.1,0.1-0.1c0,0,0-0.1,0-0.1c0.1-0.1,0.1-0.2,0.2-0.3
		c0.1-0.1,0.1-0.2,0.2-0.4c0-0.1,0.1-0.1,0.1-0.2c0-0.1,0.1-0.1,0.1-0.2c0-0.1,0.1-0.1,0.1-0.2c0-0.1,0.1-0.1,0.1-0.2
		c0-0.1,0.1-0.1,0.1-0.2c0-0.1,0.1-0.1,0.1-0.2c0-0.1,0.1-0.2,0.1-0.3c0-0.1,0.1-0.2,0.1-0.3c0-0.1,0.1-0.1,0.1-0.2
		C43.8,17.7,43.8,17.6,43.8,17.6z"/>
	<g>
		
			<linearGradient id="XMLID_132_" gradientUnits="userSpaceOnUse" x1="20.5988" y1="67.5606" x2="20.5988" y2="81.7019" gradientTransform="matrix(0.9989 -4.584129e-02 4.584129e-02 0.9989 5.7675 -33.8892)">
			<stop  offset="0" style="stop-color:#00C9FF"/>
			<stop  offset="1" style="stop-color:#92FE9D"/>
		</linearGradient>
		<path id="XMLID_61_" class="st13" d="M38.3,35.8c-2.6,1.9-5.6,3-8.8,3.1c-3.1,0.1-6.2-0.6-8.9-2.2c-0.1,0-0.1-0.1-0.2-0.1
			l8.6,13.5l9.6-14.6C38.6,35.6,38.5,35.7,38.3,35.8z"/>
		
			<linearGradient id="XMLID_133_" gradientUnits="userSpaceOnUse" x1="22.8732" y1="75.2259" x2="22.6626" y2="82.6879" gradientTransform="matrix(0.9989 -4.584129e-02 4.584129e-02 0.9989 5.7675 -33.8892)">
			<stop  offset="0" style="stop-color:#00C9FF"/>
			<stop  offset="1" style="stop-color:#92FE9D"/>
		</linearGradient>
		<path id="XMLID_60_" class="st14" d="M25.4,44.3l3.7,5.8l9.6-14.6C38.7,35.5,33.8,42.9,25.4,44.3z"/>
	</g>
	<path class="st15" d="M29.6,22.3l-0.1-2.1c0.5,0.1,0.9,0.3,1.1,0.5c0.2,0.2,0.4,0.2,0.5,0.2c0.4,0,0.6-0.3,0.6-0.7
		c0-0.1-0.1-0.3-0.1-0.4c-0.4-0.5-1.2-0.9-2.2-1l0-0.3l0-0.3c0-0.3-0.3-0.5-0.6-0.5c-0.3,0-0.5,0.3-0.5,0.6l0,0.3l0,0.3
		c-1.5,0.2-2.1,1.2-2.1,2.2c0.1,1.4,1.2,1.9,2.3,2.2l0.1,2.5c-0.6-0.1-1-0.4-1.4-0.8c-0.1-0.1-0.3-0.2-0.5-0.2
		c-0.3,0-0.6,0.3-0.6,0.7c0,0.1,0,0.2,0.1,0.3c0.4,0.6,1.4,1.2,2.5,1.3l0,0.1l0,0.5c0,0.3,0.3,0.5,0.6,0.5c0.3,0,0.5-0.3,0.5-0.6
		l0-0.5l0-0.1c1.6-0.2,2.4-1.1,2.3-2.4C32,23.1,30.7,22.6,29.6,22.3z M27.6,21.1c0-0.4,0.2-0.7,0.8-0.9l0.1,1.8
		C28,21.7,27.6,21.5,27.6,21.1z M29.7,25.8l-0.1-2.1c0.6,0.2,1.1,0.5,1.1,1C30.7,25.3,30.4,25.7,29.7,25.8z"/>
</g>
</svg>
