<?xml version="1.0" encoding="utf-8"?>
<!-- Generator: Adobe Illustrator 20.1.0, SVG Export Plug-In . SVG Version: 6.00 Build 0)  -->
<svg version="1.1" id="Layer_1" xmlns="http://www.w3.org/2000/svg" xmlns:xlink="http://www.w3.org/1999/xlink" x="0px" y="0px"
	 viewBox="0 0 180 180" style="enable-background:new 0 0 180 180;" xml:space="preserve">
<style type="text/css">
	.st0{fill:url(#SVGID_1_);}
	.st1{fill:url(#SVGID_2_);}
	.st2{fill:url(#SVGID_3_);}
	.st3{fill:url(#XMLID_122_);}
	.st4{fill:url(#XMLID_123_);}
	.st5{fill:url(#XMLID_124_);}
	.st6{fill:url(#XMLID_125_);}
	.st7{fill:url(#XMLID_126_);}
	.st8{fill:url(#XMLID_127_);}
	.st9{fill:url(#XMLID_128_);}
	.st10{fill:url(#XMLID_129_);}
	.st11{fill:url(#XMLID_130_);}
	.st12{fill:url(#XMLID_131_);}
	.st13{fill:url(#XMLID_132_);}
	.st14{fill:url(#XMLID_133_);}
	.st15{fill:#F49C3B;}
	.st16{fill:url(#SVGID_4_);}
	.st17{fill:url(#SVGID_5_);}
	.st18{fill:url(#SVGID_6_);}
	.st19{fill:url(#XMLID_134_);}
	.st20{fill:url(#XMLID_135_);}
	.st21{fill:url(#XMLID_136_);}
	.st22{fill:url(#XMLID_137_);}
	.st23{fill:url(#XMLID_138_);}
	.st24{fill:url(#XMLID_139_);}
	.st25{fill:url(#XMLID_140_);}
	.st26{fill:url(#XMLID_141_);}
	.st27{fill:url(#XMLID_142_);}
	.st28{fill:url(#XMLID_143_);}
	.st29{fill:url(#XMLID_144_);}
	.st30{fill:url(#XMLID_145_);}
	.st31{fill:url(#SVGID_7_);}
	.st32{fill:url(#SVGID_8_);}
	.st33{fill:url(#SVGID_9_);}
	.st34{fill:url(#XMLID_146_);}
	.st35{fill:url(#XMLID_147_);}
	.st36{fill:url(#XMLID_148_);}
	.st37{fill:url(#XMLID_149_);}
	.st38{fill:url(#XMLID_150_);}
	.st39{fill:url(#XMLID_151_);}
	.st40{fill:url(#XMLID_152_);}
	.st41{fill:url(#XMLID_153_);}
	.st42{fill:url(#XMLID_154_);}
	.st43{fill:url(#XMLID_155_);}
	.st44{fill:url(#XMLID_156_);}
	.st45{fill:url(#XMLID_157_);}
	.st46{fill:url(#SVGID_10_);}
	.st47{fill:url(#SVGID_11_);}
	.st48{fill:url(#SVGID_12_);}
	.st49{fill:url(#XMLID_158_);}
	.st50{fill:url(#XMLID_159_);}
	.st51{fill:url(#XMLID_160_);}
	.st52{fill:url(#XMLID_161_);}
	.st53{fill:url(#XMLID_162_);}
	.st54{fill:url(#XMLID_163_);}
	.st55{fill:url(#XMLID_164_);}
	.st56{fill:url(#XMLID_165_);}
	.st57{fill:url(#XMLID_166_);}
	.st58{fill:url(#XMLID_167_);}
	.st59{fill:url(#XMLID_168_);}
	.st60{fill:url(#XMLID_169_);}
	.st61{fill:url(#SVGID_13_);}
	.st62{fill:url(#SVGID_14_);}
	.st63{fill:url(#SVGID_15_);}
	.st64{fill:url(#XMLID_170_);}
	.st65{fill:url(#XMLID_171_);}
	.st66{fill:url(#XMLID_172_);}
	.st67{fill:url(#XMLID_173_);}
	.st68{fill:url(#XMLID_174_);}
	.st69{fill:url(#XMLID_175_);}
	.st70{fill:url(#XMLID_176_);}
	.st71{fill:url(#XMLID_177_);}
	.st72{fill:url(#XMLID_178_);}
	.st73{fill:url(#XMLID_179_);}
	.st74{fill:url(#XMLID_180_);}
	.st75{fill:url(#XMLID_181_);}
	.st76{fill:url(#SVGID_16_);}
	.st77{fill:url(#SVGID_17_);}
	.st78{fill:url(#SVGID_18_);}
	.st79{fill:url(#XMLID_182_);}
	.st80{fill:url(#XMLID_183_);}
	.st81{fill:url(#XMLID_184_);}
	.st82{fill:url(#XMLID_185_);}
	.st83{fill:url(#XMLID_186_);}
	.st84{fill:url(#XMLID_187_);}
	.st85{fill:url(#XMLID_188_);}
	.st86{fill:url(#XMLID_189_);}
	.st87{fill:url(#XMLID_190_);}
	.st88{fill:url(#XMLID_191_);}
	.st89{fill:url(#XMLID_192_);}
	.st90{fill:url(#XMLID_193_);}
	.st91{fill:url(#SVGID_19_);}
	.st92{fill:url(#SVGID_20_);}
	.st93{fill:url(#SVGID_21_);}
	.st94{fill:url(#XMLID_194_);}
	.st95{fill:url(#XMLID_195_);}
	.st96{fill:url(#XMLID_196_);}
	.st97{fill:url(#XMLID_197_);}
	.st98{fill:url(#XMLID_198_);}
	.st99{fill:url(#XMLID_199_);}
	.st100{fill:url(#XMLID_200_);}
	.st101{fill:url(#XMLID_201_);}
	.st102{fill:url(#XMLID_202_);}
	.st103{fill:url(#XMLID_203_);}
	.st104{fill:url(#XMLID_204_);}
	.st105{fill:url(#XMLID_205_);}
	.st106{fill:url(#SVGID_22_);}
	.st107{fill:url(#SVGID_23_);}
	.st108{fill:url(#SVGID_24_);}
	.st109{fill:url(#XMLID_206_);}
	.st110{fill:url(#XMLID_207_);}
	.st111{fill:url(#XMLID_208_);}
	.st112{fill:url(#XMLID_209_);}
	.st113{fill:url(#XMLID_210_);}
	.st114{fill:url(#XMLID_211_);}
	.st115{fill:url(#XMLID_212_);}
	.st116{fill:url(#XMLID_213_);}
	.st117{fill:url(#XMLID_214_);}
	.st118{fill:url(#XMLID_215_);}
	.st119{fill:url(#XMLID_216_);}
	.st120{fill:url(#XMLID_217_);}
	.st121{fill:url(#SVGID_25_);}
	.st122{fill:url(#SVGID_26_);}
	.st123{fill:url(#SVGID_27_);}
	.st124{fill:url(#XMLID_218_);}
	.st125{fill:url(#XMLID_219_);}
	.st126{fill:url(#XMLID_220_);}
	.st127{fill:url(#XMLID_221_);}
	.st128{fill:url(#XMLID_222_);}
	.st129{fill:url(#XMLID_223_);}
	.st130{fill:url(#XMLID_224_);}
	.st131{fill:url(#XMLID_225_);}
	.st132{fill:url(#XMLID_226_);}
	.st133{fill:url(#XMLID_227_);}
	.st134{fill:url(#XMLID_228_);}
	.st135{fill:url(#XMLID_229_);}
	.st136{fill:url(#SVGID_28_);}
	.st137{fill:url(#SVGID_29_);}
	.st138{fill:url(#SVGID_30_);}
	.st139{fill:url(#XMLID_230_);}
	.st140{fill:url(#XMLID_231_);}
	.st141{fill:url(#XMLID_232_);}
	.st142{fill:url(#XMLID_233_);}
	.st143{fill:url(#XMLID_234_);}
	.st144{fill:url(#XMLID_235_);}
	.st145{fill:url(#XMLID_236_);}
	.st146{fill:url(#XMLID_237_);}
	.st147{fill:url(#XMLID_238_);}
	.st148{fill:url(#XMLID_239_);}
	.st149{fill:url(#XMLID_240_);}
	.st150{fill:url(#XMLID_241_);}
</style>
<linearGradient id="SVGID_1_" gradientUnits="userSpaceOnUse" x1="1.2636" y1="178.9981" x2="180.0511" y2="-0.3167">
	<stop  offset="0" style="stop-color:#F1F2F2"/>
	<stop  offset="1" style="stop-color:#FFFFFF"/>
</linearGradient>
<rect class="st0" width="180" height="180"/>
<g>
	
		<linearGradient id="SVGID_2_" gradientUnits="userSpaceOnUse" x1="68.4947" y1="122.4789" x2="129.1914" y2="122.4789" gradientTransform="matrix(0.9989 -4.584129e-02 4.584129e-02 0.9989 -14.3336 -45.9036)">
		<stop  offset="0" style="stop-color:#FBB040"/>
		<stop  offset="1" style="stop-color:#F7941D"/>
	</linearGradient>
	<circle class="st1" cx="90" cy="71.9" r="30.3"/>
	
		<linearGradient id="SVGID_3_" gradientUnits="userSpaceOnUse" x1="71.2358" y1="122.4789" x2="126.4504" y2="122.4789" gradientTransform="matrix(0.9989 -4.584129e-02 4.584129e-02 0.9989 -14.3336 -45.9036)">
		<stop  offset="0" style="stop-color:#F9ED32"/>
		<stop  offset="1" style="stop-color:#EFB25E"/>
	</linearGradient>
	<circle class="st2" cx="90" cy="71.9" r="27.6"/>
	
		<linearGradient id="XMLID_122_" gradientUnits="userSpaceOnUse" x1="152.8212" y1="132.611" x2="67.9401" y2="103.757" gradientTransform="matrix(0.9989 -4.584129e-02 4.584129e-02 0.9989 -14.3336 -45.9036)">
		<stop  offset="0" style="stop-color:#00C9FF"/>
		<stop  offset="1" style="stop-color:#92FE9D"/>
	</linearGradient>
	<path id="XMLID_120_" class="st3" d="M87.9,24.5C68.4,25.4,52.2,38,45.8,55.3l0,0c0,0-8,5.7-8.5,11.3s0.5,10.1,0.5,10.1
		s-0.8,3.8,2.5,5.6c0,0-1.9,4.2,3.8,5.9c0,0,0.5,7,6,3.4c1.5-1.8,0-3.5,2.1-6.7c2.1-3.1,5.7-11,9-7.4c0,0,0.2,2.2,1.7,5.5
		c0,0,6.6-3.1,5.2-10c-1.4-6.8-7.3-12.6,1.6-22.5c5-4.8,11.6-7.9,19.1-8.2c15.2-0.7,28.2,10.2,30.5,24.9l17.8-0.8
		C134.2,41.9,112.9,23.4,87.9,24.5z"/>
	
		<linearGradient id="XMLID_123_" gradientUnits="userSpaceOnUse" x1="128.3653" y1="124.4635" x2="140.0609" y2="97.0803" gradientTransform="matrix(0.9989 -4.584129e-02 4.584129e-02 0.9989 -14.3336 -45.9036)">
		<stop  offset="0" style="stop-color:#134763;stop-opacity:0.3"/>
		<stop  offset="0.9839" style="stop-color:#134763;stop-opacity:0"/>
	</linearGradient>
	<path id="XMLID_119_" class="st4" d="M118.5,64c0.2,0.8,0.3,1.3,0.3,1.5c0,0,0,0,0,0.1c3.3,3.6,7-4.3,9-7.4
		c2.1-3.1,3.7-7.6,4.3-7.7c-0.6-1.1-1.2-2.2-1.9-3.3c0,0-1.4,1.3-2.2,4.8C127.4,55.4,123.1,64.4,118.5,64z"/>
	
		<linearGradient id="XMLID_124_" gradientUnits="userSpaceOnUse" x1="60.5203" y1="107.8987" x2="114.0262" y2="135.352" gradientTransform="matrix(0.9989 -4.584129e-02 4.584129e-02 0.9989 -14.3336 -45.9036)">
		<stop  offset="0" style="stop-color:#00C9FF"/>
		<stop  offset="1" style="stop-color:#92FE9D"/>
	</linearGradient>
	<path id="XMLID_118_" class="st5" d="M142.3,66.2c0,0,0.8-3.8-2.5-5.6c0,0,1.9-4.2-3.8-5.9c0,0-0.4-5-3.8-4.3
		c-1.7,0.3-2.9,1.8-3,3.5c-0.1,1.1-0.1,2.4-1.3,4.2c-2.1,3.1-5.7,11-9,7.4c0,0-0.2-2.2-1.7-5.5c0,0-6.6,3.1-5.2,10
		c1.4,6.8,7.3,12.6-1.6,22.5c-5,4.8-11.6,7.9-19.1,8.2c-12.6,0.6-23.7-6.9-28.4-17.8c0,0-0.1,0-0.1,0c-1.3-3.1-1.6-5.2-1.7-5.4
		c0,0,0,0,0,0c-3.3-3.5-7,4.3-9,7.5c-2.1,3.1-0.5,4.8-2.1,6.7c-0.9,0.6-1.6,0.9-2.2,1c8.1,16.1,25.1,26.7,44.3,25.9
		c19.5-0.9,35.7-13.5,42.1-30.7l0,0c0,0,8-5.7,8.5-11.3C143.3,70.7,142.3,66.2,142.3,66.2z"/>
	
		<linearGradient id="XMLID_125_" gradientUnits="userSpaceOnUse" x1="64.1199" y1="130.6912" x2="60.4782" y2="142.4102" gradientTransform="matrix(0.9989 -4.584129e-02 4.584129e-02 0.9989 -14.3336 -45.9036)">
		<stop  offset="0" style="stop-color:#134763;stop-opacity:0.3"/>
		<stop  offset="0.9839" style="stop-color:#134763;stop-opacity:0"/>
	</linearGradient>
	<path id="XMLID_117_" class="st6" d="M61.5,79c-0.2-0.8-0.3-1.3-0.3-1.5c0,0,0,0,0-0.1c-3.3-3.6-7,4.3-9,7.4
		c-2.1,3.1-0.5,4.8-2.1,6.7c-0.9,0.6-1.6,0.9-2.2,1c0.6,1.1,1.2,2.2,1.9,3.3c0,0,1.4-1.3,2.2-4.8C52.6,87.6,56.9,78.6,61.5,79z"/>
	
		<linearGradient id="XMLID_126_" gradientUnits="userSpaceOnUse" x1="48.5998" y1="122.7543" x2="54.3892" y2="111.2687" gradientTransform="matrix(0.9989 -4.584129e-02 4.584129e-02 0.9989 -14.3336 -45.9036)">
		<stop  offset="0" style="stop-color:#134763;stop-opacity:0.3"/>
		<stop  offset="0.9839" style="stop-color:#134763;stop-opacity:0"/>
	</linearGradient>
	<path id="XMLID_116_" class="st7" d="M39,76.7c0,0,0-0.1,0-0.3c0-0.2,0-0.4,0.1-0.8c0-0.3,0.1-0.7,0.2-1c0.1-0.2,0.1-0.4,0.2-0.6
		c0.1-0.2,0.2-0.4,0.2-0.6c0.2-0.4,0.4-0.7,0.6-1.1c0.2-0.3,0.5-0.6,0.7-0.8c0.1-0.1,0.2-0.2,0.3-0.3c0.1-0.1,0.2-0.1,0.3-0.2
		c0.1,0,0.2-0.1,0.2-0.1c0,0,0.1,0,0.1,0s0,0,0,0.1c0,0-0.1,0.1-0.1,0.2c0,0.1-0.1,0.2-0.2,0.3c-0.1,0.1-0.1,0.2-0.2,0.4
		c-0.1,0.3-0.3,0.6-0.4,0.9c0,0.1-0.1,0.2-0.1,0.3c0,0.1-0.1,0.2-0.1,0.3c-0.1,0.2-0.2,0.4-0.2,0.5c-0.1,0.2-0.2,0.4-0.3,0.5
		c-0.1,0.2-0.2,0.3-0.3,0.5c-0.2,0.3-0.3,0.6-0.5,0.9c-0.2,0.3-0.3,0.5-0.4,0.6C39.1,76.6,39,76.7,39,76.7z"/>
	
		<linearGradient id="XMLID_127_" gradientUnits="userSpaceOnUse" x1="50.8978" y1="127.2732" x2="57.0141" y2="116.3946" gradientTransform="matrix(0.9989 -4.584129e-02 4.584129e-02 0.9989 -14.3336 -45.9036)">
		<stop  offset="0" style="stop-color:#134763;stop-opacity:0.3"/>
		<stop  offset="0.9839" style="stop-color:#134763;stop-opacity:0"/>
	</linearGradient>
	<path id="XMLID_115_" class="st8" d="M40.3,82.3c0,0,0-0.2,0-0.5c0-0.2,0-0.3,0.1-0.5c0-0.2,0.1-0.4,0.2-0.7
		c0.1-0.3,0.1-0.5,0.2-0.8c0-0.1,0.1-0.3,0.2-0.4c0.1-0.1,0.1-0.3,0.2-0.4c0.1-0.1,0.1-0.3,0.2-0.4c0-0.1,0.1-0.2,0.1-0.2
		c0-0.1,0.1-0.1,0.1-0.2c0.1-0.1,0.2-0.3,0.3-0.4c0.1-0.1,0.2-0.3,0.3-0.4c0.1-0.1,0.2-0.3,0.3-0.4c0.1-0.1,0.2-0.3,0.3-0.4
		c0.2-0.3,0.4-0.5,0.7-0.7c0.2-0.2,0.5-0.4,0.7-0.6c0.1-0.1,0.2-0.2,0.3-0.3c0.1-0.1,0.2-0.2,0.3-0.2c0.2-0.1,0.4-0.3,0.6-0.4
		c0.2-0.1,0.4-0.2,0.5-0.3c0.1-0.1,0.2-0.1,0.3-0.2c0.1,0,0.1-0.1,0.1-0.1s0,0-0.1,0.1c-0.1,0.1-0.1,0.2-0.2,0.3
		c-0.1,0.1-0.2,0.2-0.4,0.4c-0.1,0.2-0.3,0.3-0.5,0.5C45,74.9,45,75,44.9,75.1c-0.1,0.1-0.2,0.2-0.3,0.3c-0.2,0.2-0.4,0.4-0.6,0.7
		c-0.1,0.1-0.2,0.2-0.3,0.4c-0.1,0.1-0.2,0.3-0.3,0.4c-0.1,0.1-0.2,0.3-0.3,0.4c-0.1,0.1-0.2,0.3-0.3,0.4c-0.1,0.1-0.2,0.3-0.3,0.4
		c-0.1,0.1-0.2,0.3-0.3,0.4c-0.2,0.3-0.3,0.5-0.5,0.8c-0.2,0.3-0.3,0.5-0.4,0.8c-0.1,0.2-0.3,0.5-0.4,0.7c-0.1,0.2-0.2,0.4-0.3,0.6
		c-0.1,0.2-0.2,0.3-0.2,0.5c-0.1,0.1-0.1,0.2-0.2,0.3C40.3,82.3,40.3,82.3,40.3,82.3z"/>
	
		<linearGradient id="XMLID_128_" gradientUnits="userSpaceOnUse" x1="55.6637" y1="129.6736" x2="65.235" y2="110.9512" gradientTransform="matrix(0.9989 -4.584129e-02 4.584129e-02 0.9989 -14.3336 -45.9036)">
		<stop  offset="0" style="stop-color:#134763;stop-opacity:0.3"/>
		<stop  offset="0.9839" style="stop-color:#134763;stop-opacity:0"/>
	</linearGradient>
	<path id="XMLID_114_" class="st9" d="M44.1,88.2c0,0,0-0.2,0-0.6c0-0.2,0-0.4,0.1-0.7c0-0.1,0-0.3,0.1-0.4c0-0.1,0.1-0.3,0.1-0.5
		c0.1-0.3,0.2-0.7,0.3-1c0.1-0.2,0.1-0.4,0.2-0.6c0.1-0.2,0.1-0.4,0.2-0.6c0.1-0.4,0.3-0.8,0.5-1.2c0.1-0.2,0.2-0.4,0.3-0.6
		c0.1-0.2,0.2-0.4,0.3-0.6c0.2-0.4,0.4-0.8,0.7-1.1c0.1-0.1,0.1-0.2,0.2-0.3c0.1-0.1,0.1-0.2,0.2-0.3c0.1-0.2,0.2-0.3,0.4-0.5
		c0.1-0.1,0.1-0.2,0.2-0.2c0.1-0.1,0.1-0.2,0.2-0.2c0.1-0.2,0.3-0.3,0.4-0.4c0.1-0.1,0.2-0.3,0.4-0.4c0.1-0.1,0.2-0.3,0.4-0.4
		c0.2-0.2,0.4-0.5,0.7-0.6c0.2-0.2,0.4-0.3,0.5-0.4c0.1-0.1,0.3-0.2,0.4-0.3c0.1-0.1,0.1-0.1,0.1-0.1s0,0-0.1,0.1
		c-0.1,0.1-0.1,0.2-0.2,0.4c-0.1,0.2-0.2,0.3-0.4,0.6c-0.1,0.1-0.2,0.2-0.2,0.3c-0.1,0.1-0.2,0.3-0.3,0.4c-0.2,0.3-0.4,0.5-0.6,0.9
		c-0.1,0.2-0.2,0.3-0.3,0.5c-0.1,0.1-0.1,0.2-0.2,0.2c-0.1,0.1-0.1,0.2-0.2,0.3c-0.2,0.3-0.4,0.7-0.6,1.1c-0.2,0.4-0.4,0.7-0.6,1.1
		c-0.1,0.2-0.2,0.4-0.3,0.6c-0.1,0.2-0.2,0.4-0.3,0.6c-0.1,0.2-0.2,0.4-0.3,0.6c-0.1,0.2-0.2,0.4-0.3,0.6c-0.1,0.2-0.2,0.4-0.2,0.5
		c-0.1,0.2-0.2,0.3-0.2,0.5c-0.1,0.3-0.3,0.7-0.4,1c-0.1,0.3-0.2,0.6-0.3,0.8c-0.1,0.2-0.2,0.5-0.3,0.6C44.2,88,44.1,88.2,44.1,88.2
		z"/>
	
		<linearGradient id="XMLID_129_" gradientUnits="userSpaceOnUse" x1="147.289" y1="127.0929" x2="139.9354" y2="140.5394" gradientTransform="matrix(0.9989 -4.584129e-02 4.584129e-02 0.9989 -14.3336 -45.9036)">
		<stop  offset="0" style="stop-color:#134763;stop-opacity:0.3"/>
		<stop  offset="0.9839" style="stop-color:#134763;stop-opacity:0"/>
	</linearGradient>
	<path id="XMLID_113_" class="st10" d="M142.3,66.2c0,0,0,0.1,0,0.3c0,0.2,0,0.4-0.1,0.8c0,0.3-0.1,0.7-0.2,1
		c-0.1,0.2-0.1,0.4-0.2,0.6c-0.1,0.2-0.2,0.4-0.2,0.6c-0.2,0.4-0.4,0.7-0.6,1.1c-0.2,0.3-0.5,0.6-0.7,0.8c-0.1,0.1-0.2,0.2-0.3,0.3
		c-0.1,0.1-0.2,0.1-0.3,0.2c-0.1,0-0.2,0.1-0.2,0.1c0,0-0.1,0-0.1,0s0,0,0-0.1c0,0,0.1-0.1,0.1-0.2c0-0.1,0.1-0.2,0.2-0.3
		c0.1-0.1,0.1-0.2,0.2-0.4c0.1-0.3,0.3-0.6,0.4-0.9c0-0.1,0.1-0.2,0.1-0.3c0-0.1,0.1-0.2,0.1-0.3c0.1-0.2,0.2-0.4,0.2-0.5
		c0.1-0.2,0.2-0.4,0.3-0.5c0.1-0.2,0.2-0.3,0.3-0.5c0.2-0.3,0.3-0.6,0.5-0.9c0.2-0.3,0.3-0.5,0.4-0.6
		C142.2,66.3,142.3,66.2,142.3,66.2z"/>
	
		<linearGradient id="XMLID_130_" gradientUnits="userSpaceOnUse" x1="143.1599" y1="122.6236" x2="131.7444" y2="139.4318" gradientTransform="matrix(0.9989 -4.584129e-02 4.584129e-02 0.9989 -14.3336 -45.9036)">
		<stop  offset="0" style="stop-color:#134763;stop-opacity:0.3"/>
		<stop  offset="0.9839" style="stop-color:#134763;stop-opacity:0"/>
	</linearGradient>
	<path id="XMLID_112_" class="st11" d="M139.7,60.6c0,0,0,0.2,0,0.5c0,0.2,0,0.3-0.1,0.5c0,0.2-0.1,0.4-0.2,0.7
		c-0.1,0.3-0.1,0.5-0.2,0.8c0,0.1-0.1,0.3-0.2,0.4c-0.1,0.1-0.1,0.3-0.2,0.4c-0.1,0.1-0.1,0.3-0.2,0.4c0,0.1-0.1,0.2-0.1,0.2
		c0,0.1-0.1,0.1-0.1,0.2c-0.1,0.1-0.2,0.3-0.3,0.4c-0.1,0.1-0.2,0.3-0.3,0.4c-0.1,0.1-0.2,0.3-0.3,0.4c-0.1,0.1-0.2,0.3-0.3,0.4
		c-0.2,0.3-0.4,0.5-0.7,0.7c-0.2,0.2-0.5,0.4-0.7,0.6c-0.1,0.1-0.2,0.2-0.3,0.3c-0.1,0.1-0.2,0.2-0.3,0.2c-0.2,0.1-0.4,0.3-0.6,0.4
		c-0.2,0.1-0.4,0.2-0.5,0.3c-0.1,0.1-0.2,0.1-0.3,0.2c-0.1,0-0.1,0.1-0.1,0.1s0,0,0.1-0.1c0.1-0.1,0.1-0.2,0.2-0.3
		c0.1-0.1,0.2-0.2,0.4-0.4c0.1-0.2,0.3-0.3,0.5-0.5c0.1-0.1,0.2-0.2,0.3-0.3c0.1-0.1,0.2-0.2,0.3-0.3c0.2-0.2,0.4-0.4,0.6-0.7
		c0.1-0.1,0.2-0.2,0.3-0.4c0.1-0.1,0.2-0.3,0.3-0.4c0.1-0.1,0.2-0.3,0.3-0.4c0.1-0.1,0.2-0.3,0.3-0.4c0.1-0.1,0.2-0.3,0.3-0.4
		c0.1-0.1,0.2-0.3,0.3-0.4c0.2-0.3,0.3-0.5,0.5-0.8c0.2-0.3,0.3-0.5,0.4-0.8c0.1-0.2,0.3-0.5,0.4-0.7c0.1-0.2,0.2-0.4,0.3-0.6
		c0.1-0.2,0.2-0.3,0.2-0.5c0.1-0.1,0.1-0.2,0.2-0.3C139.7,60.7,139.7,60.6,139.7,60.6z"/>
	
		<linearGradient id="XMLID_131_" gradientUnits="userSpaceOnUse" x1="144.1122" y1="108.3551" x2="150.7654" y2="90.7066" gradientTransform="matrix(0.9989 -4.584129e-02 4.584129e-02 0.9989 -14.3336 -45.9036)">
		<stop  offset="0" style="stop-color:#134763;stop-opacity:0.3"/>
		<stop  offset="0.9839" style="stop-color:#134763;stop-opacity:0"/>
	</linearGradient>
	<path id="XMLID_111_" class="st12" d="M135.9,54.7c0,0,0,0.2,0,0.6c0,0.2,0,0.4-0.1,0.7c0,0.1,0,0.3-0.1,0.4c0,0.1-0.1,0.3-0.1,0.5
		c-0.1,0.3-0.2,0.7-0.3,1c-0.1,0.2-0.1,0.4-0.2,0.6c-0.1,0.2-0.1,0.4-0.2,0.6c-0.1,0.4-0.3,0.8-0.5,1.2c-0.1,0.2-0.2,0.4-0.3,0.6
		c-0.1,0.2-0.2,0.4-0.3,0.6c-0.2,0.4-0.4,0.8-0.7,1.1c-0.1,0.1-0.1,0.2-0.2,0.3c-0.1,0.1-0.1,0.2-0.2,0.3c-0.1,0.2-0.2,0.3-0.4,0.5
		c-0.1,0.1-0.1,0.2-0.2,0.2c-0.1,0.1-0.1,0.2-0.2,0.2c-0.1,0.2-0.3,0.3-0.4,0.4c-0.1,0.1-0.2,0.3-0.4,0.4c-0.1,0.1-0.2,0.3-0.4,0.4
		c-0.2,0.2-0.4,0.5-0.7,0.6c-0.2,0.2-0.4,0.3-0.5,0.4c-0.1,0.1-0.3,0.2-0.4,0.3c-0.1,0.1-0.1,0.1-0.1,0.1s0,0,0.1-0.1
		c0.1-0.1,0.1-0.2,0.2-0.4c0.1-0.2,0.2-0.3,0.4-0.6c0.1-0.1,0.2-0.2,0.2-0.3c0.1-0.1,0.2-0.3,0.3-0.4c0.2-0.3,0.4-0.5,0.6-0.9
		c0.1-0.2,0.2-0.3,0.3-0.5c0.1-0.1,0.1-0.2,0.2-0.2c0.1-0.1,0.1-0.2,0.2-0.3c0.2-0.3,0.4-0.7,0.6-1.1c0.2-0.4,0.4-0.7,0.6-1.1
		c0.1-0.2,0.2-0.4,0.3-0.6c0.1-0.2,0.2-0.4,0.3-0.6c0.1-0.2,0.2-0.4,0.3-0.6c0.1-0.2,0.2-0.4,0.3-0.6c0.1-0.2,0.2-0.4,0.2-0.5
		c0.1-0.2,0.2-0.3,0.2-0.5c0.1-0.3,0.3-0.7,0.4-1c0.1-0.3,0.2-0.6,0.3-0.8c0.1-0.2,0.2-0.5,0.3-0.6
		C135.8,54.9,135.9,54.7,135.9,54.7z"/>
	<g>
		
			<linearGradient id="XMLID_132_" gradientUnits="userSpaceOnUse" x1="98.8431" y1="151.941" x2="98.8431" y2="195.8277" gradientTransform="matrix(0.9989 -4.584129e-02 4.584129e-02 0.9989 -14.3336 -45.9036)">
			<stop  offset="0" style="stop-color:#00C9FF"/>
			<stop  offset="1" style="stop-color:#92FE9D"/>
		</linearGradient>
		<path id="XMLID_110_" class="st13" d="M118.9,111.1c-7.9,5.9-17.4,9.3-27.3,9.7c-9.7,0.4-19.3-1.9-27.6-6.9
			c-0.2-0.1-0.3-0.2-0.5-0.3l26.8,41.9l29.7-45.3C119.7,110.5,119.3,110.8,118.9,111.1z"/>
		
			<linearGradient id="XMLID_133_" gradientUnits="userSpaceOnUse" x1="105.9017" y1="175.7299" x2="105.248" y2="198.8878" gradientTransform="matrix(0.9989 -4.584129e-02 4.584129e-02 0.9989 -14.3336 -45.9036)">
			<stop  offset="0" style="stop-color:#00C9FF"/>
			<stop  offset="1" style="stop-color:#92FE9D"/>
		</linearGradient>
		<path id="XMLID_109_" class="st14" d="M78.9,137.5l11.6,18l29.7-45.3C120.1,110.2,104.9,133.1,78.9,137.5z"/>
	</g>
	<path class="st15" d="M91.7,69.1l-0.3-6.7c1.4,0.2,2.6,0.8,3.5,1.6c0.6,0.5,1.1,0.8,1.6,0.7c1.1-0.1,1.9-1,1.9-2
		c0-0.4-0.2-0.8-0.4-1.2c-1.3-1.7-3.8-2.8-6.8-3l0-1.1l0-1.1c0-1-0.8-1.7-1.8-1.6c-0.9,0-1.7,0.8-1.6,1.8l0,1.1l0,1
		c-4.7,0.7-6.6,3.6-6.4,6.9c0.2,4.4,3.7,5.9,7.1,6.9l0.4,7.7c-1.8-0.3-3.2-1.3-4.4-2.4c-0.4-0.3-0.8-0.8-1.7-0.7
		c-1.1,0-1.9,1-1.9,2.1c0,0.4,0.1,0.7,0.3,1c1.3,2,4.2,3.7,7.8,4l0,0.4l0.1,1.6c0,1,0.8,1.7,1.8,1.6c1,0,1.7-0.8,1.6-1.8l-0.1-1.6
		l0-0.4c4.9-0.7,7.3-3.5,7.2-7.5C99.4,71.6,95.4,70.1,91.7,69.1z M85.7,65.4c-0.1-1.2,0.6-2.3,2.4-2.8l0.3,5.5
		C86.8,67.5,85.7,66.7,85.7,65.4z M92.3,80.1L92,73.5c1.9,0.7,3.3,1.5,3.4,3.2C95.4,78.6,94.4,79.7,92.3,80.1z"/>
</g>
</svg>
