<?xml version="1.0" encoding="utf-8"?>
<!-- Generator: Adobe Illustrator 20.1.0, SVG Export Plug-In . SVG Version: 6.00 Build 0)  -->
<svg version="1.1" id="Layer_1" xmlns="http://www.w3.org/2000/svg" xmlns:xlink="http://www.w3.org/1999/xlink" x="0px" y="0px"
	 viewBox="0 0 60 60" style="enable-background:new 0 0 60 60;" xml:space="preserve">
<style type="text/css">
	.st0{fill:url(#SVGID_1_);}
	.st1{fill:url(#SVGID_2_);}
	.st2{fill:url(#SVGID_3_);}
	.st3{fill:url(#XMLID_122_);}
	.st4{fill:url(#XMLID_123_);}
	.st5{fill:url(#XMLID_124_);}
	.st6{fill:url(#XMLID_125_);}
	.st7{fill:url(#XMLID_126_);}
	.st8{fill:url(#XMLID_127_);}
	.st9{fill:url(#XMLID_128_);}
	.st10{fill:url(#XMLID_129_);}
	.st11{fill:url(#XMLID_130_);}
	.st12{fill:url(#XMLID_131_);}
	.st13{fill:url(#XMLID_132_);}
	.st14{fill:url(#XMLID_133_);}
	.st15{fill:#F49C3B;}
	.st16{fill:url(#SVGID_4_);}
	.st17{fill:url(#SVGID_5_);}
	.st18{fill:url(#SVGID_6_);}
	.st19{fill:url(#XMLID_134_);}
	.st20{fill:url(#XMLID_135_);}
	.st21{fill:url(#XMLID_136_);}
	.st22{fill:url(#XMLID_137_);}
	.st23{fill:url(#XMLID_138_);}
	.st24{fill:url(#XMLID_139_);}
	.st25{fill:url(#XMLID_140_);}
	.st26{fill:url(#XMLID_141_);}
	.st27{fill:url(#XMLID_142_);}
	.st28{fill:url(#XMLID_143_);}
	.st29{fill:url(#XMLID_144_);}
	.st30{fill:url(#XMLID_145_);}
	.st31{fill:url(#SVGID_7_);}
	.st32{fill:url(#SVGID_8_);}
	.st33{fill:url(#SVGID_9_);}
	.st34{fill:url(#XMLID_146_);}
	.st35{fill:url(#XMLID_147_);}
	.st36{fill:url(#XMLID_148_);}
	.st37{fill:url(#XMLID_149_);}
	.st38{fill:url(#XMLID_150_);}
	.st39{fill:url(#XMLID_151_);}
	.st40{fill:url(#XMLID_152_);}
	.st41{fill:url(#XMLID_153_);}
	.st42{fill:url(#XMLID_154_);}
	.st43{fill:url(#XMLID_155_);}
	.st44{fill:url(#XMLID_156_);}
	.st45{fill:url(#XMLID_157_);}
	.st46{fill:url(#SVGID_10_);}
	.st47{fill:url(#SVGID_11_);}
	.st48{fill:url(#SVGID_12_);}
	.st49{fill:url(#XMLID_158_);}
	.st50{fill:url(#XMLID_159_);}
	.st51{fill:url(#XMLID_160_);}
	.st52{fill:url(#XMLID_161_);}
	.st53{fill:url(#XMLID_162_);}
	.st54{fill:url(#XMLID_163_);}
	.st55{fill:url(#XMLID_164_);}
	.st56{fill:url(#XMLID_165_);}
	.st57{fill:url(#XMLID_166_);}
	.st58{fill:url(#XMLID_167_);}
	.st59{fill:url(#XMLID_168_);}
	.st60{fill:url(#XMLID_169_);}
	.st61{fill:url(#SVGID_13_);}
	.st62{fill:url(#SVGID_14_);}
	.st63{fill:url(#SVGID_15_);}
	.st64{fill:url(#XMLID_170_);}
	.st65{fill:url(#XMLID_171_);}
	.st66{fill:url(#XMLID_172_);}
	.st67{fill:url(#XMLID_173_);}
	.st68{fill:url(#XMLID_174_);}
	.st69{fill:url(#XMLID_175_);}
	.st70{fill:url(#XMLID_176_);}
	.st71{fill:url(#XMLID_177_);}
	.st72{fill:url(#XMLID_178_);}
	.st73{fill:url(#XMLID_179_);}
	.st74{fill:url(#XMLID_180_);}
	.st75{fill:url(#XMLID_181_);}
	.st76{fill:url(#SVGID_16_);}
	.st77{fill:url(#SVGID_17_);}
	.st78{fill:url(#SVGID_18_);}
	.st79{fill:url(#XMLID_182_);}
	.st80{fill:url(#XMLID_183_);}
	.st81{fill:url(#XMLID_184_);}
	.st82{fill:url(#XMLID_185_);}
	.st83{fill:url(#XMLID_186_);}
	.st84{fill:url(#XMLID_187_);}
	.st85{fill:url(#XMLID_188_);}
	.st86{fill:url(#XMLID_189_);}
	.st87{fill:url(#XMLID_190_);}
	.st88{fill:url(#XMLID_191_);}
	.st89{fill:url(#XMLID_192_);}
	.st90{fill:url(#XMLID_193_);}
	.st91{fill:url(#SVGID_19_);}
	.st92{fill:url(#SVGID_20_);}
	.st93{fill:url(#SVGID_21_);}
	.st94{fill:url(#XMLID_194_);}
	.st95{fill:url(#XMLID_195_);}
	.st96{fill:url(#XMLID_196_);}
	.st97{fill:url(#XMLID_197_);}
	.st98{fill:url(#XMLID_198_);}
	.st99{fill:url(#XMLID_199_);}
	.st100{fill:url(#XMLID_200_);}
	.st101{fill:url(#XMLID_201_);}
	.st102{fill:url(#XMLID_202_);}
	.st103{fill:url(#XMLID_203_);}
	.st104{fill:url(#XMLID_204_);}
	.st105{fill:url(#XMLID_205_);}
	.st106{fill:url(#SVGID_22_);}
	.st107{fill:url(#SVGID_23_);}
	.st108{fill:url(#SVGID_24_);}
	.st109{fill:url(#XMLID_206_);}
	.st110{fill:url(#XMLID_207_);}
	.st111{fill:url(#XMLID_208_);}
	.st112{fill:url(#XMLID_209_);}
	.st113{fill:url(#XMLID_210_);}
	.st114{fill:url(#XMLID_211_);}
	.st115{fill:url(#XMLID_212_);}
	.st116{fill:url(#XMLID_213_);}
	.st117{fill:url(#XMLID_214_);}
	.st118{fill:url(#XMLID_215_);}
	.st119{fill:url(#XMLID_216_);}
	.st120{fill:url(#XMLID_217_);}
	.st121{fill:url(#SVGID_25_);}
	.st122{fill:url(#SVGID_26_);}
	.st123{fill:url(#SVGID_27_);}
	.st124{fill:url(#XMLID_218_);}
	.st125{fill:url(#XMLID_219_);}
	.st126{fill:url(#XMLID_220_);}
	.st127{fill:url(#XMLID_221_);}
	.st128{fill:url(#XMLID_222_);}
	.st129{fill:url(#XMLID_223_);}
	.st130{fill:url(#XMLID_224_);}
	.st131{fill:url(#XMLID_225_);}
	.st132{fill:url(#XMLID_226_);}
	.st133{fill:url(#XMLID_227_);}
	.st134{fill:url(#XMLID_228_);}
	.st135{fill:url(#XMLID_229_);}
	.st136{fill:url(#SVGID_28_);}
	.st137{fill:url(#SVGID_29_);}
	.st138{fill:url(#SVGID_30_);}
	.st139{fill:url(#XMLID_230_);}
	.st140{fill:url(#XMLID_231_);}
	.st141{fill:url(#XMLID_232_);}
	.st142{fill:url(#XMLID_233_);}
	.st143{fill:url(#XMLID_234_);}
	.st144{fill:url(#XMLID_235_);}
	.st145{fill:url(#XMLID_236_);}
	.st146{fill:url(#XMLID_237_);}
	.st147{fill:url(#XMLID_238_);}
	.st148{fill:url(#XMLID_239_);}
	.st149{fill:url(#XMLID_240_);}
	.st150{fill:url(#XMLID_241_);}
</style>
<linearGradient id="SVGID_1_" gradientUnits="userSpaceOnUse" x1="0.4212" y1="59.666" x2="60.017" y2="-0.1056">
	<stop  offset="0" style="stop-color:#F1F2F2"/>
	<stop  offset="1" style="stop-color:#FFFFFF"/>
</linearGradient>
<rect class="st0" width="60" height="60"/>
<g>
	
		<linearGradient id="SVGID_2_" gradientUnits="userSpaceOnUse" x1="15.7972" y1="58.9653" x2="36.0295" y2="58.9653" gradientTransform="matrix(0.9989 -4.584129e-02 4.584129e-02 0.9989 1.4176 -33.7436)">
		<stop  offset="0" style="stop-color:#FBB040"/>
		<stop  offset="1" style="stop-color:#F7941D"/>
	</linearGradient>
	<circle class="st1" cx="30" cy="24" r="10.1"/>
	
		<linearGradient id="SVGID_3_" gradientUnits="userSpaceOnUse" x1="16.7109" y1="58.9653" x2="35.1158" y2="58.9653" gradientTransform="matrix(0.9989 -4.584129e-02 4.584129e-02 0.9989 1.4176 -33.7436)">
		<stop  offset="0" style="stop-color:#F9ED32"/>
		<stop  offset="1" style="stop-color:#EFB25E"/>
	</linearGradient>
	<circle class="st2" cx="30" cy="24" r="9.2"/>
	
		<linearGradient id="XMLID_122_" gradientUnits="userSpaceOnUse" x1="43.9061" y1="62.3426" x2="15.6124" y2="52.7247" gradientTransform="matrix(0.9989 -4.584129e-02 4.584129e-02 0.9989 1.4176 -33.7436)">
		<stop  offset="0" style="stop-color:#00C9FF"/>
		<stop  offset="1" style="stop-color:#92FE9D"/>
	</linearGradient>
	<path id="XMLID_59_" class="st3" d="M29.3,8.2c-6.5,0.3-11.9,4.5-14,10.2l0,0c0,0-2.7,1.9-2.8,3.8c-0.2,1.9,0.2,3.4,0.2,3.4
		s-0.3,1.3,0.8,1.9c0,0-0.6,1.4,1.3,2c0,0,0.2,2.3,2,1.1c0.5-0.6,0-1.2,0.7-2.2c0.7-1,1.9-3.7,3-2.5c0,0,0.1,0.7,0.6,1.8
		c0,0,2.2-1,1.7-3.3c-0.5-2.3-2.4-4.2,0.5-7.5c1.7-1.6,3.9-2.6,6.4-2.7c5.1-0.2,9.4,3.4,10.2,8.3l5.9-0.3C44.7,14,37.6,7.8,29.3,8.2
		z"/>
	
		<linearGradient id="XMLID_123_" gradientUnits="userSpaceOnUse" x1="35.7541" y1="59.6268" x2="39.6526" y2="50.4991" gradientTransform="matrix(0.9989 -4.584129e-02 4.584129e-02 0.9989 1.4176 -33.7436)">
		<stop  offset="0" style="stop-color:#134763;stop-opacity:0.3"/>
		<stop  offset="0.9839" style="stop-color:#134763;stop-opacity:0"/>
	</linearGradient>
	<path id="XMLID_58_" class="st4" d="M39.5,21.3c0.1,0.3,0.1,0.4,0.1,0.5c0,0,0,0,0,0c1.1,1.2,2.3-1.4,3-2.5c0.7-1,1.2-2.5,1.4-2.6
		c-0.2-0.4-0.4-0.7-0.6-1.1c0,0-0.5,0.4-0.7,1.6C42.5,18.5,41,21.5,39.5,21.3z"/>
	
		<linearGradient id="XMLID_124_" gradientUnits="userSpaceOnUse" x1="13.1391" y1="54.1052" x2="30.9744" y2="63.2563" gradientTransform="matrix(0.9989 -4.584129e-02 4.584129e-02 0.9989 1.4176 -33.7436)">
		<stop  offset="0" style="stop-color:#00C9FF"/>
		<stop  offset="1" style="stop-color:#92FE9D"/>
	</linearGradient>
	<path id="XMLID_57_" class="st5" d="M47.4,22.1c0,0,0.3-1.3-0.8-1.9c0,0,0.6-1.4-1.3-2c0,0-0.1-1.7-1.3-1.4c-0.6,0.1-1,0.6-1,1.2
		c0,0.4,0,0.8-0.4,1.4c-0.7,1-1.9,3.7-3,2.5c0,0-0.1-0.7-0.6-1.8c0,0-2.2,1-1.7,3.3c0.5,2.3,2.4,4.2-0.5,7.5
		c-1.7,1.6-3.9,2.6-6.4,2.7c-4.2,0.2-7.9-2.3-9.5-5.9c0,0,0,0,0,0c-0.4-1-0.5-1.7-0.6-1.8c0,0,0,0,0,0c-1.1-1.2-2.3,1.4-3,2.5
		c-0.7,1-0.2,1.6-0.7,2.2c-0.3,0.2-0.5,0.3-0.7,0.3c2.7,5.4,8.4,8.9,14.8,8.6c6.5-0.3,11.9-4.5,14-10.2l0,0c0,0,2.7-1.9,2.8-3.8
		C47.8,23.6,47.4,22.1,47.4,22.1z"/>
	
		<linearGradient id="XMLID_125_" gradientUnits="userSpaceOnUse" x1="14.339" y1="61.7027" x2="13.125" y2="65.609" gradientTransform="matrix(0.9989 -4.584129e-02 4.584129e-02 0.9989 1.4176 -33.7436)">
		<stop  offset="0" style="stop-color:#134763;stop-opacity:0.3"/>
		<stop  offset="0.9839" style="stop-color:#134763;stop-opacity:0"/>
	</linearGradient>
	<path id="XMLID_55_" class="st6" d="M20.5,26.3c-0.1-0.3-0.1-0.4-0.1-0.5c0,0,0,0,0,0c-1.1-1.2-2.3,1.4-3,2.5
		c-0.7,1-0.2,1.6-0.7,2.2c-0.3,0.2-0.5,0.3-0.7,0.3c0.2,0.4,0.4,0.7,0.6,1.1c0,0,0.5-0.4,0.7-1.6C17.5,29.2,19,26.2,20.5,26.3z"/>
	
		<linearGradient id="XMLID_126_" gradientUnits="userSpaceOnUse" x1="9.1656" y1="59.0571" x2="11.0954" y2="55.2286" gradientTransform="matrix(0.9989 -4.584129e-02 4.584129e-02 0.9989 1.4176 -33.7436)">
		<stop  offset="0" style="stop-color:#134763;stop-opacity:0.3"/>
		<stop  offset="0.9839" style="stop-color:#134763;stop-opacity:0"/>
	</linearGradient>
	<path id="XMLID_54_" class="st7" d="M13,25.6C13,25.6,13,25.5,13,25.6c0-0.2,0-0.2,0-0.4c0-0.1,0-0.2,0.1-0.3c0-0.1,0-0.1,0.1-0.2
		c0-0.1,0.1-0.1,0.1-0.2c0.1-0.1,0.1-0.2,0.2-0.4c0.1-0.1,0.2-0.2,0.2-0.3c0,0,0.1-0.1,0.1-0.1c0,0,0.1,0,0.1-0.1c0,0,0.1,0,0.1,0
		c0,0,0,0,0,0s0,0,0,0c0,0,0,0,0,0.1c0,0,0,0.1-0.1,0.1c0,0,0,0.1-0.1,0.1c0,0.1-0.1,0.2-0.1,0.3c0,0,0,0.1,0,0.1c0,0,0,0.1,0,0.1
		c0,0.1-0.1,0.1-0.1,0.2c0,0.1-0.1,0.1-0.1,0.2c0,0.1-0.1,0.1-0.1,0.2c-0.1,0.1-0.1,0.2-0.2,0.3C13.2,25.4,13.1,25.4,13,25.6
		C13,25.5,13,25.6,13,25.6z"/>
	
		<linearGradient id="XMLID_127_" gradientUnits="userSpaceOnUse" x1="9.9316" y1="60.5634" x2="11.9704" y2="56.9372" gradientTransform="matrix(0.9989 -4.584129e-02 4.584129e-02 0.9989 1.4176 -33.7436)">
		<stop  offset="0" style="stop-color:#134763;stop-opacity:0.3"/>
		<stop  offset="0.9839" style="stop-color:#134763;stop-opacity:0"/>
	</linearGradient>
	<path id="XMLID_52_" class="st8" d="M13.4,27.4c0,0,0-0.1,0-0.2c0-0.1,0-0.1,0-0.2c0-0.1,0-0.1,0.1-0.2c0-0.1,0-0.2,0.1-0.3
		c0,0,0-0.1,0.1-0.1c0,0,0-0.1,0.1-0.1c0,0,0-0.1,0.1-0.1c0,0,0-0.1,0-0.1c0,0,0,0,0-0.1c0,0,0.1-0.1,0.1-0.1c0,0,0.1-0.1,0.1-0.1
		c0,0,0.1-0.1,0.1-0.1c0,0,0.1-0.1,0.1-0.1c0.1-0.1,0.1-0.2,0.2-0.2c0.1-0.1,0.2-0.1,0.2-0.2c0,0,0.1-0.1,0.1-0.1
		c0,0,0.1-0.1,0.1-0.1c0.1,0,0.1-0.1,0.2-0.1c0.1,0,0.1-0.1,0.2-0.1c0,0,0.1,0,0.1-0.1c0,0,0,0,0,0s0,0,0,0c0,0,0,0.1-0.1,0.1
		c0,0-0.1,0.1-0.1,0.1c0,0.1-0.1,0.1-0.2,0.2C15,25,15,25,15,25c0,0-0.1,0.1-0.1,0.1c-0.1,0.1-0.1,0.1-0.2,0.2c0,0-0.1,0.1-0.1,0.1
		c0,0-0.1,0.1-0.1,0.1c0,0-0.1,0.1-0.1,0.1c0,0-0.1,0.1-0.1,0.1c0,0-0.1,0.1-0.1,0.1c0,0-0.1,0.1-0.1,0.1c-0.1,0.1-0.1,0.2-0.2,0.3
		c-0.1,0.1-0.1,0.2-0.1,0.3c0,0.1-0.1,0.2-0.1,0.2c0,0.1-0.1,0.1-0.1,0.2c0,0.1-0.1,0.1-0.1,0.2C13.5,27.3,13.4,27.4,13.4,27.4
		C13.4,27.4,13.4,27.4,13.4,27.4z"/>
	
		<linearGradient id="XMLID_128_" gradientUnits="userSpaceOnUse" x1="11.5202" y1="61.3635" x2="14.7106" y2="55.1227" gradientTransform="matrix(0.9989 -4.584129e-02 4.584129e-02 0.9989 1.4176 -33.7436)">
		<stop  offset="0" style="stop-color:#134763;stop-opacity:0.3"/>
		<stop  offset="0.9839" style="stop-color:#134763;stop-opacity:0"/>
	</linearGradient>
	<path id="XMLID_51_" class="st9" d="M14.7,29.4c0,0,0-0.1,0-0.2c0-0.1,0-0.1,0-0.2c0,0,0-0.1,0-0.1c0,0,0-0.1,0-0.2
		c0-0.1,0.1-0.2,0.1-0.3c0-0.1,0-0.1,0.1-0.2c0-0.1,0-0.1,0.1-0.2c0-0.1,0.1-0.3,0.2-0.4c0-0.1,0.1-0.1,0.1-0.2
		c0-0.1,0.1-0.1,0.1-0.2c0.1-0.1,0.1-0.3,0.2-0.4c0,0,0-0.1,0.1-0.1c0,0,0-0.1,0.1-0.1c0-0.1,0.1-0.1,0.1-0.2c0,0,0-0.1,0.1-0.1
		c0,0,0-0.1,0.1-0.1c0-0.1,0.1-0.1,0.1-0.1c0,0,0.1-0.1,0.1-0.1c0,0,0.1-0.1,0.1-0.1c0.1-0.1,0.1-0.2,0.2-0.2
		c0.1-0.1,0.1-0.1,0.2-0.1c0,0,0.1-0.1,0.1-0.1c0,0,0,0,0,0s0,0,0,0c0,0,0,0.1-0.1,0.1c0,0.1-0.1,0.1-0.1,0.2c0,0-0.1,0.1-0.1,0.1
		c0,0-0.1,0.1-0.1,0.1c-0.1,0.1-0.1,0.2-0.2,0.3c0,0.1-0.1,0.1-0.1,0.2c0,0,0,0.1-0.1,0.1c0,0,0,0.1-0.1,0.1
		c-0.1,0.1-0.1,0.2-0.2,0.4c-0.1,0.1-0.1,0.2-0.2,0.4c0,0.1-0.1,0.1-0.1,0.2c0,0.1-0.1,0.1-0.1,0.2c0,0.1-0.1,0.1-0.1,0.2
		c0,0.1-0.1,0.1-0.1,0.2c0,0.1-0.1,0.1-0.1,0.2c0,0.1-0.1,0.1-0.1,0.2c0,0.1-0.1,0.2-0.1,0.3c0,0.1-0.1,0.2-0.1,0.3
		c0,0.1-0.1,0.2-0.1,0.2C14.7,29.3,14.7,29.4,14.7,29.4z"/>
	
		<linearGradient id="XMLID_129_" gradientUnits="userSpaceOnUse" x1="42.062" y1="60.5033" x2="39.6108" y2="64.9854" gradientTransform="matrix(0.9989 -4.584129e-02 4.584129e-02 0.9989 1.4176 -33.7436)">
		<stop  offset="0" style="stop-color:#134763;stop-opacity:0.3"/>
		<stop  offset="0.9839" style="stop-color:#134763;stop-opacity:0"/>
	</linearGradient>
	<path id="XMLID_47_" class="st10" d="M47.4,22.1C47.4,22.1,47.4,22.1,47.4,22.1c0,0.2,0,0.2,0,0.4c0,0.1,0,0.2-0.1,0.3
		c0,0.1,0,0.1-0.1,0.2c0,0.1-0.1,0.1-0.1,0.2c-0.1,0.1-0.1,0.2-0.2,0.4c-0.1,0.1-0.2,0.2-0.2,0.3c0,0-0.1,0.1-0.1,0.1
		c0,0-0.1,0-0.1,0.1c0,0-0.1,0-0.1,0c0,0,0,0,0,0s0,0,0,0c0,0,0,0,0-0.1c0,0,0-0.1,0.1-0.1c0,0,0-0.1,0.1-0.1c0-0.1,0.1-0.2,0.1-0.3
		c0,0,0-0.1,0-0.1c0,0,0-0.1,0-0.1c0-0.1,0.1-0.1,0.1-0.2c0-0.1,0.1-0.1,0.1-0.2c0-0.1,0.1-0.1,0.1-0.2c0.1-0.1,0.1-0.2,0.2-0.3
		C47.3,22.3,47.3,22.2,47.4,22.1C47.4,22.1,47.4,22.1,47.4,22.1z"/>
	
		<linearGradient id="XMLID_130_" gradientUnits="userSpaceOnUse" x1="40.6856" y1="59.0135" x2="36.8805" y2="64.6162" gradientTransform="matrix(0.9989 -4.584129e-02 4.584129e-02 0.9989 1.4176 -33.7436)">
		<stop  offset="0" style="stop-color:#134763;stop-opacity:0.3"/>
		<stop  offset="0.9839" style="stop-color:#134763;stop-opacity:0"/>
	</linearGradient>
	<path id="XMLID_46_" class="st11" d="M46.6,20.2c0,0,0,0.1,0,0.2c0,0.1,0,0.1,0,0.2c0,0.1,0,0.1-0.1,0.2c0,0.1,0,0.2-0.1,0.3
		c0,0,0,0.1-0.1,0.1c0,0,0,0.1-0.1,0.1c0,0,0,0.1-0.1,0.1c0,0,0,0.1,0,0.1c0,0,0,0,0,0.1c0,0-0.1,0.1-0.1,0.1c0,0-0.1,0.1-0.1,0.1
		c0,0-0.1,0.1-0.1,0.1c0,0-0.1,0.1-0.1,0.1c-0.1,0.1-0.1,0.2-0.2,0.2c-0.1,0.1-0.2,0.1-0.2,0.2c0,0-0.1,0.1-0.1,0.1
		c0,0-0.1,0.1-0.1,0.1c-0.1,0-0.1,0.1-0.2,0.1c-0.1,0-0.1,0.1-0.2,0.1c0,0-0.1,0-0.1,0.1c0,0,0,0,0,0s0,0,0,0c0,0,0-0.1,0.1-0.1
		c0,0,0.1-0.1,0.1-0.1c0-0.1,0.1-0.1,0.2-0.2c0,0,0.1-0.1,0.1-0.1c0,0,0.1-0.1,0.1-0.1c0.1-0.1,0.1-0.1,0.2-0.2c0,0,0.1-0.1,0.1-0.1
		c0,0,0.1-0.1,0.1-0.1c0,0,0.1-0.1,0.1-0.1c0,0,0.1-0.1,0.1-0.1c0,0,0.1-0.1,0.1-0.1c0,0,0.1-0.1,0.1-0.1c0.1-0.1,0.1-0.2,0.2-0.3
		c0.1-0.1,0.1-0.2,0.1-0.3c0-0.1,0.1-0.2,0.1-0.2c0-0.1,0.1-0.1,0.1-0.2c0-0.1,0.1-0.1,0.1-0.2C46.5,20.3,46.5,20.3,46.6,20.2
		C46.6,20.2,46.6,20.2,46.6,20.2z"/>
	
		<linearGradient id="XMLID_131_" gradientUnits="userSpaceOnUse" x1="41.0031" y1="54.2573" x2="43.2208" y2="48.3745" gradientTransform="matrix(0.9989 -4.584129e-02 4.584129e-02 0.9989 1.4176 -33.7436)">
		<stop  offset="0" style="stop-color:#134763;stop-opacity:0.3"/>
		<stop  offset="0.9839" style="stop-color:#134763;stop-opacity:0"/>
	</linearGradient>
	<path id="XMLID_44_" class="st12" d="M45.3,18.2c0,0,0,0.1,0,0.2c0,0.1,0,0.1,0,0.2c0,0,0,0.1,0,0.1c0,0,0,0.1,0,0.2
		c0,0.1-0.1,0.2-0.1,0.3c0,0.1,0,0.1-0.1,0.2c0,0.1,0,0.1-0.1,0.2c0,0.1-0.1,0.3-0.2,0.4c0,0.1-0.1,0.1-0.1,0.2
		c0,0.1-0.1,0.1-0.1,0.2c-0.1,0.1-0.1,0.3-0.2,0.4c0,0,0,0.1-0.1,0.1c0,0,0,0.1-0.1,0.1c0,0.1-0.1,0.1-0.1,0.2c0,0,0,0.1-0.1,0.1
		c0,0,0,0.1-0.1,0.1c0,0.1-0.1,0.1-0.1,0.1c0,0-0.1,0.1-0.1,0.1c0,0-0.1,0.1-0.1,0.1c-0.1,0.1-0.1,0.2-0.2,0.2
		c-0.1,0.1-0.1,0.1-0.2,0.1c0,0-0.1,0.1-0.1,0.1c0,0,0,0,0,0s0,0,0,0c0,0,0-0.1,0.1-0.1c0-0.1,0.1-0.1,0.1-0.2c0,0,0.1-0.1,0.1-0.1
		c0,0,0.1-0.1,0.1-0.1c0.1-0.1,0.1-0.2,0.2-0.3c0-0.1,0.1-0.1,0.1-0.2c0,0,0-0.1,0.1-0.1c0,0,0-0.1,0.1-0.1c0.1-0.1,0.1-0.2,0.2-0.4
		c0.1-0.1,0.1-0.2,0.2-0.4c0-0.1,0.1-0.1,0.1-0.2c0-0.1,0.1-0.1,0.1-0.2c0-0.1,0.1-0.1,0.1-0.2c0-0.1,0.1-0.1,0.1-0.2
		c0-0.1,0.1-0.1,0.1-0.2c0-0.1,0.1-0.1,0.1-0.2c0-0.1,0.1-0.2,0.1-0.3c0-0.1,0.1-0.2,0.1-0.3c0-0.1,0.1-0.2,0.1-0.2
		C45.3,18.3,45.3,18.2,45.3,18.2z"/>
	<g>
		
			<linearGradient id="XMLID_132_" gradientUnits="userSpaceOnUse" x1="25.9133" y1="68.786" x2="25.9133" y2="83.4149" gradientTransform="matrix(0.9989 -4.584129e-02 4.584129e-02 0.9989 1.4176 -33.7436)">
			<stop  offset="0" style="stop-color:#00C9FF"/>
			<stop  offset="1" style="stop-color:#92FE9D"/>
		</linearGradient>
		<path id="XMLID_42_" class="st13" d="M39.6,37c-2.6,2-5.8,3.1-9.1,3.2c-3.2,0.1-6.4-0.6-9.2-2.3c-0.1,0-0.1-0.1-0.2-0.1l8.9,14
			L40,36.7C39.9,36.8,39.8,36.9,39.6,37z"/>
		
			<linearGradient id="XMLID_133_" gradientUnits="userSpaceOnUse" x1="28.2662" y1="76.7156" x2="28.0483" y2="84.4349" gradientTransform="matrix(0.9989 -4.584129e-02 4.584129e-02 0.9989 1.4176 -33.7436)">
			<stop  offset="0" style="stop-color:#00C9FF"/>
			<stop  offset="1" style="stop-color:#92FE9D"/>
		</linearGradient>
		<path id="XMLID_41_" class="st14" d="M26.3,45.8l3.9,6L40,36.7C40,36.7,35,44.4,26.3,45.8z"/>
	</g>
	<path class="st15" d="M30.6,23l-0.1-2.2c0.5,0.1,0.9,0.3,1.2,0.5c0.2,0.2,0.4,0.3,0.5,0.2c0.4,0,0.6-0.3,0.6-0.7
		c0-0.1-0.1-0.3-0.1-0.4c-0.4-0.6-1.3-0.9-2.3-1l0-0.4l0-0.4c0-0.3-0.3-0.6-0.6-0.5c-0.3,0-0.6,0.3-0.5,0.6l0,0.4l0,0.3
		c-1.6,0.2-2.2,1.2-2.1,2.3c0.1,1.5,1.2,2,2.4,2.3l0.1,2.6c-0.6-0.1-1.1-0.4-1.5-0.8c-0.1-0.1-0.3-0.3-0.6-0.2
		c-0.4,0-0.6,0.3-0.6,0.7c0,0.1,0,0.2,0.1,0.3c0.4,0.7,1.4,1.2,2.6,1.3l0,0.1l0,0.5c0,0.3,0.3,0.6,0.6,0.5c0.3,0,0.6-0.3,0.5-0.6
		l0-0.5l0-0.1c1.6-0.2,2.4-1.2,2.4-2.5C33.1,23.9,31.8,23.4,30.6,23z M28.6,21.8c0-0.4,0.2-0.8,0.8-0.9l0.1,1.8
		C28.9,22.5,28.6,22.2,28.6,21.8z M30.8,26.7l-0.1-2.2c0.6,0.2,1.1,0.5,1.1,1.1C31.8,26.2,31.5,26.6,30.8,26.7z"/>
</g>
</svg>
