<?xml version="1.0" encoding="utf-8"?>
<!-- Generator: Adobe Illustrator 20.1.0, SVG Export Plug-In . SVG Version: 6.00 Build 0)  -->
<svg version="1.1" id="Layer_1" xmlns="http://www.w3.org/2000/svg" xmlns:xlink="http://www.w3.org/1999/xlink" x="0px" y="0px"
	 viewBox="0 0 167 167" style="enable-background:new 0 0 167 167;" xml:space="preserve">
<style type="text/css">
	.st0{fill:url(#SVGID_1_);}
	.st1{fill:url(#SVGID_2_);}
	.st2{fill:url(#SVGID_3_);}
	.st3{fill:url(#XMLID_122_);}
	.st4{fill:url(#XMLID_123_);}
	.st5{fill:url(#XMLID_124_);}
	.st6{fill:url(#XMLID_125_);}
	.st7{fill:url(#XMLID_126_);}
	.st8{fill:url(#XMLID_127_);}
	.st9{fill:url(#XMLID_128_);}
	.st10{fill:url(#XMLID_129_);}
	.st11{fill:url(#XMLID_130_);}
	.st12{fill:url(#XMLID_131_);}
	.st13{fill:url(#XMLID_132_);}
	.st14{fill:url(#XMLID_133_);}
	.st15{fill:#F49C3B;}
	.st16{fill:url(#SVGID_4_);}
	.st17{fill:url(#SVGID_5_);}
	.st18{fill:url(#SVGID_6_);}
	.st19{fill:url(#XMLID_134_);}
	.st20{fill:url(#XMLID_135_);}
	.st21{fill:url(#XMLID_136_);}
	.st22{fill:url(#XMLID_137_);}
	.st23{fill:url(#XMLID_138_);}
	.st24{fill:url(#XMLID_139_);}
	.st25{fill:url(#XMLID_140_);}
	.st26{fill:url(#XMLID_141_);}
	.st27{fill:url(#XMLID_142_);}
	.st28{fill:url(#XMLID_143_);}
	.st29{fill:url(#XMLID_144_);}
	.st30{fill:url(#XMLID_145_);}
	.st31{fill:url(#SVGID_7_);}
	.st32{fill:url(#SVGID_8_);}
	.st33{fill:url(#SVGID_9_);}
	.st34{fill:url(#XMLID_146_);}
	.st35{fill:url(#XMLID_147_);}
	.st36{fill:url(#XMLID_148_);}
	.st37{fill:url(#XMLID_149_);}
	.st38{fill:url(#XMLID_150_);}
	.st39{fill:url(#XMLID_151_);}
	.st40{fill:url(#XMLID_152_);}
	.st41{fill:url(#XMLID_153_);}
	.st42{fill:url(#XMLID_154_);}
	.st43{fill:url(#XMLID_155_);}
	.st44{fill:url(#XMLID_156_);}
	.st45{fill:url(#XMLID_157_);}
	.st46{fill:url(#SVGID_10_);}
	.st47{fill:url(#SVGID_11_);}
	.st48{fill:url(#SVGID_12_);}
	.st49{fill:url(#XMLID_158_);}
	.st50{fill:url(#XMLID_159_);}
	.st51{fill:url(#XMLID_160_);}
	.st52{fill:url(#XMLID_161_);}
	.st53{fill:url(#XMLID_162_);}
	.st54{fill:url(#XMLID_163_);}
	.st55{fill:url(#XMLID_164_);}
	.st56{fill:url(#XMLID_165_);}
	.st57{fill:url(#XMLID_166_);}
	.st58{fill:url(#XMLID_167_);}
	.st59{fill:url(#XMLID_168_);}
	.st60{fill:url(#XMLID_169_);}
	.st61{fill:url(#SVGID_13_);}
	.st62{fill:url(#SVGID_14_);}
	.st63{fill:url(#SVGID_15_);}
	.st64{fill:url(#XMLID_170_);}
	.st65{fill:url(#XMLID_171_);}
	.st66{fill:url(#XMLID_172_);}
	.st67{fill:url(#XMLID_173_);}
	.st68{fill:url(#XMLID_174_);}
	.st69{fill:url(#XMLID_175_);}
	.st70{fill:url(#XMLID_176_);}
	.st71{fill:url(#XMLID_177_);}
	.st72{fill:url(#XMLID_178_);}
	.st73{fill:url(#XMLID_179_);}
	.st74{fill:url(#XMLID_180_);}
	.st75{fill:url(#XMLID_181_);}
	.st76{fill:url(#SVGID_16_);}
	.st77{fill:url(#SVGID_17_);}
	.st78{fill:url(#SVGID_18_);}
	.st79{fill:url(#XMLID_182_);}
	.st80{fill:url(#XMLID_183_);}
	.st81{fill:url(#XMLID_184_);}
	.st82{fill:url(#XMLID_185_);}
	.st83{fill:url(#XMLID_186_);}
	.st84{fill:url(#XMLID_187_);}
	.st85{fill:url(#XMLID_188_);}
	.st86{fill:url(#XMLID_189_);}
	.st87{fill:url(#XMLID_190_);}
	.st88{fill:url(#XMLID_191_);}
	.st89{fill:url(#XMLID_192_);}
	.st90{fill:url(#XMLID_193_);}
	.st91{fill:url(#SVGID_19_);}
	.st92{fill:url(#SVGID_20_);}
	.st93{fill:url(#SVGID_21_);}
	.st94{fill:url(#XMLID_194_);}
	.st95{fill:url(#XMLID_195_);}
	.st96{fill:url(#XMLID_196_);}
	.st97{fill:url(#XMLID_197_);}
	.st98{fill:url(#XMLID_198_);}
	.st99{fill:url(#XMLID_199_);}
	.st100{fill:url(#XMLID_200_);}
	.st101{fill:url(#XMLID_201_);}
	.st102{fill:url(#XMLID_202_);}
	.st103{fill:url(#XMLID_203_);}
	.st104{fill:url(#XMLID_204_);}
	.st105{fill:url(#XMLID_205_);}
	.st106{fill:url(#SVGID_22_);}
	.st107{fill:url(#SVGID_23_);}
	.st108{fill:url(#SVGID_24_);}
	.st109{fill:url(#XMLID_206_);}
	.st110{fill:url(#XMLID_207_);}
	.st111{fill:url(#XMLID_208_);}
	.st112{fill:url(#XMLID_209_);}
	.st113{fill:url(#XMLID_210_);}
	.st114{fill:url(#XMLID_211_);}
	.st115{fill:url(#XMLID_212_);}
	.st116{fill:url(#XMLID_213_);}
	.st117{fill:url(#XMLID_214_);}
	.st118{fill:url(#XMLID_215_);}
	.st119{fill:url(#XMLID_216_);}
	.st120{fill:url(#XMLID_217_);}
	.st121{fill:url(#SVGID_25_);}
	.st122{fill:url(#SVGID_26_);}
	.st123{fill:url(#SVGID_27_);}
	.st124{fill:url(#XMLID_218_);}
	.st125{fill:url(#XMLID_219_);}
	.st126{fill:url(#XMLID_220_);}
	.st127{fill:url(#XMLID_221_);}
	.st128{fill:url(#XMLID_222_);}
	.st129{fill:url(#XMLID_223_);}
	.st130{fill:url(#XMLID_224_);}
	.st131{fill:url(#XMLID_225_);}
	.st132{fill:url(#XMLID_226_);}
	.st133{fill:url(#XMLID_227_);}
	.st134{fill:url(#XMLID_228_);}
	.st135{fill:url(#XMLID_229_);}
	.st136{fill:url(#SVGID_28_);}
	.st137{fill:url(#SVGID_29_);}
	.st138{fill:url(#SVGID_30_);}
	.st139{fill:url(#XMLID_230_);}
	.st140{fill:url(#XMLID_231_);}
	.st141{fill:url(#XMLID_232_);}
	.st142{fill:url(#XMLID_233_);}
	.st143{fill:url(#XMLID_234_);}
	.st144{fill:url(#XMLID_235_);}
	.st145{fill:url(#XMLID_236_);}
	.st146{fill:url(#XMLID_237_);}
	.st147{fill:url(#XMLID_238_);}
	.st148{fill:url(#XMLID_239_);}
	.st149{fill:url(#XMLID_240_);}
	.st150{fill:url(#XMLID_241_);}
</style>
<linearGradient id="SVGID_1_" gradientUnits="userSpaceOnUse" x1="1.1724" y1="166.0705" x2="167.0474" y2="-0.2938">
	<stop  offset="0" style="stop-color:#F1F2F2"/>
	<stop  offset="1" style="stop-color:#FFFFFF"/>
</linearGradient>
<rect class="st0" width="167" height="167"/>
<g>
	
		<linearGradient id="SVGID_2_" gradientUnits="userSpaceOnUse" x1="64.4085" y1="104.9294" x2="120.7216" y2="104.9294" gradientTransform="matrix(0.9989 -4.584129e-02 4.584129e-02 0.9989 -13.7591 -33.8542)">
		<stop  offset="0" style="stop-color:#FBB040"/>
		<stop  offset="1" style="stop-color:#F7941D"/>
	</linearGradient>
	<circle class="st1" cx="83.5" cy="66.7" r="28.2"/>
	
		<linearGradient id="SVGID_3_" gradientUnits="userSpaceOnUse" x1="66.9516" y1="104.9294" x2="118.1785" y2="104.9294" gradientTransform="matrix(0.9989 -4.584129e-02 4.584129e-02 0.9989 -13.7591 -33.8542)">
		<stop  offset="0" style="stop-color:#F9ED32"/>
		<stop  offset="1" style="stop-color:#EFB25E"/>
	</linearGradient>
	<circle class="st2" cx="83.5" cy="66.7" r="25.6"/>
	
		<linearGradient id="XMLID_122_" gradientUnits="userSpaceOnUse" x1="142.6448" y1="114.3297" x2="63.894" y2="87.5596" gradientTransform="matrix(0.9989 -4.584129e-02 4.584129e-02 0.9989 -13.7591 -33.8542)">
		<stop  offset="0" style="stop-color:#00C9FF"/>
		<stop  offset="1" style="stop-color:#92FE9D"/>
	</linearGradient>
	<path id="XMLID_25_" class="st3" d="M81.5,22.8c-18.1,0.8-33.1,12.5-39,28.5l0,0c0,0-7.4,5.3-7.9,10.5s0.4,9.4,0.4,9.4
		s-0.7,3.5,2.4,5.2c0,0-1.8,3.9,3.5,5.5c0,0,0.5,6.5,5.6,3.1c1.4-1.7,0-3.3,1.9-6.2c1.9-2.9,5.3-10.2,8.4-6.9c0,0,0.2,2,1.5,5.1
		c0,0,6.2-2.9,4.9-9.2c-1.3-6.3-6.7-11.7,1.5-20.9c4.6-4.4,10.8-7.3,17.7-7.6c14.1-0.6,26.2,9.5,28.3,23.1l16.5-0.8
		C124.5,38.9,104.7,21.7,81.5,22.8z"/>
	
		<linearGradient id="XMLID_123_" gradientUnits="userSpaceOnUse" x1="119.9551" y1="106.7706" x2="130.8061" y2="81.3651" gradientTransform="matrix(0.9989 -4.584129e-02 4.584129e-02 0.9989 -13.7591 -33.8542)">
		<stop  offset="0" style="stop-color:#134763;stop-opacity:0.3"/>
		<stop  offset="0.9839" style="stop-color:#134763;stop-opacity:0"/>
	</linearGradient>
	<path id="XMLID_24_" class="st4" d="M110,59.3c0.2,0.7,0.3,1.2,0.3,1.4c0,0,0,0,0,0.1c3.1,3.3,6.5-4,8.4-6.9c1.9-2.9,3.4-7,4-7.1
		c-0.5-1.1-1.1-2.1-1.7-3.1c0,0-1.3,1.2-2,4.5C118.2,51.4,114.2,59.7,110,59.3z"/>
	
		<linearGradient id="XMLID_124_" gradientUnits="userSpaceOnUse" x1="57.0101" y1="91.4022" x2="106.6516" y2="116.8727" gradientTransform="matrix(0.9989 -4.584129e-02 4.584129e-02 0.9989 -13.7591 -33.8542)">
		<stop  offset="0" style="stop-color:#00C9FF"/>
		<stop  offset="1" style="stop-color:#92FE9D"/>
	</linearGradient>
	<path id="XMLID_23_" class="st5" d="M132,61.4c0,0,0.7-3.5-2.4-5.2c0,0,1.8-3.9-3.5-5.5c0,0-0.3-4.7-3.5-4
		c-1.6,0.3-2.7,1.7-2.8,3.2c-0.1,1-0.1,2.3-1.2,3.9c-1.9,2.9-5.3,10.2-8.4,6.9c0,0-0.2-2-1.5-5.1c0,0-6.2,2.9-4.9,9.2
		c1.3,6.3,6.7,11.7-1.5,20.9c-4.6,4.4-10.8,7.3-17.7,7.6C73,94,62.7,87.1,58.3,76.9c0,0-0.1,0-0.1,0c-1.2-2.8-1.5-4.8-1.5-5.1
		c0,0,0,0,0,0c-3-3.3-6.5,4-8.4,6.9c-1.9,2.9-0.5,4.5-1.9,6.2c-0.8,0.5-1.5,0.8-2.1,0.9c7.5,14.9,23.3,24.8,41.1,24
		c18.1-0.8,33.1-12.5,39-28.5l0,0c0,0,7.4-5.3,7.9-10.5C132.9,65.6,132,61.4,132,61.4z"/>
	
		<linearGradient id="XMLID_125_" gradientUnits="userSpaceOnUse" x1="60.3497" y1="112.5485" x2="56.971" y2="123.4212" gradientTransform="matrix(0.9989 -4.584129e-02 4.584129e-02 0.9989 -13.7591 -33.8542)">
		<stop  offset="0" style="stop-color:#134763;stop-opacity:0.3"/>
		<stop  offset="0.9839" style="stop-color:#134763;stop-opacity:0"/>
	</linearGradient>
	<path id="XMLID_22_" class="st6" d="M57,73.3c-0.2-0.7-0.3-1.2-0.3-1.4c0,0,0,0,0-0.1c-3.1-3.3-6.5,4-8.4,6.9
		c-1.9,2.9-0.5,4.5-1.9,6.2c-0.8,0.5-1.5,0.8-2.1,0.9c0.5,1.1,1.1,2.1,1.7,3.1c0,0,1.3-1.2,2-4.5C48.8,81.3,52.8,72.9,57,73.3z"/>
	
		<linearGradient id="XMLID_126_" gradientUnits="userSpaceOnUse" x1="45.9504" y1="105.1848" x2="51.3218" y2="94.5288" gradientTransform="matrix(0.9989 -4.584129e-02 4.584129e-02 0.9989 -13.7591 -33.8542)">
		<stop  offset="0" style="stop-color:#134763;stop-opacity:0.3"/>
		<stop  offset="0.9839" style="stop-color:#134763;stop-opacity:0"/>
	</linearGradient>
	<path id="XMLID_21_" class="st7" d="M36.2,71.1c0,0,0-0.1,0-0.3c0-0.2,0-0.4,0.1-0.7c0-0.3,0.1-0.6,0.2-1c0.1-0.2,0.1-0.3,0.2-0.5
		c0.1-0.2,0.1-0.4,0.2-0.5c0.2-0.3,0.4-0.7,0.6-1c0.2-0.3,0.4-0.6,0.7-0.8c0.1-0.1,0.2-0.2,0.3-0.3c0.1-0.1,0.2-0.1,0.3-0.2
		c0.1,0,0.1-0.1,0.2-0.1c0,0,0.1,0,0.1,0s0,0,0,0.1c0,0-0.1,0.1-0.1,0.2c0,0.1-0.1,0.2-0.1,0.3c-0.1,0.1-0.1,0.2-0.2,0.3
		c-0.1,0.2-0.2,0.5-0.4,0.8c0,0.1-0.1,0.2-0.1,0.2c0,0.1-0.1,0.2-0.1,0.2c-0.1,0.2-0.1,0.3-0.2,0.5c-0.1,0.2-0.2,0.3-0.2,0.5
		c-0.1,0.2-0.2,0.3-0.2,0.5c-0.2,0.3-0.3,0.6-0.5,0.8c-0.1,0.2-0.3,0.4-0.4,0.6C36.3,71.1,36.2,71.1,36.2,71.1z"/>
	
		<linearGradient id="XMLID_127_" gradientUnits="userSpaceOnUse" x1="48.0825" y1="109.3774" x2="53.7571" y2="99.2845" gradientTransform="matrix(0.9989 -4.584129e-02 4.584129e-02 0.9989 -13.7591 -33.8542)">
		<stop  offset="0" style="stop-color:#134763;stop-opacity:0.3"/>
		<stop  offset="0.9839" style="stop-color:#134763;stop-opacity:0"/>
	</linearGradient>
	<path id="XMLID_20_" class="st8" d="M37.3,76.4c0,0,0-0.2,0-0.4c0-0.1,0-0.3,0.1-0.5c0-0.2,0.1-0.4,0.1-0.6
		c0.1-0.2,0.1-0.5,0.2-0.7c0-0.1,0.1-0.3,0.2-0.4c0.1-0.1,0.1-0.3,0.2-0.4c0.1-0.1,0.1-0.3,0.2-0.4c0-0.1,0.1-0.1,0.1-0.2
		c0-0.1,0.1-0.1,0.1-0.2c0.1-0.1,0.2-0.3,0.2-0.4c0.1-0.1,0.2-0.3,0.3-0.4c0.1-0.1,0.2-0.3,0.3-0.4c0.1-0.1,0.2-0.3,0.3-0.4
		c0.2-0.3,0.4-0.5,0.6-0.7c0.2-0.2,0.4-0.4,0.6-0.6c0.1-0.1,0.2-0.2,0.3-0.3c0.1-0.1,0.2-0.1,0.3-0.2c0.2-0.1,0.4-0.3,0.5-0.4
		c0.2-0.1,0.3-0.2,0.5-0.2c0.1-0.1,0.2-0.1,0.3-0.1c0.1,0,0.1,0,0.1,0s0,0-0.1,0.1c-0.1,0.1-0.1,0.1-0.2,0.2
		c-0.1,0.1-0.2,0.2-0.3,0.4c-0.1,0.1-0.3,0.3-0.4,0.5c-0.1,0.1-0.2,0.2-0.2,0.3c-0.1,0.1-0.2,0.2-0.2,0.3c-0.2,0.2-0.4,0.4-0.5,0.6
		c-0.1,0.1-0.2,0.2-0.3,0.3c-0.1,0.1-0.2,0.2-0.3,0.4c-0.1,0.1-0.2,0.2-0.3,0.4c-0.1,0.1-0.2,0.3-0.3,0.4c-0.1,0.1-0.2,0.2-0.3,0.4
		c-0.1,0.1-0.2,0.3-0.2,0.4c-0.2,0.2-0.3,0.5-0.5,0.8c-0.1,0.2-0.3,0.5-0.4,0.7c-0.1,0.2-0.3,0.4-0.4,0.7c-0.1,0.2-0.2,0.4-0.3,0.6
		c-0.1,0.2-0.2,0.3-0.2,0.4c-0.1,0.1-0.1,0.2-0.1,0.3C37.4,76.3,37.3,76.4,37.3,76.4z"/>
	
		<linearGradient id="XMLID_128_" gradientUnits="userSpaceOnUse" x1="52.5042" y1="111.6044" x2="61.3842" y2="94.2342" gradientTransform="matrix(0.9989 -4.584129e-02 4.584129e-02 0.9989 -13.7591 -33.8542)">
		<stop  offset="0" style="stop-color:#134763;stop-opacity:0.3"/>
		<stop  offset="0.9839" style="stop-color:#134763;stop-opacity:0"/>
	</linearGradient>
	<path id="XMLID_19_" class="st9" d="M40.9,81.8c0,0,0-0.2,0-0.6c0-0.2,0-0.4,0.1-0.6c0-0.1,0-0.3,0.1-0.4c0-0.1,0.1-0.3,0.1-0.4
		c0.1-0.3,0.1-0.6,0.2-1c0-0.2,0.1-0.3,0.2-0.5c0.1-0.2,0.1-0.4,0.2-0.5c0.1-0.4,0.3-0.7,0.4-1.1c0.1-0.2,0.2-0.4,0.3-0.6
		c0.1-0.2,0.2-0.4,0.3-0.5c0.2-0.4,0.4-0.7,0.6-1.1c0.1-0.1,0.1-0.2,0.2-0.3c0.1-0.1,0.1-0.2,0.2-0.2c0.1-0.2,0.2-0.3,0.3-0.5
		c0.1-0.1,0.1-0.2,0.2-0.2c0.1-0.1,0.1-0.1,0.2-0.2c0.1-0.1,0.2-0.3,0.3-0.4c0.1-0.1,0.2-0.3,0.3-0.4c0.1-0.1,0.2-0.2,0.3-0.3
		c0.2-0.2,0.4-0.4,0.6-0.6c0.2-0.2,0.4-0.3,0.5-0.4c0.1-0.1,0.3-0.2,0.3-0.3c0.1-0.1,0.1-0.1,0.1-0.1s0,0-0.1,0.1
		c-0.1,0.1-0.1,0.2-0.2,0.3c-0.1,0.1-0.2,0.3-0.4,0.5c-0.1,0.1-0.1,0.2-0.2,0.3c-0.1,0.1-0.2,0.2-0.2,0.4c-0.2,0.2-0.4,0.5-0.5,0.8
		c-0.1,0.1-0.2,0.3-0.3,0.4c0,0.1-0.1,0.2-0.1,0.2c0,0.1-0.1,0.2-0.1,0.2c-0.2,0.3-0.4,0.6-0.6,1c-0.2,0.3-0.4,0.7-0.6,1
		c-0.1,0.2-0.2,0.3-0.3,0.5c-0.1,0.2-0.2,0.4-0.3,0.5c-0.1,0.2-0.2,0.3-0.3,0.5c-0.1,0.2-0.2,0.3-0.2,0.5c-0.1,0.2-0.2,0.3-0.2,0.5
		c-0.1,0.2-0.1,0.3-0.2,0.5c-0.1,0.3-0.3,0.6-0.4,0.9c-0.1,0.3-0.2,0.5-0.3,0.8c-0.1,0.2-0.2,0.4-0.2,0.6
		C41,81.6,40.9,81.8,40.9,81.8z"/>
	
		<linearGradient id="XMLID_129_" gradientUnits="userSpaceOnUse" x1="137.5121" y1="109.2101" x2="130.6896" y2="121.6855" gradientTransform="matrix(0.9989 -4.584129e-02 4.584129e-02 0.9989 -13.7591 -33.8542)">
		<stop  offset="0" style="stop-color:#134763;stop-opacity:0.3"/>
		<stop  offset="0.9839" style="stop-color:#134763;stop-opacity:0"/>
	</linearGradient>
	<path id="XMLID_18_" class="st10" d="M132,61.4c0,0,0,0.1,0,0.3c0,0.2,0,0.4-0.1,0.7c0,0.3-0.1,0.6-0.2,1c-0.1,0.2-0.1,0.3-0.2,0.5
		c-0.1,0.2-0.1,0.4-0.2,0.5c-0.2,0.3-0.4,0.7-0.6,1c-0.2,0.3-0.4,0.6-0.7,0.8c-0.1,0.1-0.2,0.2-0.3,0.3c-0.1,0.1-0.2,0.1-0.3,0.2
		c-0.1,0-0.1,0.1-0.2,0.1c0,0-0.1,0-0.1,0s0,0,0-0.1c0,0,0.1-0.1,0.1-0.2c0-0.1,0.1-0.2,0.1-0.3c0.1-0.1,0.1-0.2,0.2-0.3
		c0.1-0.2,0.2-0.5,0.4-0.8c0-0.1,0.1-0.2,0.1-0.2c0-0.1,0.1-0.2,0.1-0.2c0.1-0.2,0.1-0.3,0.2-0.5c0.1-0.2,0.2-0.3,0.2-0.5
		c0.1-0.2,0.2-0.3,0.2-0.5c0.2-0.3,0.3-0.6,0.5-0.8c0.1-0.2,0.3-0.4,0.4-0.6C131.9,61.5,132,61.4,132,61.4z"/>
	
		<linearGradient id="XMLID_130_" gradientUnits="userSpaceOnUse" x1="133.6813" y1="105.0636" x2="123.0902" y2="120.6578" gradientTransform="matrix(0.9989 -4.584129e-02 4.584129e-02 0.9989 -13.7591 -33.8542)">
		<stop  offset="0" style="stop-color:#134763;stop-opacity:0.3"/>
		<stop  offset="0.9839" style="stop-color:#134763;stop-opacity:0"/>
	</linearGradient>
	<path id="XMLID_17_" class="st11" d="M129.6,56.2c0,0,0,0.2,0,0.4c0,0.1,0,0.3-0.1,0.5c0,0.2-0.1,0.4-0.1,0.6
		c-0.1,0.2-0.1,0.5-0.2,0.7c0,0.1-0.1,0.3-0.2,0.4c-0.1,0.1-0.1,0.3-0.2,0.4c-0.1,0.1-0.1,0.3-0.2,0.4c0,0.1-0.1,0.1-0.1,0.2
		c0,0.1-0.1,0.1-0.1,0.2c-0.1,0.1-0.2,0.3-0.2,0.4c-0.1,0.1-0.2,0.3-0.3,0.4c-0.1,0.1-0.2,0.3-0.3,0.4c-0.1,0.1-0.2,0.3-0.3,0.4
		c-0.2,0.3-0.4,0.5-0.6,0.7c-0.2,0.2-0.4,0.4-0.6,0.6c-0.1,0.1-0.2,0.2-0.3,0.3c-0.1,0.1-0.2,0.1-0.3,0.2c-0.2,0.1-0.4,0.3-0.5,0.4
		c-0.2,0.1-0.3,0.2-0.5,0.2c-0.1,0.1-0.2,0.1-0.3,0.1c-0.1,0-0.1,0-0.1,0s0,0,0.1-0.1c0.1-0.1,0.1-0.1,0.2-0.2
		c0.1-0.1,0.2-0.2,0.3-0.4c0.1-0.1,0.3-0.3,0.4-0.5c0.1-0.1,0.2-0.2,0.2-0.3c0.1-0.1,0.2-0.2,0.2-0.3c0.2-0.2,0.4-0.4,0.5-0.6
		c0.1-0.1,0.2-0.2,0.3-0.3c0.1-0.1,0.2-0.2,0.3-0.4c0.1-0.1,0.2-0.2,0.3-0.4c0.1-0.1,0.2-0.3,0.3-0.4c0.1-0.1,0.2-0.2,0.3-0.4
		c0.1-0.1,0.2-0.3,0.2-0.4c0.2-0.2,0.3-0.5,0.5-0.8c0.1-0.2,0.3-0.5,0.4-0.7c0.1-0.2,0.3-0.4,0.4-0.7c0.1-0.2,0.2-0.4,0.3-0.6
		c0.1-0.2,0.2-0.3,0.2-0.4c0.1-0.1,0.1-0.2,0.1-0.3C129.6,56.3,129.6,56.2,129.6,56.2z"/>
	
		<linearGradient id="XMLID_131_" gradientUnits="userSpaceOnUse" x1="134.5648" y1="91.8256" x2="140.7375" y2="75.4517" gradientTransform="matrix(0.9989 -4.584129e-02 4.584129e-02 0.9989 -13.7591 -33.8542)">
		<stop  offset="0" style="stop-color:#134763;stop-opacity:0.3"/>
		<stop  offset="0.9839" style="stop-color:#134763;stop-opacity:0"/>
	</linearGradient>
	<path id="XMLID_16_" class="st12" d="M126.1,50.8c0,0,0,0.2,0,0.6c0,0.2,0,0.4-0.1,0.6c0,0.1,0,0.3-0.1,0.4c0,0.1-0.1,0.3-0.1,0.4
		c-0.1,0.3-0.1,0.6-0.2,1c0,0.2-0.1,0.3-0.2,0.5c-0.1,0.2-0.1,0.4-0.2,0.5c-0.1,0.4-0.3,0.7-0.4,1.1c-0.1,0.2-0.2,0.4-0.3,0.6
		c-0.1,0.2-0.2,0.4-0.3,0.5c-0.2,0.4-0.4,0.7-0.6,1.1c-0.1,0.1-0.1,0.2-0.2,0.3c-0.1,0.1-0.1,0.2-0.2,0.2c-0.1,0.2-0.2,0.3-0.3,0.5
		c-0.1,0.1-0.1,0.2-0.2,0.2c-0.1,0.1-0.1,0.1-0.2,0.2c-0.1,0.1-0.2,0.3-0.3,0.4c-0.1,0.1-0.2,0.3-0.3,0.4c-0.1,0.1-0.2,0.2-0.3,0.3
		c-0.2,0.2-0.4,0.4-0.6,0.6c-0.2,0.2-0.4,0.3-0.5,0.4c-0.1,0.1-0.3,0.2-0.3,0.3c-0.1,0.1-0.1,0.1-0.1,0.1s0,0,0.1-0.1
		c0.1-0.1,0.1-0.2,0.2-0.3c0.1-0.1,0.2-0.3,0.4-0.5c0.1-0.1,0.1-0.2,0.2-0.3c0.1-0.1,0.2-0.2,0.2-0.4c0.2-0.2,0.4-0.5,0.5-0.8
		c0.1-0.1,0.2-0.3,0.3-0.4c0-0.1,0.1-0.2,0.1-0.2c0-0.1,0.1-0.2,0.1-0.2c0.2-0.3,0.4-0.6,0.6-1c0.2-0.3,0.4-0.7,0.6-1
		c0.1-0.2,0.2-0.3,0.3-0.5c0.1-0.2,0.2-0.4,0.3-0.5c0.1-0.2,0.2-0.3,0.3-0.5c0.1-0.2,0.2-0.3,0.2-0.5c0.1-0.2,0.2-0.3,0.2-0.5
		c0.1-0.2,0.1-0.3,0.2-0.5c0.1-0.3,0.3-0.6,0.4-0.9c0.1-0.3,0.2-0.5,0.3-0.8c0.1-0.2,0.2-0.4,0.2-0.6
		C126,50.9,126.1,50.8,126.1,50.8z"/>
	<g>
		
			<linearGradient id="XMLID_132_" gradientUnits="userSpaceOnUse" x1="92.5651" y1="132.2636" x2="92.5651" y2="172.9807" gradientTransform="matrix(0.9989 -4.584129e-02 4.584129e-02 0.9989 -13.7591 -33.8542)">
			<stop  offset="0" style="stop-color:#00C9FF"/>
			<stop  offset="1" style="stop-color:#92FE9D"/>
		</linearGradient>
		<path id="XMLID_15_" class="st13" d="M110.4,103.1c-7.4,5.5-16.1,8.6-25.3,9c-9,0.4-17.9-1.8-25.6-6.4c-0.1-0.1-0.3-0.2-0.4-0.3
			l24.9,38.9l27.5-42C111.1,102.5,110.7,102.8,110.4,103.1z"/>
		
			<linearGradient id="XMLID_133_" gradientUnits="userSpaceOnUse" x1="99.1139" y1="154.3345" x2="98.5074" y2="175.8198" gradientTransform="matrix(0.9989 -4.584129e-02 4.584129e-02 0.9989 -13.7591 -33.8542)">
			<stop  offset="0" style="stop-color:#00C9FF"/>
			<stop  offset="1" style="stop-color:#92FE9D"/>
		</linearGradient>
		<path id="XMLID_14_" class="st14" d="M73.2,127.5l10.7,16.7l27.5-42C111.4,102.3,97.3,123.5,73.2,127.5z"/>
	</g>
	<path class="st15" d="M85.1,64.1l-0.3-6.2c1.3,0.2,2.5,0.8,3.2,1.5c0.5,0.5,1,0.7,1.5,0.7c1,0,1.8-0.9,1.8-1.9
		c0-0.4-0.2-0.8-0.4-1.1c-1.2-1.6-3.5-2.6-6.3-2.8l0-1l0-1c0-0.9-0.8-1.6-1.7-1.5c-0.9,0-1.5,0.8-1.5,1.7l0,1l0,1
		c-4.3,0.7-6.1,3.4-6,6.4c0.2,4.1,3.4,5.5,6.6,6.4l0.3,7.2c-1.6-0.3-3-1.2-4.1-2.2c-0.4-0.3-0.8-0.7-1.5-0.7c-1,0-1.8,0.9-1.7,1.9
		c0,0.3,0.1,0.7,0.3,0.9c1.2,1.8,3.9,3.5,7.2,3.7l0,0.4l0.1,1.5c0,0.9,0.8,1.6,1.6,1.5c0.9,0,1.6-0.8,1.5-1.7l-0.1-1.5l0-0.4
		c4.5-0.7,6.8-3.2,6.6-7C92.2,66.4,88.5,65.1,85.1,64.1z M79.5,60.7c0-1.1,0.6-2.2,2.2-2.6l0.2,5.1C80.5,62.6,79.5,61.9,79.5,60.7z
		 M85.6,74.3l-0.3-6.1c1.8,0.6,3.1,1.4,3.1,3C88.5,72.9,87.6,73.9,85.6,74.3z"/>
</g>
</svg>
