<?xml version="1.0" encoding="utf-8"?>
<!-- Generator: Adobe Illustrator 20.1.0, SVG Export Plug-In . SVG Version: 6.00 Build 0)  -->
<svg version="1.1" id="Layer_1" xmlns="http://www.w3.org/2000/svg" xmlns:xlink="http://www.w3.org/1999/xlink" x="0px" y="0px"
	 viewBox="0 0 87 87" style="enable-background:new 0 0 87 87;" xml:space="preserve">
<style type="text/css">
	.st0{fill:url(#SVGID_1_);}
	.st1{fill:url(#SVGID_2_);}
	.st2{fill:url(#SVGID_3_);}
	.st3{fill:url(#XMLID_122_);}
	.st4{fill:url(#XMLID_123_);}
	.st5{fill:url(#XMLID_124_);}
	.st6{fill:url(#XMLID_125_);}
	.st7{fill:url(#XMLID_126_);}
	.st8{fill:url(#XMLID_127_);}
	.st9{fill:url(#XMLID_128_);}
	.st10{fill:url(#XMLID_129_);}
	.st11{fill:url(#XMLID_130_);}
	.st12{fill:url(#XMLID_131_);}
	.st13{fill:url(#XMLID_132_);}
	.st14{fill:url(#XMLID_133_);}
	.st15{fill:#F49C3B;}
	.st16{fill:url(#SVGID_4_);}
	.st17{fill:url(#SVGID_5_);}
	.st18{fill:url(#SVGID_6_);}
	.st19{fill:url(#XMLID_134_);}
	.st20{fill:url(#XMLID_135_);}
	.st21{fill:url(#XMLID_136_);}
	.st22{fill:url(#XMLID_137_);}
	.st23{fill:url(#XMLID_138_);}
	.st24{fill:url(#XMLID_139_);}
	.st25{fill:url(#XMLID_140_);}
	.st26{fill:url(#XMLID_141_);}
	.st27{fill:url(#XMLID_142_);}
	.st28{fill:url(#XMLID_143_);}
	.st29{fill:url(#XMLID_144_);}
	.st30{fill:url(#XMLID_145_);}
	.st31{fill:url(#SVGID_7_);}
	.st32{fill:url(#SVGID_8_);}
	.st33{fill:url(#SVGID_9_);}
	.st34{fill:url(#XMLID_146_);}
	.st35{fill:url(#XMLID_147_);}
	.st36{fill:url(#XMLID_148_);}
	.st37{fill:url(#XMLID_149_);}
	.st38{fill:url(#XMLID_150_);}
	.st39{fill:url(#XMLID_151_);}
	.st40{fill:url(#XMLID_152_);}
	.st41{fill:url(#XMLID_153_);}
	.st42{fill:url(#XMLID_154_);}
	.st43{fill:url(#XMLID_155_);}
	.st44{fill:url(#XMLID_156_);}
	.st45{fill:url(#XMLID_157_);}
	.st46{fill:url(#SVGID_10_);}
	.st47{fill:url(#SVGID_11_);}
	.st48{fill:url(#SVGID_12_);}
	.st49{fill:url(#XMLID_158_);}
	.st50{fill:url(#XMLID_159_);}
	.st51{fill:url(#XMLID_160_);}
	.st52{fill:url(#XMLID_161_);}
	.st53{fill:url(#XMLID_162_);}
	.st54{fill:url(#XMLID_163_);}
	.st55{fill:url(#XMLID_164_);}
	.st56{fill:url(#XMLID_165_);}
	.st57{fill:url(#XMLID_166_);}
	.st58{fill:url(#XMLID_167_);}
	.st59{fill:url(#XMLID_168_);}
	.st60{fill:url(#XMLID_169_);}
	.st61{fill:url(#SVGID_13_);}
	.st62{fill:url(#SVGID_14_);}
	.st63{fill:url(#SVGID_15_);}
	.st64{fill:url(#XMLID_170_);}
	.st65{fill:url(#XMLID_171_);}
	.st66{fill:url(#XMLID_172_);}
	.st67{fill:url(#XMLID_173_);}
	.st68{fill:url(#XMLID_174_);}
	.st69{fill:url(#XMLID_175_);}
	.st70{fill:url(#XMLID_176_);}
	.st71{fill:url(#XMLID_177_);}
	.st72{fill:url(#XMLID_178_);}
	.st73{fill:url(#XMLID_179_);}
	.st74{fill:url(#XMLID_180_);}
	.st75{fill:url(#XMLID_181_);}
	.st76{fill:url(#SVGID_16_);}
	.st77{fill:url(#SVGID_17_);}
	.st78{fill:url(#SVGID_18_);}
	.st79{fill:url(#XMLID_182_);}
	.st80{fill:url(#XMLID_183_);}
	.st81{fill:url(#XMLID_184_);}
	.st82{fill:url(#XMLID_185_);}
	.st83{fill:url(#XMLID_186_);}
	.st84{fill:url(#XMLID_187_);}
	.st85{fill:url(#XMLID_188_);}
	.st86{fill:url(#XMLID_189_);}
	.st87{fill:url(#XMLID_190_);}
	.st88{fill:url(#XMLID_191_);}
	.st89{fill:url(#XMLID_192_);}
	.st90{fill:url(#XMLID_193_);}
	.st91{fill:url(#SVGID_19_);}
	.st92{fill:url(#SVGID_20_);}
	.st93{fill:url(#SVGID_21_);}
	.st94{fill:url(#XMLID_194_);}
	.st95{fill:url(#XMLID_195_);}
	.st96{fill:url(#XMLID_196_);}
	.st97{fill:url(#XMLID_197_);}
	.st98{fill:url(#XMLID_198_);}
	.st99{fill:url(#XMLID_199_);}
	.st100{fill:url(#XMLID_200_);}
	.st101{fill:url(#XMLID_201_);}
	.st102{fill:url(#XMLID_202_);}
	.st103{fill:url(#XMLID_203_);}
	.st104{fill:url(#XMLID_204_);}
	.st105{fill:url(#XMLID_205_);}
	.st106{fill:url(#SVGID_22_);}
	.st107{fill:url(#SVGID_23_);}
	.st108{fill:url(#SVGID_24_);}
	.st109{fill:url(#XMLID_206_);}
	.st110{fill:url(#XMLID_207_);}
	.st111{fill:url(#XMLID_208_);}
	.st112{fill:url(#XMLID_209_);}
	.st113{fill:url(#XMLID_210_);}
	.st114{fill:url(#XMLID_211_);}
	.st115{fill:url(#XMLID_212_);}
	.st116{fill:url(#XMLID_213_);}
	.st117{fill:url(#XMLID_214_);}
	.st118{fill:url(#XMLID_215_);}
	.st119{fill:url(#XMLID_216_);}
	.st120{fill:url(#XMLID_217_);}
	.st121{fill:url(#SVGID_25_);}
	.st122{fill:url(#SVGID_26_);}
	.st123{fill:url(#SVGID_27_);}
	.st124{fill:url(#XMLID_218_);}
	.st125{fill:url(#XMLID_219_);}
	.st126{fill:url(#XMLID_220_);}
	.st127{fill:url(#XMLID_221_);}
	.st128{fill:url(#XMLID_222_);}
	.st129{fill:url(#XMLID_223_);}
	.st130{fill:url(#XMLID_224_);}
	.st131{fill:url(#XMLID_225_);}
	.st132{fill:url(#XMLID_226_);}
	.st133{fill:url(#XMLID_227_);}
	.st134{fill:url(#XMLID_228_);}
	.st135{fill:url(#XMLID_229_);}
	.st136{fill:url(#SVGID_28_);}
	.st137{fill:url(#SVGID_29_);}
	.st138{fill:url(#SVGID_30_);}
	.st139{fill:url(#XMLID_230_);}
	.st140{fill:url(#XMLID_231_);}
	.st141{fill:url(#XMLID_232_);}
	.st142{fill:url(#XMLID_233_);}
	.st143{fill:url(#XMLID_234_);}
	.st144{fill:url(#XMLID_235_);}
	.st145{fill:url(#XMLID_236_);}
	.st146{fill:url(#XMLID_237_);}
	.st147{fill:url(#XMLID_238_);}
	.st148{fill:url(#XMLID_239_);}
	.st149{fill:url(#XMLID_240_);}
	.st150{fill:url(#XMLID_241_);}
</style>
<linearGradient id="SVGID_1_" gradientUnits="userSpaceOnUse" x1="0.6108" y1="86.5158" x2="87.0247" y2="-0.1531">
	<stop  offset="0" style="stop-color:#F1F2F2"/>
	<stop  offset="1" style="stop-color:#FFFFFF"/>
</linearGradient>
<rect class="st0" width="87" height="87"/>
<g>
	
		<linearGradient id="SVGID_2_" gradientUnits="userSpaceOnUse" x1="15.3729" y1="70.1569" x2="44.7097" y2="70.1569" gradientTransform="matrix(0.9989 -4.584129e-02 4.584129e-02 0.9989 10.2839 -33.9469)">
		<stop  offset="0" style="stop-color:#FBB040"/>
		<stop  offset="1" style="stop-color:#F7941D"/>
	</linearGradient>
	<circle class="st1" cx="43.5" cy="34.8" r="14.7"/>
	
		<linearGradient id="SVGID_3_" gradientUnits="userSpaceOnUse" x1="16.6978" y1="70.1569" x2="43.3848" y2="70.1569" gradientTransform="matrix(0.9989 -4.584129e-02 4.584129e-02 0.9989 10.2839 -33.9469)">
		<stop  offset="0" style="stop-color:#F9ED32"/>
		<stop  offset="1" style="stop-color:#EFB25E"/>
	</linearGradient>
	<circle class="st2" cx="43.5" cy="34.8" r="13.3"/>
	
		<linearGradient id="XMLID_122_" gradientUnits="userSpaceOnUse" x1="56.1307" y1="75.0541" x2="15.1049" y2="61.108" gradientTransform="matrix(0.9989 -4.584129e-02 4.584129e-02 0.9989 10.2839 -33.9469)">
		<stop  offset="0" style="stop-color:#00C9FF"/>
		<stop  offset="1" style="stop-color:#92FE9D"/>
	</linearGradient>
	<path id="XMLID_84_" class="st3" d="M42.5,11.9c-9.4,0.4-17.2,6.5-20.3,14.8l0,0c0,0-3.9,2.7-4.1,5.5c-0.3,2.7,0.2,4.9,0.2,4.9
		s-0.4,1.8,1.2,2.7c0,0-0.9,2,1.8,2.9c0,0,0.2,3.4,2.9,1.6c0.7-0.9,0-1.7,1-3.2s2.8-5.3,4.4-3.6c0,0,0.1,1.1,0.8,2.6
		c0,0,3.2-1.5,2.5-4.8c-0.7-3.3-3.5-6.1,0.8-10.9c2.4-2.3,5.6-3.8,9.2-4c7.3-0.3,13.6,4.9,14.7,12.1l8.6-0.4
		C64.9,20.2,54.5,11.3,42.5,11.9z"/>
	
		<linearGradient id="XMLID_123_" gradientUnits="userSpaceOnUse" x1="44.3104" y1="71.1161" x2="49.9633" y2="57.8809" gradientTransform="matrix(0.9989 -4.584129e-02 4.584129e-02 0.9989 10.2839 -33.9469)">
		<stop  offset="0" style="stop-color:#134763;stop-opacity:0.3"/>
		<stop  offset="0.9839" style="stop-color:#134763;stop-opacity:0"/>
	</linearGradient>
	<path id="XMLID_83_" class="st4" d="M57.3,30.9c0.1,0.4,0.1,0.6,0.1,0.7c0,0,0,0,0,0c1.6,1.7,3.4-2.1,4.4-3.6
		c1-1.5,1.8-3.7,2.1-3.7c-0.3-0.5-0.6-1.1-0.9-1.6c0,0-0.7,0.6-1.1,2.3C61.6,26.8,59.5,31.1,57.3,30.9z"/>
	
		<linearGradient id="XMLID_124_" gradientUnits="userSpaceOnUse" x1="11.5186" y1="63.1098" x2="37.3798" y2="76.3789" gradientTransform="matrix(0.9989 -4.584129e-02 4.584129e-02 0.9989 10.2839 -33.9469)">
		<stop  offset="0" style="stop-color:#00C9FF"/>
		<stop  offset="1" style="stop-color:#92FE9D"/>
	</linearGradient>
	<path id="XMLID_82_" class="st5" d="M68.8,32c0,0,0.4-1.8-1.2-2.7c0,0,0.9-2-1.8-2.9c0,0-0.2-2.4-1.8-2.1c-0.8,0.2-1.4,0.9-1.4,1.7
		c0,0.5-0.1,1.2-0.6,2c-1,1.5-2.8,5.3-4.4,3.6c0,0-0.1-1.1-0.8-2.6c0,0-3.2,1.5-2.5,4.8c0.7,3.3,3.5,6.1-0.8,10.9
		c-2.4,2.3-5.6,3.8-9.2,4C38,49,32.7,45.4,30.4,40.1c0,0,0,0,0,0c-0.6-1.5-0.8-2.5-0.8-2.6c0,0,0,0,0,0c-1.6-1.7-3.4,2.1-4.4,3.6
		c-1,1.5-0.3,2.3-1,3.2c-0.4,0.3-0.8,0.4-1.1,0.5c3.9,7.8,12.1,12.9,21.4,12.5c9.4-0.4,17.2-6.5,20.3-14.8l0,0c0,0,3.9-2.7,4.1-5.5
		S68.8,32,68.8,32z"/>
	
		<linearGradient id="XMLID_125_" gradientUnits="userSpaceOnUse" x1="13.2584" y1="74.1262" x2="11.4983" y2="79.7904" gradientTransform="matrix(0.9989 -4.584129e-02 4.584129e-02 0.9989 10.2839 -33.9469)">
		<stop  offset="0" style="stop-color:#134763;stop-opacity:0.3"/>
		<stop  offset="0.9839" style="stop-color:#134763;stop-opacity:0"/>
	</linearGradient>
	<path id="XMLID_81_" class="st6" d="M29.7,38.2c-0.1-0.4-0.1-0.6-0.1-0.7c0,0,0,0,0,0c-1.6-1.7-3.4,2.1-4.4,3.6
		c-1,1.5-0.3,2.3-1,3.2c-0.4,0.3-0.8,0.4-1.1,0.5c0.3,0.5,0.6,1.1,0.9,1.6c0,0,0.7-0.6,1.1-2.3C25.4,42.3,27.5,38,29.7,38.2z"/>
	
		<linearGradient id="XMLID_126_" gradientUnits="userSpaceOnUse" x1="5.757" y1="70.29" x2="8.5553" y2="64.7387" gradientTransform="matrix(0.9989 -4.584129e-02 4.584129e-02 0.9989 10.2839 -33.9469)">
		<stop  offset="0" style="stop-color:#134763;stop-opacity:0.3"/>
		<stop  offset="0.9839" style="stop-color:#134763;stop-opacity:0"/>
	</linearGradient>
	<path id="XMLID_80_" class="st7" d="M18.9,37.1c0,0,0-0.1,0-0.1c0-0.1,0-0.2,0-0.4c0-0.1,0.1-0.3,0.1-0.5c0-0.1,0.1-0.2,0.1-0.3
		c0-0.1,0.1-0.2,0.1-0.3c0.1-0.2,0.2-0.4,0.3-0.5c0.1-0.2,0.2-0.3,0.3-0.4c0.1-0.1,0.1-0.1,0.2-0.1c0.1,0,0.1-0.1,0.1-0.1
		c0,0,0.1,0,0.1,0c0,0,0,0,0,0s0,0,0,0c0,0,0,0-0.1,0.1c0,0,0,0.1-0.1,0.1c0,0.1-0.1,0.1-0.1,0.2c-0.1,0.1-0.1,0.3-0.2,0.4
		c0,0,0,0.1-0.1,0.1c0,0,0,0.1-0.1,0.1c0,0.1-0.1,0.2-0.1,0.3c0,0.1-0.1,0.2-0.1,0.3c0,0.1-0.1,0.2-0.1,0.2
		c-0.1,0.2-0.2,0.3-0.2,0.4c-0.1,0.1-0.1,0.2-0.2,0.3C18.9,37,18.9,37.1,18.9,37.1z"/>
	
		<linearGradient id="XMLID_127_" gradientUnits="userSpaceOnUse" x1="6.8678" y1="72.4742" x2="9.824" y2="67.2162" gradientTransform="matrix(0.9989 -4.584129e-02 4.584129e-02 0.9989 10.2839 -33.9469)">
		<stop  offset="0" style="stop-color:#134763;stop-opacity:0.3"/>
		<stop  offset="0.9839" style="stop-color:#134763;stop-opacity:0"/>
	</linearGradient>
	<path id="XMLID_79_" class="st8" d="M19.5,39.8c0,0,0-0.1,0-0.2c0-0.1,0-0.2,0-0.3c0-0.1,0-0.2,0.1-0.3c0-0.1,0.1-0.3,0.1-0.4
		c0-0.1,0.1-0.1,0.1-0.2c0-0.1,0.1-0.1,0.1-0.2c0-0.1,0.1-0.1,0.1-0.2c0,0,0-0.1,0.1-0.1c0,0,0-0.1,0.1-0.1c0-0.1,0.1-0.1,0.1-0.2
		c0-0.1,0.1-0.1,0.1-0.2c0-0.1,0.1-0.1,0.1-0.2c0.1-0.1,0.1-0.1,0.2-0.2c0.1-0.1,0.2-0.2,0.3-0.4c0.1-0.1,0.2-0.2,0.3-0.3
		c0.1,0,0.1-0.1,0.2-0.1c0.1,0,0.1-0.1,0.2-0.1c0.1-0.1,0.2-0.1,0.3-0.2c0.1,0,0.2-0.1,0.2-0.1c0.1,0,0.1-0.1,0.2-0.1
		c0,0,0.1,0,0.1,0s0,0,0,0c0,0-0.1,0.1-0.1,0.1c0,0.1-0.1,0.1-0.2,0.2c-0.1,0.1-0.1,0.2-0.2,0.2c0,0-0.1,0.1-0.1,0.1
		c0,0.1-0.1,0.1-0.1,0.2c-0.1,0.1-0.2,0.2-0.3,0.3c0,0.1-0.1,0.1-0.1,0.2c0,0.1-0.1,0.1-0.1,0.2c0,0.1-0.1,0.1-0.1,0.2
		c0,0.1-0.1,0.1-0.1,0.2c0,0.1-0.1,0.1-0.1,0.2c0,0.1-0.1,0.1-0.1,0.2c-0.1,0.1-0.2,0.3-0.2,0.4c-0.1,0.1-0.1,0.3-0.2,0.4
		c-0.1,0.1-0.1,0.2-0.2,0.3c-0.1,0.1-0.1,0.2-0.2,0.3c0,0.1-0.1,0.2-0.1,0.2C19.5,39.6,19.5,39.7,19.5,39.8
		C19.5,39.8,19.5,39.8,19.5,39.8z"/>
	
		<linearGradient id="XMLID_128_" gradientUnits="userSpaceOnUse" x1="9.1713" y1="73.6343" x2="13.7974" y2="64.5852" gradientTransform="matrix(0.9989 -4.584129e-02 4.584129e-02 0.9989 10.2839 -33.9469)">
		<stop  offset="0" style="stop-color:#134763;stop-opacity:0.3"/>
		<stop  offset="0.9839" style="stop-color:#134763;stop-opacity:0"/>
	</linearGradient>
	<path id="XMLID_78_" class="st9" d="M21.3,42.6c0,0,0-0.1,0-0.3c0-0.1,0-0.2,0-0.3c0-0.1,0-0.1,0-0.2c0-0.1,0-0.1,0-0.2
		c0-0.2,0.1-0.3,0.1-0.5c0-0.1,0.1-0.2,0.1-0.3c0-0.1,0.1-0.2,0.1-0.3c0.1-0.2,0.1-0.4,0.2-0.6c0-0.1,0.1-0.2,0.1-0.3
		c0-0.1,0.1-0.2,0.1-0.3c0.1-0.2,0.2-0.4,0.3-0.6c0,0,0.1-0.1,0.1-0.1c0,0,0.1-0.1,0.1-0.1c0.1-0.1,0.1-0.2,0.2-0.2
		c0,0,0.1-0.1,0.1-0.1c0,0,0.1-0.1,0.1-0.1c0.1-0.1,0.1-0.1,0.2-0.2c0.1-0.1,0.1-0.1,0.2-0.2c0.1-0.1,0.1-0.1,0.2-0.2
		c0.1-0.1,0.2-0.2,0.3-0.3c0.1-0.1,0.2-0.2,0.3-0.2c0.1-0.1,0.1-0.1,0.2-0.1c0,0,0.1,0,0.1,0s0,0,0,0.1c0,0-0.1,0.1-0.1,0.2
		c-0.1,0.1-0.1,0.2-0.2,0.3c0,0.1-0.1,0.1-0.1,0.2c0,0.1-0.1,0.1-0.1,0.2c-0.1,0.1-0.2,0.3-0.3,0.4c0,0.1-0.1,0.2-0.1,0.2
		c0,0-0.1,0.1-0.1,0.1c0,0,0,0.1-0.1,0.1c-0.1,0.2-0.2,0.3-0.3,0.5c-0.1,0.2-0.2,0.4-0.3,0.5c0,0.1-0.1,0.2-0.1,0.3
		c0,0.1-0.1,0.2-0.1,0.3c0,0.1-0.1,0.2-0.1,0.3c0,0.1-0.1,0.2-0.1,0.3c0,0.1-0.1,0.2-0.1,0.3c0,0.1-0.1,0.2-0.1,0.2
		c-0.1,0.2-0.1,0.3-0.2,0.5c-0.1,0.1-0.1,0.3-0.2,0.4c0,0.1-0.1,0.2-0.1,0.3C21.3,42.5,21.3,42.6,21.3,42.6z"/>
	
		<linearGradient id="XMLID_129_" gradientUnits="userSpaceOnUse" x1="53.4568" y1="72.387" x2="49.9026" y2="78.8862" gradientTransform="matrix(0.9989 -4.584129e-02 4.584129e-02 0.9989 10.2839 -33.9469)">
		<stop  offset="0" style="stop-color:#134763;stop-opacity:0.3"/>
		<stop  offset="0.9839" style="stop-color:#134763;stop-opacity:0"/>
	</linearGradient>
	<path id="XMLID_77_" class="st10" d="M68.8,32c0,0,0,0.1,0,0.1c0,0.1,0,0.2,0,0.4c0,0.1-0.1,0.3-0.1,0.5c0,0.1-0.1,0.2-0.1,0.3
		c0,0.1-0.1,0.2-0.1,0.3c-0.1,0.2-0.2,0.4-0.3,0.5c-0.1,0.2-0.2,0.3-0.3,0.4c-0.1,0.1-0.1,0.1-0.2,0.1c-0.1,0-0.1,0.1-0.1,0.1
		c0,0-0.1,0-0.1,0c0,0,0,0,0,0s0,0,0,0c0,0,0,0,0.1-0.1c0,0,0-0.1,0.1-0.1c0-0.1,0.1-0.1,0.1-0.2c0.1-0.1,0.1-0.3,0.2-0.4
		c0,0,0-0.1,0.1-0.1c0,0,0-0.1,0.1-0.1c0-0.1,0.1-0.2,0.1-0.3c0-0.1,0.1-0.2,0.1-0.3c0-0.1,0.1-0.2,0.1-0.2c0.1-0.2,0.2-0.3,0.2-0.4
		c0.1-0.1,0.1-0.2,0.2-0.3C68.7,32,68.8,32,68.8,32z"/>
	
		<linearGradient id="XMLID_130_" gradientUnits="userSpaceOnUse" x1="51.4611" y1="70.2269" x2="45.9436" y2="78.3508" gradientTransform="matrix(0.9989 -4.584129e-02 4.584129e-02 0.9989 10.2839 -33.9469)">
		<stop  offset="0" style="stop-color:#134763;stop-opacity:0.3"/>
		<stop  offset="0.9839" style="stop-color:#134763;stop-opacity:0"/>
	</linearGradient>
	<path id="XMLID_76_" class="st11" d="M67.5,29.3c0,0,0,0.1,0,0.2c0,0.1,0,0.2,0,0.3c0,0.1,0,0.2-0.1,0.3c0,0.1-0.1,0.3-0.1,0.4
		c0,0.1-0.1,0.1-0.1,0.2c0,0.1-0.1,0.1-0.1,0.2c0,0.1-0.1,0.1-0.1,0.2c0,0,0,0.1-0.1,0.1c0,0,0,0.1-0.1,0.1c0,0.1-0.1,0.1-0.1,0.2
		c0,0.1-0.1,0.1-0.1,0.2c0,0.1-0.1,0.1-0.1,0.2c-0.1,0.1-0.1,0.1-0.2,0.2c-0.1,0.1-0.2,0.2-0.3,0.4c-0.1,0.1-0.2,0.2-0.3,0.3
		c-0.1,0-0.1,0.1-0.2,0.1c-0.1,0-0.1,0.1-0.2,0.1c-0.1,0.1-0.2,0.1-0.3,0.2c-0.1,0-0.2,0.1-0.2,0.1c-0.1,0-0.1,0.1-0.2,0.1
		c0,0-0.1,0-0.1,0s0,0,0,0c0,0,0.1-0.1,0.1-0.1c0-0.1,0.1-0.1,0.2-0.2c0.1-0.1,0.1-0.2,0.2-0.2c0,0,0.1-0.1,0.1-0.1
		c0-0.1,0.1-0.1,0.1-0.2c0.1-0.1,0.2-0.2,0.3-0.3c0-0.1,0.1-0.1,0.1-0.2c0-0.1,0.1-0.1,0.1-0.2c0-0.1,0.1-0.1,0.1-0.2
		c0-0.1,0.1-0.1,0.1-0.2c0-0.1,0.1-0.1,0.1-0.2c0-0.1,0.1-0.1,0.1-0.2c0.1-0.1,0.2-0.3,0.2-0.4c0.1-0.1,0.1-0.3,0.2-0.4
		c0.1-0.1,0.1-0.2,0.2-0.3c0.1-0.1,0.1-0.2,0.2-0.3c0-0.1,0.1-0.2,0.1-0.2C67.5,29.4,67.5,29.4,67.5,29.3
		C67.5,29.3,67.5,29.3,67.5,29.3z"/>
	
		<linearGradient id="XMLID_131_" gradientUnits="userSpaceOnUse" x1="51.9214" y1="63.3304" x2="55.1371" y2="54.8003" gradientTransform="matrix(0.9989 -4.584129e-02 4.584129e-02 0.9989 10.2839 -33.9469)">
		<stop  offset="0" style="stop-color:#134763;stop-opacity:0.3"/>
		<stop  offset="0.9839" style="stop-color:#134763;stop-opacity:0"/>
	</linearGradient>
	<path id="XMLID_75_" class="st12" d="M65.7,26.4c0,0,0,0.1,0,0.3c0,0.1,0,0.2,0,0.3c0,0.1,0,0.1,0,0.2c0,0.1,0,0.1,0,0.2
		c0,0.2-0.1,0.3-0.1,0.5c0,0.1-0.1,0.2-0.1,0.3c0,0.1-0.1,0.2-0.1,0.3c-0.1,0.2-0.1,0.4-0.2,0.6c0,0.1-0.1,0.2-0.1,0.3
		c0,0.1-0.1,0.2-0.1,0.3c-0.1,0.2-0.2,0.4-0.3,0.6c0,0-0.1,0.1-0.1,0.1c0,0-0.1,0.1-0.1,0.1c-0.1,0.1-0.1,0.2-0.2,0.2
		c0,0-0.1,0.1-0.1,0.1c0,0-0.1,0.1-0.1,0.1c-0.1,0.1-0.1,0.1-0.2,0.2c-0.1,0.1-0.1,0.1-0.2,0.2c-0.1,0.1-0.1,0.1-0.2,0.2
		c-0.1,0.1-0.2,0.2-0.3,0.3C63,32,62.9,32,62.8,32.1c-0.1,0.1-0.1,0.1-0.2,0.1c0,0-0.1,0-0.1,0s0,0,0-0.1c0,0,0.1-0.1,0.1-0.2
		c0.1-0.1,0.1-0.2,0.2-0.3c0-0.1,0.1-0.1,0.1-0.2c0-0.1,0.1-0.1,0.1-0.2c0.1-0.1,0.2-0.3,0.3-0.4c0-0.1,0.1-0.2,0.1-0.2
		c0,0,0.1-0.1,0.1-0.1c0,0,0-0.1,0.1-0.1c0.1-0.2,0.2-0.3,0.3-0.5c0.1-0.2,0.2-0.4,0.3-0.5c0-0.1,0.1-0.2,0.1-0.3
		c0-0.1,0.1-0.2,0.1-0.3c0-0.1,0.1-0.2,0.1-0.3c0-0.1,0.1-0.2,0.1-0.3c0-0.1,0.1-0.2,0.1-0.3c0-0.1,0.1-0.2,0.1-0.2
		c0.1-0.2,0.1-0.3,0.2-0.5c0.1-0.1,0.1-0.3,0.2-0.4c0-0.1,0.1-0.2,0.1-0.3C65.7,26.5,65.7,26.4,65.7,26.4z"/>
	<g>
		
			<linearGradient id="XMLID_132_" gradientUnits="userSpaceOnUse" x1="30.0413" y1="84.3969" x2="30.0413" y2="105.6088" gradientTransform="matrix(0.9989 -4.584129e-02 4.584129e-02 0.9989 10.2839 -33.9469)">
			<stop  offset="0" style="stop-color:#00C9FF"/>
			<stop  offset="1" style="stop-color:#92FE9D"/>
		</linearGradient>
		<path id="XMLID_74_" class="st13" d="M57.5,53.7c-3.8,2.9-8.4,4.5-13.2,4.7c-4.7,0.2-9.3-0.9-13.3-3.3c-0.1,0-0.2-0.1-0.2-0.1
			l13,20.2l14.3-21.9C57.9,53.4,57.7,53.6,57.5,53.7z"/>
		
			<linearGradient id="XMLID_133_" gradientUnits="userSpaceOnUse" x1="33.453" y1="95.8949" x2="33.137" y2="107.0879" gradientTransform="matrix(0.9989 -4.584129e-02 4.584129e-02 0.9989 10.2839 -33.9469)">
			<stop  offset="0" style="stop-color:#00C9FF"/>
			<stop  offset="1" style="stop-color:#92FE9D"/>
		</linearGradient>
		<path id="XMLID_73_" class="st14" d="M38.1,66.4l5.6,8.7l14.3-21.9C58.1,53.3,50.7,64.3,38.1,66.4z"/>
	</g>
	<path class="st15" d="M44.3,33.4l-0.1-3.2c0.7,0.1,1.3,0.4,1.7,0.8c0.3,0.2,0.5,0.4,0.8,0.4c0.5,0,0.9-0.5,0.9-1
		c0-0.2-0.1-0.4-0.2-0.6c-0.6-0.8-1.8-1.3-3.3-1.4l0-0.5l0-0.5c0-0.5-0.4-0.8-0.9-0.8c-0.4,0-0.8,0.4-0.8,0.9l0,0.5l0,0.5
		c-2.3,0.4-3.2,1.8-3.1,3.3c0.1,2.1,1.8,2.8,3.4,3.3l0.2,3.7c-0.8-0.2-1.6-0.6-2.1-1.2c-0.2-0.2-0.4-0.4-0.8-0.4
		c-0.5,0-0.9,0.5-0.9,1c0,0.2,0.1,0.4,0.2,0.5c0.6,0.9,2,1.8,3.8,1.9l0,0.2l0,0.8c0,0.5,0.4,0.8,0.9,0.8c0.5,0,0.8-0.4,0.8-0.9
		l0-0.8l0-0.2c2.4-0.3,3.5-1.7,3.5-3.6C48,34.6,46.1,33.9,44.3,33.4z M41.4,31.6c0-0.6,0.3-1.1,1.1-1.4l0.1,2.6
		C41.9,32.6,41.4,32.3,41.4,31.6z M44.6,38.7l-0.1-3.2c0.9,0.3,1.6,0.7,1.6,1.6C46.1,38,45.6,38.5,44.6,38.7z"/>
</g>
</svg>
