<?xml version="1.0" encoding="utf-8"?>
<!-- Generator: Adobe Illustrator 20.1.0, SVG Export Plug-In . SVG Version: 6.00 Build 0)  -->
<svg version="1.1" id="Layer_1" xmlns="http://www.w3.org/2000/svg" xmlns:xlink="http://www.w3.org/1999/xlink" x="0px" y="0px"
	 viewBox="0 0 152 152" style="enable-background:new 0 0 152 152;" xml:space="preserve">
<style type="text/css">
	.st0{fill:url(#SVGID_1_);}
	.st1{fill:url(#SVGID_2_);}
	.st2{fill:url(#SVGID_3_);}
	.st3{fill:url(#XMLID_122_);}
	.st4{fill:url(#XMLID_123_);}
	.st5{fill:url(#XMLID_124_);}
	.st6{fill:url(#XMLID_125_);}
	.st7{fill:url(#XMLID_126_);}
	.st8{fill:url(#XMLID_127_);}
	.st9{fill:url(#XMLID_128_);}
	.st10{fill:url(#XMLID_129_);}
	.st11{fill:url(#XMLID_130_);}
	.st12{fill:url(#XMLID_131_);}
	.st13{fill:url(#XMLID_132_);}
	.st14{fill:url(#XMLID_133_);}
	.st15{fill:#F49C3B;}
	.st16{fill:url(#SVGID_4_);}
	.st17{fill:url(#SVGID_5_);}
	.st18{fill:url(#SVGID_6_);}
	.st19{fill:url(#XMLID_134_);}
	.st20{fill:url(#XMLID_135_);}
	.st21{fill:url(#XMLID_136_);}
	.st22{fill:url(#XMLID_137_);}
	.st23{fill:url(#XMLID_138_);}
	.st24{fill:url(#XMLID_139_);}
	.st25{fill:url(#XMLID_140_);}
	.st26{fill:url(#XMLID_141_);}
	.st27{fill:url(#XMLID_142_);}
	.st28{fill:url(#XMLID_143_);}
	.st29{fill:url(#XMLID_144_);}
	.st30{fill:url(#XMLID_145_);}
	.st31{fill:url(#SVGID_7_);}
	.st32{fill:url(#SVGID_8_);}
	.st33{fill:url(#SVGID_9_);}
	.st34{fill:url(#XMLID_146_);}
	.st35{fill:url(#XMLID_147_);}
	.st36{fill:url(#XMLID_148_);}
	.st37{fill:url(#XMLID_149_);}
	.st38{fill:url(#XMLID_150_);}
	.st39{fill:url(#XMLID_151_);}
	.st40{fill:url(#XMLID_152_);}
	.st41{fill:url(#XMLID_153_);}
	.st42{fill:url(#XMLID_154_);}
	.st43{fill:url(#XMLID_155_);}
	.st44{fill:url(#XMLID_156_);}
	.st45{fill:url(#XMLID_157_);}
	.st46{fill:url(#SVGID_10_);}
	.st47{fill:url(#SVGID_11_);}
	.st48{fill:url(#SVGID_12_);}
	.st49{fill:url(#XMLID_158_);}
	.st50{fill:url(#XMLID_159_);}
	.st51{fill:url(#XMLID_160_);}
	.st52{fill:url(#XMLID_161_);}
	.st53{fill:url(#XMLID_162_);}
	.st54{fill:url(#XMLID_163_);}
	.st55{fill:url(#XMLID_164_);}
	.st56{fill:url(#XMLID_165_);}
	.st57{fill:url(#XMLID_166_);}
	.st58{fill:url(#XMLID_167_);}
	.st59{fill:url(#XMLID_168_);}
	.st60{fill:url(#XMLID_169_);}
	.st61{fill:url(#SVGID_13_);}
	.st62{fill:url(#SVGID_14_);}
	.st63{fill:url(#SVGID_15_);}
	.st64{fill:url(#XMLID_170_);}
	.st65{fill:url(#XMLID_171_);}
	.st66{fill:url(#XMLID_172_);}
	.st67{fill:url(#XMLID_173_);}
	.st68{fill:url(#XMLID_174_);}
	.st69{fill:url(#XMLID_175_);}
	.st70{fill:url(#XMLID_176_);}
	.st71{fill:url(#XMLID_177_);}
	.st72{fill:url(#XMLID_178_);}
	.st73{fill:url(#XMLID_179_);}
	.st74{fill:url(#XMLID_180_);}
	.st75{fill:url(#XMLID_181_);}
	.st76{fill:url(#SVGID_16_);}
	.st77{fill:url(#SVGID_17_);}
	.st78{fill:url(#SVGID_18_);}
	.st79{fill:url(#XMLID_182_);}
	.st80{fill:url(#XMLID_183_);}
	.st81{fill:url(#XMLID_184_);}
	.st82{fill:url(#XMLID_185_);}
	.st83{fill:url(#XMLID_186_);}
	.st84{fill:url(#XMLID_187_);}
	.st85{fill:url(#XMLID_188_);}
	.st86{fill:url(#XMLID_189_);}
	.st87{fill:url(#XMLID_190_);}
	.st88{fill:url(#XMLID_191_);}
	.st89{fill:url(#XMLID_192_);}
	.st90{fill:url(#XMLID_193_);}
	.st91{fill:url(#SVGID_19_);}
	.st92{fill:url(#SVGID_20_);}
	.st93{fill:url(#SVGID_21_);}
	.st94{fill:url(#XMLID_194_);}
	.st95{fill:url(#XMLID_195_);}
	.st96{fill:url(#XMLID_196_);}
	.st97{fill:url(#XMLID_197_);}
	.st98{fill:url(#XMLID_198_);}
	.st99{fill:url(#XMLID_199_);}
	.st100{fill:url(#XMLID_200_);}
	.st101{fill:url(#XMLID_201_);}
	.st102{fill:url(#XMLID_202_);}
	.st103{fill:url(#XMLID_203_);}
	.st104{fill:url(#XMLID_204_);}
	.st105{fill:url(#XMLID_205_);}
	.st106{fill:url(#SVGID_22_);}
	.st107{fill:url(#SVGID_23_);}
	.st108{fill:url(#SVGID_24_);}
	.st109{fill:url(#XMLID_206_);}
	.st110{fill:url(#XMLID_207_);}
	.st111{fill:url(#XMLID_208_);}
	.st112{fill:url(#XMLID_209_);}
	.st113{fill:url(#XMLID_210_);}
	.st114{fill:url(#XMLID_211_);}
	.st115{fill:url(#XMLID_212_);}
	.st116{fill:url(#XMLID_213_);}
	.st117{fill:url(#XMLID_214_);}
	.st118{fill:url(#XMLID_215_);}
	.st119{fill:url(#XMLID_216_);}
	.st120{fill:url(#XMLID_217_);}
	.st121{fill:url(#SVGID_25_);}
	.st122{fill:url(#SVGID_26_);}
	.st123{fill:url(#SVGID_27_);}
	.st124{fill:url(#XMLID_218_);}
	.st125{fill:url(#XMLID_219_);}
	.st126{fill:url(#XMLID_220_);}
	.st127{fill:url(#XMLID_221_);}
	.st128{fill:url(#XMLID_222_);}
	.st129{fill:url(#XMLID_223_);}
	.st130{fill:url(#XMLID_224_);}
	.st131{fill:url(#XMLID_225_);}
	.st132{fill:url(#XMLID_226_);}
	.st133{fill:url(#XMLID_227_);}
	.st134{fill:url(#XMLID_228_);}
	.st135{fill:url(#XMLID_229_);}
	.st136{fill:url(#SVGID_28_);}
	.st137{fill:url(#SVGID_29_);}
	.st138{fill:url(#SVGID_30_);}
	.st139{fill:url(#XMLID_230_);}
	.st140{fill:url(#XMLID_231_);}
	.st141{fill:url(#XMLID_232_);}
	.st142{fill:url(#XMLID_233_);}
	.st143{fill:url(#XMLID_234_);}
	.st144{fill:url(#XMLID_235_);}
	.st145{fill:url(#XMLID_236_);}
	.st146{fill:url(#XMLID_237_);}
	.st147{fill:url(#XMLID_238_);}
	.st148{fill:url(#XMLID_239_);}
	.st149{fill:url(#XMLID_240_);}
	.st150{fill:url(#XMLID_241_);}
</style>
<linearGradient id="SVGID_1_" gradientUnits="userSpaceOnUse" x1="1.0671" y1="151.154" x2="152.0431" y2="-0.2674">
	<stop  offset="0" style="stop-color:#F1F2F2"/>
	<stop  offset="1" style="stop-color:#FFFFFF"/>
</linearGradient>
<rect class="st0" width="152" height="152"/>
<g>
	
		<linearGradient id="SVGID_2_" gradientUnits="userSpaceOnUse" x1="70.4978" y1="98.846" x2="121.7527" y2="98.846" gradientTransform="matrix(0.9989 -4.584129e-02 4.584129e-02 0.9989 -24.5384 -33.607)">
		<stop  offset="0" style="stop-color:#FBB040"/>
		<stop  offset="1" style="stop-color:#F7941D"/>
	</linearGradient>
	<circle class="st1" cx="76" cy="60.7" r="25.6"/>
	
		<linearGradient id="SVGID_3_" gradientUnits="userSpaceOnUse" x1="72.8124" y1="98.846" x2="119.4381" y2="98.846" gradientTransform="matrix(0.9989 -4.584129e-02 4.584129e-02 0.9989 -24.5384 -33.607)">
		<stop  offset="0" style="stop-color:#F9ED32"/>
		<stop  offset="1" style="stop-color:#EFB25E"/>
	</linearGradient>
	<circle class="st2" cx="76" cy="60.7" r="23.3"/>
	
		<linearGradient id="XMLID_122_" gradientUnits="userSpaceOnUse" x1="141.7068" y1="107.402" x2="70.0295" y2="83.0364" gradientTransform="matrix(0.9989 -4.584129e-02 4.584129e-02 0.9989 -24.5384 -33.607)">
		<stop  offset="0" style="stop-color:#00C9FF"/>
		<stop  offset="1" style="stop-color:#92FE9D"/>
	</linearGradient>
	<path id="XMLID_13_" class="st3" d="M74.2,20.7c-16.5,0.8-30.1,11.4-35.5,25.9l0,0c0,0-6.8,4.8-7.2,9.6s0.4,8.5,0.4,8.5
		S31.2,68,34,69.5c0,0-1.6,3.6,3.2,5c0,0,0.4,5.9,5.1,2.8c1.3-1.6,0-3,1.7-5.6c1.7-2.6,4.9-9.3,7.6-6.3c0,0,0.2,1.9,1.4,4.6
		c0,0,5.6-2.7,4.4-8.4c-1.2-5.8-6.1-10.7,1.3-19c4.2-4,9.8-6.6,16.1-6.9c12.8-0.6,23.8,8.6,25.7,21.1l15-0.7
		C113.3,35.4,95.3,19.8,74.2,20.7z"/>
	
		<linearGradient id="XMLID_123_" gradientUnits="userSpaceOnUse" x1="121.0551" y1="100.5219" x2="130.9314" y2="77.3983" gradientTransform="matrix(0.9989 -4.584129e-02 4.584129e-02 0.9989 -24.5384 -33.607)">
		<stop  offset="0" style="stop-color:#134763;stop-opacity:0.3"/>
		<stop  offset="0.9839" style="stop-color:#134763;stop-opacity:0"/>
	</linearGradient>
	<path id="XMLID_11_" class="st4" d="M100.1,54c0.2,0.7,0.2,1.1,0.2,1.3c0,0,0,0,0,0.1c2.8,3,5.9-3.6,7.6-6.3
		c1.7-2.6,3.1-6.4,3.6-6.5c-0.5-1-1-1.9-1.6-2.8c0,0-1.2,1.1-1.8,4.1C107.6,46.7,104,54.4,100.1,54z"/>
	
		<linearGradient id="XMLID_124_" gradientUnits="userSpaceOnUse" x1="63.7638" y1="86.5338" x2="108.9466" y2="109.7166" gradientTransform="matrix(0.9989 -4.584129e-02 4.584129e-02 0.9989 -24.5384 -33.607)">
		<stop  offset="0" style="stop-color:#00C9FF"/>
		<stop  offset="1" style="stop-color:#92FE9D"/>
	</linearGradient>
	<path id="XMLID_10_" class="st5" d="M120.1,55.9c0,0,0.6-3.2-2.1-4.7c0,0,1.6-3.6-3.2-5c0,0-0.3-4.2-3.2-3.7
		c-1.4,0.3-2.4,1.5-2.5,3c-0.1,1-0.1,2.1-1.1,3.5c-1.7,2.6-4.9,9.3-7.6,6.3c0,0-0.2-1.9-1.4-4.6c0,0-5.6,2.7-4.4,8.4
		c1.2,5.8,6.1,10.7-1.3,19c-4.2,4-9.8,6.6-16.1,6.9c-10.7,0.5-20-5.8-24-15.1c0,0-0.1,0-0.1,0c-1.1-2.6-1.4-4.4-1.4-4.6c0,0,0,0,0,0
		c-2.8-3-5.9,3.7-7.6,6.3c-1.7,2.6-0.5,4.1-1.7,5.6c-0.7,0.5-1.3,0.7-1.9,0.8c6.9,13.6,21.2,22.6,37.4,21.8
		c16.5-0.8,30.1-11.4,35.5-25.9l0,0c0,0,6.8-4.8,7.2-9.6S120.1,55.9,120.1,55.9z"/>
	
		<linearGradient id="XMLID_125_" gradientUnits="userSpaceOnUse" x1="66.8035" y1="105.7808" x2="63.7282" y2="115.6769" gradientTransform="matrix(0.9989 -4.584129e-02 4.584129e-02 0.9989 -24.5384 -33.607)">
		<stop  offset="0" style="stop-color:#134763;stop-opacity:0.3"/>
		<stop  offset="0.9839" style="stop-color:#134763;stop-opacity:0"/>
	</linearGradient>
	<path id="XMLID_9_" class="st6" d="M51.9,66.7c-0.2-0.7-0.2-1.1-0.2-1.3c0,0,0,0,0-0.1c-2.8-3-5.9,3.6-7.6,6.3
		c-1.7,2.6-0.5,4.1-1.7,5.6c-0.7,0.5-1.3,0.7-1.9,0.8c0.5,1,1,1.9,1.6,2.8c0,0,1.2-1.1,1.8-4.1C44.4,74,48,66.4,51.9,66.7z"/>
	
		<linearGradient id="XMLID_126_" gradientUnits="userSpaceOnUse" x1="53.6976" y1="99.0785" x2="58.5865" y2="89.3796" gradientTransform="matrix(0.9989 -4.584129e-02 4.584129e-02 0.9989 -24.5384 -33.607)">
		<stop  offset="0" style="stop-color:#134763;stop-opacity:0.3"/>
		<stop  offset="0.9839" style="stop-color:#134763;stop-opacity:0"/>
	</linearGradient>
	<path id="XMLID_8_" class="st7" d="M33,64.7c0,0,0-0.1,0-0.2c0-0.2,0-0.4,0.1-0.6c0-0.3,0.1-0.6,0.2-0.9c0-0.2,0.1-0.3,0.2-0.5
		c0.1-0.2,0.1-0.3,0.2-0.5c0.1-0.3,0.3-0.6,0.5-0.9c0.2-0.3,0.4-0.5,0.6-0.7c0.1-0.1,0.2-0.2,0.3-0.2c0.1-0.1,0.2-0.1,0.3-0.1
		c0.1,0,0.1-0.1,0.2-0.1c0,0,0.1,0,0.1,0s0,0,0,0.1c0,0-0.1,0.1-0.1,0.2c0,0.1-0.1,0.1-0.1,0.2c0,0.1-0.1,0.2-0.1,0.3
		c-0.1,0.2-0.2,0.5-0.3,0.8c0,0.1-0.1,0.1-0.1,0.2c0,0.1-0.1,0.1-0.1,0.2c-0.1,0.1-0.1,0.3-0.2,0.4c-0.1,0.1-0.1,0.3-0.2,0.4
		c-0.1,0.1-0.1,0.3-0.2,0.4c-0.1,0.3-0.3,0.5-0.4,0.8c-0.1,0.2-0.3,0.4-0.3,0.5C33,64.7,33,64.7,33,64.7z"/>
	
		<linearGradient id="XMLID_127_" gradientUnits="userSpaceOnUse" x1="55.6381" y1="102.8945" x2="60.803" y2="93.7082" gradientTransform="matrix(0.9989 -4.584129e-02 4.584129e-02 0.9989 -24.5384 -33.607)">
		<stop  offset="0" style="stop-color:#134763;stop-opacity:0.3"/>
		<stop  offset="0.9839" style="stop-color:#134763;stop-opacity:0"/>
	</linearGradient>
	<path id="XMLID_7_" class="st8" d="M34,69.5c0,0,0-0.1,0-0.4c0-0.1,0-0.3,0.1-0.5c0-0.2,0.1-0.4,0.1-0.6c0.1-0.2,0.1-0.4,0.2-0.7
		c0-0.1,0.1-0.2,0.1-0.4c0-0.1,0.1-0.2,0.2-0.4c0.1-0.1,0.1-0.2,0.2-0.4c0-0.1,0.1-0.1,0.1-0.2c0-0.1,0.1-0.1,0.1-0.2
		c0.1-0.1,0.1-0.3,0.2-0.4c0.1-0.1,0.2-0.2,0.2-0.4c0.1-0.1,0.2-0.2,0.3-0.4c0.1-0.1,0.2-0.2,0.3-0.3c0.2-0.2,0.4-0.4,0.6-0.6
		c0.2-0.2,0.4-0.4,0.6-0.5c0.1-0.1,0.2-0.2,0.3-0.2c0.1-0.1,0.2-0.1,0.3-0.2c0.2-0.1,0.3-0.2,0.5-0.3c0.2-0.1,0.3-0.2,0.4-0.2
		c0.1-0.1,0.2-0.1,0.3-0.1c0.1,0,0.1,0,0.1,0s0,0-0.1,0.1c0,0.1-0.1,0.1-0.2,0.2c-0.1,0.1-0.2,0.2-0.3,0.3c-0.1,0.1-0.2,0.3-0.4,0.4
		c-0.1,0.1-0.1,0.2-0.2,0.2c-0.1,0.1-0.1,0.2-0.2,0.3c-0.2,0.2-0.3,0.4-0.5,0.6c-0.1,0.1-0.2,0.2-0.2,0.3c-0.1,0.1-0.2,0.2-0.2,0.3
		c-0.1,0.1-0.2,0.2-0.2,0.3c-0.1,0.1-0.2,0.2-0.2,0.3c-0.1,0.1-0.2,0.2-0.2,0.3c-0.1,0.1-0.1,0.2-0.2,0.3c-0.2,0.2-0.3,0.5-0.4,0.7
		c-0.1,0.2-0.3,0.4-0.4,0.7c-0.1,0.2-0.2,0.4-0.3,0.6c-0.1,0.2-0.2,0.4-0.3,0.5c-0.1,0.2-0.2,0.3-0.2,0.4
		C34.1,69.3,34.1,69.3,34,69.5C34,69.5,34,69.5,34,69.5z"/>
	
		<linearGradient id="XMLID_128_" gradientUnits="userSpaceOnUse" x1="59.6627" y1="104.9215" x2="67.7451" y2="89.1115" gradientTransform="matrix(0.9989 -4.584129e-02 4.584129e-02 0.9989 -24.5384 -33.607)">
		<stop  offset="0" style="stop-color:#134763;stop-opacity:0.3"/>
		<stop  offset="0.9839" style="stop-color:#134763;stop-opacity:0"/>
	</linearGradient>
	<path id="XMLID_6_" class="st9" d="M37.2,74.5c0,0,0-0.2,0-0.5c0-0.2,0-0.4,0.1-0.6c0-0.1,0-0.2,0.1-0.4c0-0.1,0.1-0.3,0.1-0.4
		c0.1-0.3,0.1-0.6,0.2-0.9c0-0.2,0.1-0.3,0.1-0.5c0-0.2,0.1-0.3,0.2-0.5c0.1-0.3,0.2-0.7,0.4-1c0.1-0.2,0.1-0.3,0.2-0.5
		c0.1-0.2,0.2-0.3,0.3-0.5c0.2-0.3,0.4-0.6,0.6-1c0-0.1,0.1-0.2,0.1-0.2c0.1-0.1,0.1-0.1,0.2-0.2c0.1-0.1,0.2-0.3,0.3-0.4
		c0.1-0.1,0.1-0.1,0.2-0.2c0.1-0.1,0.1-0.1,0.2-0.2c0.1-0.1,0.2-0.3,0.3-0.4c0.1-0.1,0.2-0.2,0.3-0.4c0.1-0.1,0.2-0.2,0.3-0.3
		c0.2-0.2,0.4-0.4,0.5-0.5c0.2-0.1,0.3-0.3,0.5-0.4c0.1-0.1,0.2-0.2,0.3-0.2c0.1-0.1,0.1-0.1,0.1-0.1s0,0-0.1,0.1
		c0,0.1-0.1,0.2-0.2,0.3c-0.1,0.1-0.2,0.3-0.3,0.5c-0.1,0.1-0.1,0.2-0.2,0.3c-0.1,0.1-0.1,0.2-0.2,0.3c-0.2,0.2-0.3,0.5-0.5,0.7
		c-0.1,0.1-0.2,0.3-0.3,0.4c0,0.1-0.1,0.1-0.1,0.2c0,0.1-0.1,0.1-0.1,0.2c-0.2,0.3-0.4,0.6-0.5,0.9c-0.2,0.3-0.4,0.6-0.5,0.9
		c-0.1,0.2-0.2,0.3-0.3,0.5c-0.1,0.2-0.2,0.3-0.2,0.5c-0.1,0.2-0.2,0.3-0.2,0.5c-0.1,0.2-0.1,0.3-0.2,0.5c-0.1,0.2-0.1,0.3-0.2,0.5
		c-0.1,0.1-0.1,0.3-0.2,0.4c-0.1,0.3-0.2,0.6-0.3,0.8c-0.1,0.3-0.2,0.5-0.3,0.7c-0.1,0.2-0.2,0.4-0.2,0.5
		C37.3,74.3,37.2,74.5,37.2,74.5z"/>
	
		<linearGradient id="XMLID_129_" gradientUnits="userSpaceOnUse" x1="137.0351" y1="102.7423" x2="130.8255" y2="114.0971" gradientTransform="matrix(0.9989 -4.584129e-02 4.584129e-02 0.9989 -24.5384 -33.607)">
		<stop  offset="0" style="stop-color:#134763;stop-opacity:0.3"/>
		<stop  offset="0.9839" style="stop-color:#134763;stop-opacity:0"/>
	</linearGradient>
	<path id="XMLID_5_" class="st10" d="M120.1,55.9c0,0,0,0.1,0,0.2c0,0.2,0,0.4-0.1,0.6c0,0.3-0.1,0.6-0.2,0.9c0,0.2-0.1,0.3-0.2,0.5
		c-0.1,0.2-0.1,0.3-0.2,0.5c-0.1,0.3-0.3,0.6-0.5,0.9c-0.2,0.3-0.4,0.5-0.6,0.7c-0.1,0.1-0.2,0.2-0.3,0.2c-0.1,0.1-0.2,0.1-0.3,0.1
		c-0.1,0-0.1,0.1-0.2,0.1c0,0-0.1,0-0.1,0s0,0,0-0.1c0,0,0.1-0.1,0.1-0.2c0-0.1,0.1-0.1,0.1-0.2c0-0.1,0.1-0.2,0.1-0.3
		c0.1-0.2,0.2-0.5,0.3-0.8c0-0.1,0.1-0.1,0.1-0.2c0-0.1,0.1-0.1,0.1-0.2c0.1-0.1,0.1-0.3,0.2-0.4c0.1-0.1,0.1-0.3,0.2-0.4
		c0.1-0.1,0.1-0.3,0.2-0.4c0.1-0.3,0.3-0.5,0.4-0.8c0.1-0.2,0.3-0.4,0.3-0.5C120.1,56,120.1,55.9,120.1,55.9z"/>
	
		<linearGradient id="XMLID_130_" gradientUnits="userSpaceOnUse" x1="133.5484" y1="98.9682" x2="123.9086" y2="113.1617" gradientTransform="matrix(0.9989 -4.584129e-02 4.584129e-02 0.9989 -24.5384 -33.607)">
		<stop  offset="0" style="stop-color:#134763;stop-opacity:0.3"/>
		<stop  offset="0.9839" style="stop-color:#134763;stop-opacity:0"/>
	</linearGradient>
	<path id="XMLID_4_" class="st11" d="M118,51.2c0,0,0,0.1,0,0.4c0,0.1,0,0.3-0.1,0.5c0,0.2-0.1,0.4-0.1,0.6
		c-0.1,0.2-0.1,0.4-0.2,0.7c0,0.1-0.1,0.2-0.1,0.4c0,0.1-0.1,0.2-0.2,0.4c-0.1,0.1-0.1,0.2-0.2,0.4c0,0.1-0.1,0.1-0.1,0.2
		c0,0.1-0.1,0.1-0.1,0.2c-0.1,0.1-0.1,0.3-0.2,0.4c-0.1,0.1-0.2,0.2-0.2,0.4c-0.1,0.1-0.2,0.2-0.3,0.4c-0.1,0.1-0.2,0.2-0.3,0.3
		c-0.2,0.2-0.4,0.4-0.6,0.6c-0.2,0.2-0.4,0.4-0.6,0.5c-0.1,0.1-0.2,0.2-0.3,0.2c-0.1,0.1-0.2,0.1-0.3,0.2c-0.2,0.1-0.3,0.2-0.5,0.3
		c-0.2,0.1-0.3,0.2-0.4,0.2c-0.1,0.1-0.2,0.1-0.3,0.1c-0.1,0-0.1,0-0.1,0s0,0,0.1-0.1c0-0.1,0.1-0.1,0.2-0.2
		c0.1-0.1,0.2-0.2,0.3-0.3c0.1-0.1,0.2-0.3,0.4-0.4c0.1-0.1,0.1-0.2,0.2-0.2c0.1-0.1,0.1-0.2,0.2-0.3c0.2-0.2,0.3-0.4,0.5-0.6
		c0.1-0.1,0.2-0.2,0.2-0.3c0.1-0.1,0.2-0.2,0.2-0.3c0.1-0.1,0.2-0.2,0.2-0.3c0.1-0.1,0.2-0.2,0.2-0.3c0.1-0.1,0.2-0.2,0.2-0.3
		c0.1-0.1,0.1-0.2,0.2-0.3c0.2-0.2,0.3-0.5,0.4-0.7c0.1-0.2,0.3-0.4,0.4-0.7c0.1-0.2,0.2-0.4,0.3-0.6c0.1-0.2,0.2-0.4,0.3-0.5
		c0.1-0.2,0.2-0.3,0.2-0.4C117.9,51.4,117.9,51.3,118,51.2C118,51.2,118,51.2,118,51.2z"/>
	
		<linearGradient id="XMLID_131_" gradientUnits="userSpaceOnUse" x1="134.3526" y1="86.9192" x2="139.9708" y2="72.016" gradientTransform="matrix(0.9989 -4.584129e-02 4.584129e-02 0.9989 -24.5384 -33.607)">
		<stop  offset="0" style="stop-color:#134763;stop-opacity:0.3"/>
		<stop  offset="0.9839" style="stop-color:#134763;stop-opacity:0"/>
	</linearGradient>
	<path id="XMLID_3_" class="st12" d="M114.8,46.2c0,0,0,0.2,0,0.5c0,0.2,0,0.4-0.1,0.6c0,0.1,0,0.2-0.1,0.4c0,0.1-0.1,0.3-0.1,0.4
		c-0.1,0.3-0.1,0.6-0.2,0.9c0,0.2-0.1,0.3-0.1,0.5c0,0.2-0.1,0.3-0.2,0.5c-0.1,0.3-0.2,0.7-0.4,1c-0.1,0.2-0.1,0.3-0.2,0.5
		c-0.1,0.2-0.2,0.3-0.3,0.5c-0.2,0.3-0.4,0.6-0.6,1c0,0.1-0.1,0.2-0.1,0.2c-0.1,0.1-0.1,0.1-0.2,0.2c-0.1,0.1-0.2,0.3-0.3,0.4
		c-0.1,0.1-0.1,0.1-0.2,0.2c-0.1,0.1-0.1,0.1-0.2,0.2c-0.1,0.1-0.2,0.3-0.3,0.4c-0.1,0.1-0.2,0.2-0.3,0.4c-0.1,0.1-0.2,0.2-0.3,0.3
		c-0.2,0.2-0.4,0.4-0.5,0.5c-0.2,0.1-0.3,0.3-0.5,0.4c-0.1,0.1-0.2,0.2-0.3,0.2c-0.1,0.1-0.1,0.1-0.1,0.1s0,0,0.1-0.1
		c0-0.1,0.1-0.2,0.2-0.3c0.1-0.1,0.2-0.3,0.3-0.5c0.1-0.1,0.1-0.2,0.2-0.3c0.1-0.1,0.1-0.2,0.2-0.3c0.2-0.2,0.3-0.5,0.5-0.7
		c0.1-0.1,0.2-0.3,0.3-0.4c0-0.1,0.1-0.1,0.1-0.2c0-0.1,0.1-0.1,0.1-0.2c0.2-0.3,0.4-0.6,0.5-0.9c0.2-0.3,0.4-0.6,0.5-0.9
		c0.1-0.2,0.2-0.3,0.3-0.5c0.1-0.2,0.2-0.3,0.2-0.5c0.1-0.2,0.2-0.3,0.2-0.5c0.1-0.2,0.1-0.3,0.2-0.5c0.1-0.2,0.1-0.3,0.2-0.5
		c0.1-0.1,0.1-0.3,0.2-0.4c0.1-0.3,0.2-0.6,0.3-0.8c0.1-0.3,0.2-0.5,0.3-0.7c0.1-0.2,0.2-0.4,0.2-0.5
		C114.7,46.4,114.8,46.2,114.8,46.2z"/>
	<g>
		
			<linearGradient id="XMLID_132_" gradientUnits="userSpaceOnUse" x1="96.1253" y1="123.7251" x2="96.1253" y2="160.785" gradientTransform="matrix(0.9989 -4.584129e-02 4.584129e-02 0.9989 -24.5384 -33.607)">
			<stop  offset="0" style="stop-color:#00C9FF"/>
			<stop  offset="1" style="stop-color:#92FE9D"/>
		</linearGradient>
		<path id="XMLID_2_" class="st13" d="M100.4,93.8c-6.7,5-14.7,7.8-23,8.2c-8.2,0.4-16.3-1.6-23.3-5.8C54,96.1,53.8,96,53.7,96
			l22.7,35.4l25-38.2C101.1,93.3,100.8,93.6,100.4,93.8z"/>
		
			<linearGradient id="XMLID_133_" gradientUnits="userSpaceOnUse" x1="102.0859" y1="143.8136" x2="101.5339" y2="163.3691" gradientTransform="matrix(0.9989 -4.584129e-02 4.584129e-02 0.9989 -24.5384 -33.607)">
			<stop  offset="0" style="stop-color:#00C9FF"/>
			<stop  offset="1" style="stop-color:#92FE9D"/>
		</linearGradient>
		<path id="XMLID_1_" class="st14" d="M66.6,116.1l9.8,15.2l25-38.2C101.4,93.1,88.6,112.4,66.6,116.1z"/>
	</g>
	<path class="st15" d="M77.5,58.3l-0.3-5.6c1.2,0.2,2.2,0.7,2.9,1.3c0.5,0.4,0.9,0.6,1.4,0.6c0.9,0,1.6-0.8,1.6-1.7
		c0-0.4-0.2-0.7-0.4-1c-1.1-1.4-3.2-2.3-5.7-2.5l0-0.9l0-0.9c0-0.8-0.7-1.4-1.5-1.4c-0.8,0-1.4,0.7-1.4,1.5l0,0.9l0,0.9
		c-3.9,0.6-5.6,3.1-5.4,5.8c0.2,3.8,3.1,5,6,5.8l0.3,6.5c-1.5-0.3-2.7-1.1-3.8-2c-0.3-0.3-0.7-0.7-1.4-0.6c-0.9,0-1.6,0.8-1.6,1.7
		c0,0.3,0.1,0.6,0.3,0.9c1.1,1.7,3.6,3.2,6.6,3.4l0,0.4l0.1,1.4c0,0.8,0.7,1.4,1.5,1.4c0.8,0,1.4-0.7,1.4-1.5l-0.1-1.4l0-0.4
		c4.1-0.6,6.2-2.9,6-6.3C83.9,60.4,80.6,59.2,77.5,58.3z M72.3,55.2c0-1,0.5-2,2-2.4l0.2,4.6C73.3,57,72.4,56.4,72.3,55.2z
		 M77.9,67.7l-0.3-5.6c1.6,0.6,2.8,1.3,2.9,2.7C80.6,66.3,79.7,67.3,77.9,67.7z"/>
</g>
</svg>
