<?xml version="1.0" encoding="utf-8"?>
<!-- Generator: Adobe Illustrator 20.1.0, SVG Export Plug-In . SVG Version: 6.00 Build 0)  -->
<svg version="1.1" id="Layer_1" xmlns="http://www.w3.org/2000/svg" xmlns:xlink="http://www.w3.org/1999/xlink" x="0px" y="0px"
	 viewBox="0 0 1024 1024" style="enable-background:new 0 0 1024 1024;" xml:space="preserve">
<style type="text/css">
	.st0{fill:url(#SVGID_1_);}
	.st1{fill:url(#SVGID_2_);}
	.st2{fill:url(#SVGID_3_);}
	.st3{fill:url(#XMLID_122_);}
	.st4{fill:url(#XMLID_123_);}
	.st5{fill:url(#XMLID_124_);}
	.st6{fill:url(#XMLID_125_);}
	.st7{fill:url(#XMLID_126_);}
	.st8{fill:url(#XMLID_127_);}
	.st9{fill:url(#XMLID_128_);}
	.st10{fill:url(#XMLID_129_);}
	.st11{fill:url(#XMLID_130_);}
	.st12{fill:url(#XMLID_131_);}
	.st13{fill:url(#XMLID_132_);}
	.st14{fill:url(#XMLID_133_);}
	.st15{fill:#F49C3B;}
	.st16{fill:url(#SVGID_4_);}
	.st17{fill:url(#SVGID_5_);}
	.st18{fill:url(#SVGID_6_);}
	.st19{fill:url(#XMLID_134_);}
	.st20{fill:url(#XMLID_135_);}
	.st21{fill:url(#XMLID_136_);}
	.st22{fill:url(#XMLID_137_);}
	.st23{fill:url(#XMLID_138_);}
	.st24{fill:url(#XMLID_139_);}
	.st25{fill:url(#XMLID_140_);}
	.st26{fill:url(#XMLID_141_);}
	.st27{fill:url(#XMLID_142_);}
	.st28{fill:url(#XMLID_143_);}
	.st29{fill:url(#XMLID_144_);}
	.st30{fill:url(#XMLID_145_);}
	.st31{fill:url(#SVGID_7_);}
	.st32{fill:url(#SVGID_8_);}
	.st33{fill:url(#SVGID_9_);}
	.st34{fill:url(#XMLID_146_);}
	.st35{fill:url(#XMLID_147_);}
	.st36{fill:url(#XMLID_148_);}
	.st37{fill:url(#XMLID_149_);}
	.st38{fill:url(#XMLID_150_);}
	.st39{fill:url(#XMLID_151_);}
	.st40{fill:url(#XMLID_152_);}
	.st41{fill:url(#XMLID_153_);}
	.st42{fill:url(#XMLID_154_);}
	.st43{fill:url(#XMLID_155_);}
	.st44{fill:url(#XMLID_156_);}
	.st45{fill:url(#XMLID_157_);}
	.st46{fill:url(#SVGID_10_);}
	.st47{fill:url(#SVGID_11_);}
	.st48{fill:url(#SVGID_12_);}
	.st49{fill:url(#XMLID_158_);}
	.st50{fill:url(#XMLID_159_);}
	.st51{fill:url(#XMLID_160_);}
	.st52{fill:url(#XMLID_161_);}
	.st53{fill:url(#XMLID_162_);}
	.st54{fill:url(#XMLID_163_);}
	.st55{fill:url(#XMLID_164_);}
	.st56{fill:url(#XMLID_165_);}
	.st57{fill:url(#XMLID_166_);}
	.st58{fill:url(#XMLID_167_);}
	.st59{fill:url(#XMLID_168_);}
	.st60{fill:url(#XMLID_169_);}
	.st61{fill:url(#SVGID_13_);}
	.st62{fill:url(#SVGID_14_);}
	.st63{fill:url(#SVGID_15_);}
	.st64{fill:url(#XMLID_170_);}
	.st65{fill:url(#XMLID_171_);}
	.st66{fill:url(#XMLID_172_);}
	.st67{fill:url(#XMLID_173_);}
	.st68{fill:url(#XMLID_174_);}
	.st69{fill:url(#XMLID_175_);}
	.st70{fill:url(#XMLID_176_);}
	.st71{fill:url(#XMLID_177_);}
	.st72{fill:url(#XMLID_178_);}
	.st73{fill:url(#XMLID_179_);}
	.st74{fill:url(#XMLID_180_);}
	.st75{fill:url(#XMLID_181_);}
	.st76{fill:url(#SVGID_16_);}
	.st77{fill:url(#SVGID_17_);}
	.st78{fill:url(#SVGID_18_);}
	.st79{fill:url(#XMLID_182_);}
	.st80{fill:url(#XMLID_183_);}
	.st81{fill:url(#XMLID_184_);}
	.st82{fill:url(#XMLID_185_);}
	.st83{fill:url(#XMLID_186_);}
	.st84{fill:url(#XMLID_187_);}
	.st85{fill:url(#XMLID_188_);}
	.st86{fill:url(#XMLID_189_);}
	.st87{fill:url(#XMLID_190_);}
	.st88{fill:url(#XMLID_191_);}
	.st89{fill:url(#XMLID_192_);}
	.st90{fill:url(#XMLID_193_);}
	.st91{fill:url(#SVGID_19_);}
	.st92{fill:url(#SVGID_20_);}
	.st93{fill:url(#SVGID_21_);}
	.st94{fill:url(#XMLID_194_);}
	.st95{fill:url(#XMLID_195_);}
	.st96{fill:url(#XMLID_196_);}
	.st97{fill:url(#XMLID_197_);}
	.st98{fill:url(#XMLID_198_);}
	.st99{fill:url(#XMLID_199_);}
	.st100{fill:url(#XMLID_200_);}
	.st101{fill:url(#XMLID_201_);}
	.st102{fill:url(#XMLID_202_);}
	.st103{fill:url(#XMLID_203_);}
	.st104{fill:url(#XMLID_204_);}
	.st105{fill:url(#XMLID_205_);}
	.st106{fill:url(#SVGID_22_);}
	.st107{fill:url(#SVGID_23_);}
	.st108{fill:url(#SVGID_24_);}
	.st109{fill:url(#XMLID_206_);}
	.st110{fill:url(#XMLID_207_);}
	.st111{fill:url(#XMLID_208_);}
	.st112{fill:url(#XMLID_209_);}
	.st113{fill:url(#XMLID_210_);}
	.st114{fill:url(#XMLID_211_);}
	.st115{fill:url(#XMLID_212_);}
	.st116{fill:url(#XMLID_213_);}
	.st117{fill:url(#XMLID_214_);}
	.st118{fill:url(#XMLID_215_);}
	.st119{fill:url(#XMLID_216_);}
	.st120{fill:url(#XMLID_217_);}
	.st121{fill:url(#SVGID_25_);}
	.st122{fill:url(#SVGID_26_);}
	.st123{fill:url(#SVGID_27_);}
	.st124{fill:url(#XMLID_218_);}
	.st125{fill:url(#XMLID_219_);}
	.st126{fill:url(#XMLID_220_);}
	.st127{fill:url(#XMLID_221_);}
	.st128{fill:url(#XMLID_222_);}
	.st129{fill:url(#XMLID_223_);}
	.st130{fill:url(#XMLID_224_);}
	.st131{fill:url(#XMLID_225_);}
	.st132{fill:url(#XMLID_226_);}
	.st133{fill:url(#XMLID_227_);}
	.st134{fill:url(#XMLID_228_);}
	.st135{fill:url(#XMLID_229_);}
	.st136{fill:url(#SVGID_28_);}
	.st137{fill:url(#SVGID_29_);}
	.st138{fill:url(#SVGID_30_);}
	.st139{fill:url(#XMLID_230_);}
	.st140{fill:url(#XMLID_231_);}
	.st141{fill:url(#XMLID_232_);}
	.st142{fill:url(#XMLID_233_);}
	.st143{fill:url(#XMLID_234_);}
	.st144{fill:url(#XMLID_235_);}
	.st145{fill:url(#XMLID_236_);}
	.st146{fill:url(#XMLID_237_);}
	.st147{fill:url(#XMLID_238_);}
	.st148{fill:url(#XMLID_239_);}
	.st149{fill:url(#XMLID_240_);}
	.st150{fill:url(#XMLID_241_);}
</style>
<linearGradient id="SVGID_1_" gradientUnits="userSpaceOnUse" x1="7.1887" y1="1018.3004" x2="1024.2904" y2="-1.8016">
	<stop  offset="0" style="stop-color:#F1F2F2"/>
	<stop  offset="1" style="stop-color:#FFFFFF"/>
</linearGradient>
<rect class="st0" width="1024" height="1024"/>
<g>
	
		<linearGradient id="SVGID_2_" gradientUnits="userSpaceOnUse" x1="344.4669" y1="409.2389" x2="689.7635" y2="409.2389" gradientTransform="matrix(0.9989 -4.584129e-02 4.584129e-02 0.9989 -23.217 24.0155)">
		<stop  offset="0" style="stop-color:#FBB040"/>
		<stop  offset="1" style="stop-color:#F7941D"/>
	</linearGradient>
	<circle class="st1" cx="512.1" cy="409.1" r="172.6"/>
	
		<linearGradient id="SVGID_3_" gradientUnits="userSpaceOnUse" x1="360.0604" y1="409.2389" x2="674.17" y2="409.2389" gradientTransform="matrix(0.9989 -4.584129e-02 4.584129e-02 0.9989 -23.217 24.0155)">
		<stop  offset="0" style="stop-color:#F9ED32"/>
		<stop  offset="1" style="stop-color:#EFB25E"/>
	</linearGradient>
	<circle class="st2" cx="512.1" cy="409.1" r="157.1"/>
	
		<linearGradient id="XMLID_122_" gradientUnits="userSpaceOnUse" x1="824.1909" y1="466.8792" x2="341.312" y2="302.7322" gradientTransform="matrix(0.9989 -4.584129e-02 4.584129e-02 0.9989 -23.217 24.0155)">
		<stop  offset="0" style="stop-color:#00C9FF"/>
		<stop  offset="1" style="stop-color:#92FE9D"/>
	</linearGradient>
	<path id="XMLID_43_" class="st3" d="M499.9,139.6c-110.9,5.1-203,76.8-239.4,174.8l0,0c0,0-45.6,32.4-48.6,64.6s2.6,57.6,2.6,57.6
		s-4.3,21.5,14.4,31.7c0,0-10.9,24.1,21.7,33.6c0,0,2.8,39.8,34,19.1c8.7-10.5,0-20.2,11.7-38c11.7-17.8,32.7-62.7,51.4-42.3
		c0,0,1.3,12.5,9.4,31.1c0,0,37.8-17.9,29.8-56.7c-8-38.8-41.4-72,8.9-128c28.3-27.2,66.2-44.7,108.5-46.7
		c86.4-4,160.5,58.3,173.3,141.9l101.1-4.6C763.3,238.3,642,133.1,499.9,139.6z"/>
	
		<linearGradient id="XMLID_123_" gradientUnits="userSpaceOnUse" x1="685.0637" y1="420.5291" x2="751.599" y2="264.7489" gradientTransform="matrix(0.9989 -4.584129e-02 4.584129e-02 0.9989 -23.217 24.0155)">
		<stop  offset="0" style="stop-color:#134763;stop-opacity:0.3"/>
		<stop  offset="0.9839" style="stop-color:#134763;stop-opacity:0"/>
	</linearGradient>
	<path id="XMLID_12_" class="st4" d="M674.3,363.9c1.1,4.6,1.6,7.5,1.7,8.5c0,0.1,0.1,0.2,0.1,0.4c18.7,20.3,39.7-24.5,51.4-42.4
		c11.7-17.8,20.8-43,24.4-43.7c-3.3-6.5-6.8-12.8-10.6-18.9c0,0-8.2,7.5-12.4,27.3C724.7,314.9,700.5,366.2,674.3,363.9z"/>
	
		<linearGradient id="XMLID_124_" gradientUnits="userSpaceOnUse" x1="299.1014" y1="326.2937" x2="603.4905" y2="482.4724" gradientTransform="matrix(0.9989 -4.584129e-02 4.584129e-02 0.9989 -23.217 24.0155)">
		<stop  offset="0" style="stop-color:#00C9FF"/>
		<stop  offset="1" style="stop-color:#92FE9D"/>
	</linearGradient>
	<path id="XMLID_45_" class="st5" d="M809.4,376.7c0,0,4.3-21.5-14.4-31.7c0,0,10.9-24.1-21.7-33.6c0,0-2-28.5-21.6-24.7
		c-9.5,1.9-16.4,10.2-17,19.9c-0.4,6.4-0.6,13.8-7.1,23.7c-11.7,17.8-32.7,62.7-51.4,42.3c0,0-1.3-12.5-9.4-31.1
		c0,0-37.8,17.9-29.8,56.7c8,38.8,41.4,72-8.9,128c-28.3,27.2-66.2,44.7-108.5,46.7c-71.8,3.3-135-39.1-161.7-101.4
		c-0.2,0.1-0.4,0.2-0.4,0.2c-7.6-17.5-9.2-29.6-9.4-31c0-0.1-0.1-0.2-0.1-0.2c-18.7-20.1-39.7,24.6-51.3,42.4
		c-11.7,17.8-3.1,27.5-11.7,38c-4.9,3.2-9.1,5-12.6,5.6c46.2,91.4,143,152.1,251.9,147.1c110.9-5.1,203-76.8,239.4-174.8l0,0
		c0,0,45.6-32.4,48.6-64.6S809.4,376.7,809.4,376.7z"/>
	
		<linearGradient id="XMLID_125_" gradientUnits="userSpaceOnUse" x1="319.5791" y1="455.9577" x2="298.8615" y2="522.6259" gradientTransform="matrix(0.9989 -4.584129e-02 4.584129e-02 0.9989 -23.217 24.0155)">
		<stop  offset="0" style="stop-color:#134763;stop-opacity:0.3"/>
		<stop  offset="0.9839" style="stop-color:#134763;stop-opacity:0"/>
	</linearGradient>
	<path id="XMLID_56_" class="st6" d="M349.6,449.4c-1.1-4.6-1.6-7.5-1.7-8.5c0-0.1-0.1-0.2-0.1-0.4c-18.7-20.3-39.7,24.5-51.4,42.4
		c-11.7,17.8-3.1,27.5-11.7,38c-4.9,3.2-9.1,5-12.6,5.6c3.3,6.5,6.8,12.8,10.6,18.9c0,0,8.2-7.5,12.4-27.3
		C299.2,498.3,323.5,447,349.6,449.4z"/>
	
		<linearGradient id="XMLID_126_" gradientUnits="userSpaceOnUse" x1="231.2867" y1="410.8055" x2="264.2223" y2="345.4654" gradientTransform="matrix(0.9989 -4.584129e-02 4.584129e-02 0.9989 -23.217 24.0155)">
		<stop  offset="0" style="stop-color:#134763;stop-opacity:0.3"/>
		<stop  offset="0.9839" style="stop-color:#134763;stop-opacity:0"/>
	</linearGradient>
	<path id="XMLID_39_" class="st7" d="M222,436.2c0,0-0.1-0.6-0.1-1.7c0-1.1,0.1-2.5,0.3-4.3c0.3-1.8,0.7-3.8,1.3-5.9
		c0.3-1.1,0.7-2.1,1.1-3.2c0.4-1.1,0.9-2.2,1.4-3.2c1-2.1,2.2-4.2,3.5-6c1.3-1.8,2.7-3.4,4.1-4.7c0.7-0.6,1.4-1.1,2-1.6
		c0.6-0.4,1.2-0.7,1.7-1c0.5-0.2,0.9-0.4,1.2-0.5c0.3-0.1,0.4-0.1,0.4-0.1s-0.1,0.1-0.2,0.4c-0.1,0.2-0.4,0.6-0.6,1
		c-0.3,0.4-0.5,1-0.9,1.6c-0.3,0.6-0.7,1.3-1,2.1c-0.7,1.5-1.5,3.3-2.4,5.2c-0.2,0.5-0.4,1-0.6,1.4c-0.2,0.5-0.4,1-0.7,1.5
		c-0.5,1-0.9,2-1.4,3c-0.5,1-1,2-1.4,3c-0.5,1-1,2-1.5,2.9c-1,1.9-1.9,3.6-2.8,5.1c-0.9,1.5-1.7,2.7-2.3,3.6
		C222.4,435.7,222,436.2,222,436.2z"/>
	
		<linearGradient id="XMLID_127_" gradientUnits="userSpaceOnUse" x1="244.3599" y1="436.5132" x2="279.1548" y2="374.6261" gradientTransform="matrix(0.9989 -4.584129e-02 4.584129e-02 0.9989 -23.217 24.0155)">
		<stop  offset="0" style="stop-color:#134763;stop-opacity:0.3"/>
		<stop  offset="0.9839" style="stop-color:#134763;stop-opacity:0"/>
	</linearGradient>
	<path id="XMLID_48_" class="st8" d="M229,468.2c0,0,0-1,0.2-2.7c0.1-0.9,0.2-1.9,0.4-3.1c0.2-1.2,0.5-2.5,0.9-3.9
		c0.4-1.4,0.9-2.9,1.4-4.6c0.3-0.8,0.6-1.6,0.9-2.4c0.3-0.8,0.7-1.7,1-2.5c0.4-0.8,0.8-1.7,1.2-2.5c0.2-0.4,0.4-0.9,0.6-1.3
		c0.2-0.4,0.5-0.8,0.7-1.3c0.5-0.8,1-1.7,1.5-2.5c0.5-0.8,1.1-1.6,1.6-2.5c0.6-0.8,1.1-1.6,1.7-2.4c0.6-0.8,1.2-1.5,1.8-2.3
		c1.2-1.6,2.5-2.9,3.8-4.3c1.2-1.4,2.6-2.5,3.9-3.6c0.7-0.5,1.3-1.1,1.9-1.6c0.7-0.5,1.3-0.9,1.9-1.3c1.2-0.8,2.3-1.6,3.4-2.2
		c1.1-0.6,2-1,2.8-1.4c0.8-0.4,1.4-0.7,1.8-0.9c0.4-0.2,0.6-0.3,0.6-0.3s-0.2,0.2-0.5,0.5c-0.3,0.3-0.7,0.9-1.3,1.5
		c-0.6,0.6-1.3,1.4-2.1,2.2c-0.8,0.9-1.6,1.9-2.6,2.9c-0.5,0.5-1,1.1-1.5,1.6c-0.5,0.6-1,1.2-1.5,1.8c-1,1.3-2.1,2.5-3.2,3.9
		c-0.5,0.7-1.1,1.4-1.6,2.1c-0.6,0.7-1.1,1.5-1.6,2.2c-0.5,0.7-1.1,1.5-1.6,2.2c-0.5,0.7-1,1.5-1.6,2.3c-0.5,0.8-1.1,1.5-1.6,2.3
		c-0.5,0.8-1,1.6-1.5,2.3c-1,1.5-1.9,3.1-2.8,4.6c-0.9,1.5-1.8,3-2.5,4.4c-0.8,1.4-1.6,2.8-2.2,4c-0.7,1.2-1.3,2.4-1.9,3.4
		c-0.5,1-1,1.9-1.4,2.7c-0.4,0.8-0.7,1.3-0.9,1.8C229.1,468,229,468.2,229,468.2z"/>
	
		<linearGradient id="XMLID_128_" gradientUnits="userSpaceOnUse" x1="271.4724" y1="450.1684" x2="325.9225" y2="343.6588" gradientTransform="matrix(0.9989 -4.584129e-02 4.584129e-02 0.9989 -23.217 24.0155)">
		<stop  offset="0" style="stop-color:#134763;stop-opacity:0.3"/>
		<stop  offset="0.9839" style="stop-color:#134763;stop-opacity:0"/>
	</linearGradient>
	<path id="XMLID_49_" class="st9" d="M250.7,501.8c0,0,0-1.3,0.1-3.4c0.1-1.1,0.2-2.4,0.4-3.9c0.1-0.8,0.2-1.6,0.4-2.4
		c0.1-0.8,0.3-1.7,0.5-2.6c0.4-1.9,0.9-3.8,1.4-5.9c0.3-1,0.6-2.1,1-3.2c0.3-1.1,0.7-2.2,1.1-3.3c0.8-2.2,1.7-4.5,2.7-6.7
		c0.5-1.1,1-2.3,1.6-3.4c0.6-1.1,1.2-2.2,1.7-3.3c1.1-2.2,2.5-4.4,3.8-6.5c0.3-0.5,0.6-1.1,1-1.6c0.4-0.5,0.7-1,1.1-1.5
		c0.7-1,1.4-2,2.1-2.9c0.3-0.5,0.7-0.9,1-1.4c0.4-0.4,0.7-0.9,1.1-1.3c0.7-0.9,1.4-1.7,2.1-2.6c0.7-0.8,1.3-1.6,2.1-2.4
		c0.7-0.7,1.4-1.4,2.1-2.1c1.3-1.3,2.5-2.6,3.7-3.5c1.2-1,2.2-1.8,3.1-2.5c0.8-0.7,1.5-1.2,2-1.6c0.5-0.3,0.7-0.5,0.7-0.5
		s-0.2,0.3-0.5,0.8c-0.3,0.5-0.8,1.2-1.4,2.1c-0.6,0.9-1.4,2-2.3,3.2c-0.5,0.6-0.9,1.3-1.3,2c-0.5,0.7-1,1.4-1.5,2.2
		c-1,1.5-2.2,3.1-3.3,4.9c-0.6,0.9-1.1,1.8-1.7,2.7c-0.3,0.5-0.6,0.9-0.9,1.4c-0.3,0.5-0.6,1-0.9,1.5c-1.1,2-2.4,3.9-3.6,6
		c-1.1,2.1-2.4,4.1-3.5,6.3c-0.6,1.1-1.1,2.1-1.7,3.2c-0.6,1.1-1.1,2.2-1.6,3.2c-0.5,1.1-1.1,2.1-1.6,3.2c-0.5,1.1-1,2.1-1.5,3.1
		c-0.5,1-0.9,2.1-1.4,3.1c-0.5,1-0.9,2-1.3,2.9c-0.8,1.9-1.6,3.7-2.3,5.4c-0.7,1.7-1.3,3.3-1.9,4.7c-0.6,1.4-1,2.6-1.4,3.6
		C251.2,500.6,250.7,501.8,250.7,501.8z"/>
	
		<linearGradient id="XMLID_129_" gradientUnits="userSpaceOnUse" x1="792.7184" y1="435.4873" x2="750.8849" y2="511.983" gradientTransform="matrix(0.9989 -4.584129e-02 4.584129e-02 0.9989 -23.217 24.0155)">
		<stop  offset="0" style="stop-color:#134763;stop-opacity:0.3"/>
		<stop  offset="0.9839" style="stop-color:#134763;stop-opacity:0"/>
	</linearGradient>
	<path id="XMLID_68_" class="st10" d="M809.4,376.6c0,0,0.1,0.6,0.1,1.7c0,1.1-0.1,2.5-0.3,4.3c-0.3,1.8-0.7,3.8-1.3,5.9
		c-0.3,1.1-0.7,2.1-1.1,3.2c-0.4,1.1-0.9,2.2-1.4,3.2c-1,2.1-2.2,4.2-3.5,6c-1.3,1.8-2.7,3.4-4.1,4.7c-0.7,0.6-1.4,1.1-2,1.6
		c-0.6,0.4-1.2,0.7-1.7,1c-0.5,0.2-0.9,0.4-1.2,0.5c-0.3,0.1-0.4,0.1-0.4,0.1s0.1-0.1,0.2-0.4c0.1-0.2,0.4-0.6,0.6-1
		c0.3-0.4,0.5-1,0.9-1.6c0.3-0.6,0.7-1.3,1-2.1c0.7-1.5,1.5-3.3,2.4-5.2c0.2-0.5,0.4-1,0.6-1.4c0.2-0.5,0.4-1,0.7-1.5
		c0.5-1,0.9-2,1.4-3c0.5-1,1-2,1.4-3c0.5-1,1-2,1.5-2.9c1-1.9,1.9-3.6,2.8-5.1c0.9-1.5,1.7-2.7,2.3-3.6
		C809,377,809.4,376.6,809.4,376.6z"/>
	
		<linearGradient id="XMLID_130_" gradientUnits="userSpaceOnUse" x1="769.2289" y1="410.0622" x2="704.2873" y2="505.6817" gradientTransform="matrix(0.9989 -4.584129e-02 4.584129e-02 0.9989 -23.217 24.0155)">
		<stop  offset="0" style="stop-color:#134763;stop-opacity:0.3"/>
		<stop  offset="0.9839" style="stop-color:#134763;stop-opacity:0"/>
	</linearGradient>
	<path id="XMLID_53_" class="st11" d="M794.9,344.8c0,0,0,1-0.2,2.7c-0.1,0.9-0.2,1.9-0.5,3.1c-0.2,1.2-0.5,2.5-0.9,3.9
		c-0.4,1.4-0.9,2.9-1.4,4.6c-0.3,0.8-0.6,1.6-0.9,2.4c-0.3,0.8-0.7,1.7-1,2.5c-0.4,0.8-0.8,1.7-1.2,2.5c-0.2,0.4-0.4,0.9-0.6,1.3
		c-0.2,0.4-0.5,0.8-0.7,1.3c-0.5,0.8-1,1.7-1.5,2.5c-0.5,0.8-1.1,1.6-1.6,2.5c-0.6,0.8-1.1,1.6-1.7,2.4c-0.6,0.8-1.2,1.5-1.8,2.3
		c-1.2,1.6-2.5,2.9-3.8,4.3c-1.2,1.4-2.6,2.5-3.9,3.6c-0.7,0.5-1.3,1.1-1.9,1.6c-0.7,0.5-1.3,0.9-1.9,1.3c-1.2,0.8-2.3,1.6-3.4,2.2
		c-1.1,0.6-2,1-2.8,1.4c-0.8,0.4-1.4,0.7-1.8,0.9c-0.4,0.2-0.6,0.3-0.6,0.3s0.2-0.2,0.5-0.5c0.3-0.3,0.7-0.9,1.3-1.5
		c0.6-0.6,1.3-1.4,2.1-2.2c0.8-0.9,1.6-1.9,2.6-2.9c0.5-0.5,1-1.1,1.5-1.6c0.5-0.6,1-1.2,1.5-1.8c1-1.3,2.1-2.5,3.2-3.9
		c0.5-0.7,1.1-1.4,1.6-2.1c0.6-0.7,1.1-1.5,1.6-2.2c0.5-0.7,1.1-1.5,1.6-2.2c0.5-0.7,1-1.5,1.6-2.3c0.5-0.8,1.1-1.5,1.6-2.3
		c0.5-0.8,1-1.6,1.5-2.3c1-1.5,1.9-3.1,2.8-4.6c0.9-1.5,1.8-3,2.5-4.4c0.8-1.4,1.6-2.8,2.2-4c0.7-1.2,1.3-2.4,1.9-3.4
		c0.5-1,1-1.9,1.4-2.7c0.4-0.8,0.7-1.3,0.9-1.8C794.8,345.1,794.9,344.8,794.9,344.8z"/>
	
		<linearGradient id="XMLID_131_" gradientUnits="userSpaceOnUse" x1="774.6464" y1="328.8901" x2="812.4958" y2="228.4896" gradientTransform="matrix(0.9989 -4.584129e-02 4.584129e-02 0.9989 -23.217 24.0155)">
		<stop  offset="0" style="stop-color:#134763;stop-opacity:0.3"/>
		<stop  offset="0.9839" style="stop-color:#134763;stop-opacity:0"/>
	</linearGradient>
	<path id="XMLID_50_" class="st12" d="M773.2,311.2c0,0,0,1.3-0.1,3.4c-0.1,1.1-0.2,2.4-0.4,3.9c-0.1,0.8-0.2,1.6-0.4,2.4
		c-0.1,0.8-0.3,1.7-0.5,2.6c-0.4,1.9-0.9,3.8-1.4,5.9c-0.3,1-0.6,2.1-1,3.2c-0.3,1.1-0.7,2.2-1.1,3.3c-0.8,2.2-1.7,4.5-2.7,6.7
		c-0.5,1.1-1,2.3-1.6,3.4c-0.6,1.1-1.2,2.2-1.7,3.3c-1.1,2.2-2.5,4.4-3.8,6.5c-0.3,0.5-0.6,1.1-1,1.6c-0.4,0.5-0.7,1-1.1,1.5
		c-0.7,1-1.4,2-2.1,2.9c-0.3,0.5-0.7,0.9-1,1.4c-0.4,0.4-0.7,0.9-1.1,1.3c-0.7,0.9-1.4,1.7-2.1,2.6c-0.7,0.8-1.3,1.6-2.1,2.4
		c-0.7,0.7-1.4,1.4-2.1,2.1c-1.3,1.3-2.5,2.6-3.7,3.5c-1.2,1-2.2,1.8-3.1,2.5c-0.8,0.7-1.5,1.2-2,1.6c-0.5,0.3-0.7,0.5-0.7,0.5
		s0.2-0.3,0.5-0.8c0.3-0.5,0.8-1.2,1.4-2.1c0.6-0.9,1.4-2,2.3-3.2c0.5-0.6,0.9-1.3,1.3-2c0.5-0.7,1-1.4,1.5-2.2
		c1-1.5,2.2-3.1,3.3-4.9c0.6-0.9,1.1-1.8,1.7-2.7c0.3-0.5,0.6-0.9,0.9-1.4c0.3-0.5,0.6-1,0.9-1.5c1.1-2,2.4-3.9,3.6-6
		c1.1-2.1,2.4-4.1,3.5-6.3c0.6-1.1,1.1-2.1,1.7-3.2c0.6-1.1,1.1-2.2,1.6-3.2c0.5-1.1,1.1-2.1,1.6-3.2c0.5-1.1,1-2.1,1.5-3.1
		c0.5-1,0.9-2.1,1.4-3.1c0.5-1,0.9-2,1.3-2.9c0.8-1.9,1.6-3.7,2.3-5.4c0.7-1.7,1.3-3.3,1.9-4.7c0.5-1.4,1-2.6,1.4-3.6
		C772.8,312.4,773.2,311.2,773.2,311.2z"/>
	<g>
		
			<linearGradient id="XMLID_132_" gradientUnits="userSpaceOnUse" x1="517.1152" y1="576.8452" x2="517.1152" y2="826.5121" gradientTransform="matrix(0.9989 -4.584129e-02 4.584129e-02 0.9989 -23.217 24.0155)">
			<stop  offset="0" style="stop-color:#00C9FF"/>
			<stop  offset="1" style="stop-color:#92FE9D"/>
		</linearGradient>
		<path id="XMLID_28_" class="st13" d="M676.7,632.1c-45.1,33.5-98.7,52.6-155.1,55.2c-55.3,2.5-109.6-11-157-39.3
			c-0.9-0.5-1.8-1.1-2.7-1.6l152.7,238.3L683.3,627C681.1,628.7,678.9,630.4,676.7,632.1z"/>
		
			<linearGradient id="XMLID_133_" gradientUnits="userSpaceOnUse" x1="557.2709" y1="712.1781" x2="553.5524" y2="843.9207" gradientTransform="matrix(0.9989 -4.584129e-02 4.584129e-02 0.9989 -23.217 24.0155)">
			<stop  offset="0" style="stop-color:#00C9FF"/>
			<stop  offset="1" style="stop-color:#92FE9D"/>
		</linearGradient>
		<path id="XMLID_30_" class="st14" d="M448.8,782.1l65.8,102.6L683.3,627C683.3,627,596.8,757,448.8,782.1z"/>
	</g>
	<path class="st15" d="M521.9,393.1l-1.7-37.9c8,1.4,15,4.8,19.9,9.1c3.3,2.8,6.3,4.3,9.2,4.2c6.3-0.3,11-5.5,10.8-11.6
		c-0.1-2.5-1.1-4.8-2.4-6.6c-7.6-9.7-21.6-15.7-38.4-17.1l-0.3-6.1l-0.3-6c-0.2-5.4-4.8-9.6-10.3-9.4c-5.2,0.2-9.4,4.8-9.2,10.2
		l0.3,6l0.3,5.9c-26.6,4.1-37.5,20.8-36.7,39.3c1.2,25.3,20.8,33.4,40.3,39.2l2,43.9c-10-1.9-18.3-7.2-25.3-13.6
		c-2.2-2-4.8-4.4-9.4-4.2c-6.1,0.3-10.8,5.5-10.5,11.8c0.1,2.1,0.8,4.1,1.9,5.8c7.6,11.2,24,21.3,44.3,22.9l0.1,2.5l0.4,9.2
		c0.2,5.4,4.8,9.6,10.1,9.4c5.4-0.2,9.6-4.8,9.4-10.3l-0.4-9.2l-0.1-2.5c27.8-4,41.8-19.7,40.7-42.7
		C565.3,407.2,542.7,399,521.9,393.1z M487.3,372.1c-0.3-6.6,3.4-13.2,13.5-16.1l1.4,31.1C493.7,383.9,487.7,379.6,487.3,372.1z
		 M524.8,455.8l-1.7-37.6c10.8,3.7,18.8,8.6,19.2,18.3C542.8,447,537.1,453.3,524.8,455.8z"/>
</g>
</svg>
