<?xml version="1.0" encoding="utf-8"?>
<!-- Generator: Adobe Illustrator 20.1.0, SVG Export Plug-In . SVG Version: 6.00 Build 0)  -->
<svg version="1.1" id="Layer_1" xmlns="http://www.w3.org/2000/svg" xmlns:xlink="http://www.w3.org/1999/xlink" x="0px" y="0px"
	 viewBox="0 0 120 120" style="enable-background:new 0 0 120 120;" xml:space="preserve">
<style type="text/css">
	.st0{fill:url(#SVGID_1_);}
	.st1{fill:url(#SVGID_2_);}
	.st2{fill:url(#SVGID_3_);}
	.st3{fill:url(#XMLID_122_);}
	.st4{fill:url(#XMLID_123_);}
	.st5{fill:url(#XMLID_124_);}
	.st6{fill:url(#XMLID_125_);}
	.st7{fill:url(#XMLID_126_);}
	.st8{fill:url(#XMLID_127_);}
	.st9{fill:url(#XMLID_128_);}
	.st10{fill:url(#XMLID_129_);}
	.st11{fill:url(#XMLID_130_);}
	.st12{fill:url(#XMLID_131_);}
	.st13{fill:url(#XMLID_132_);}
	.st14{fill:url(#XMLID_133_);}
	.st15{fill:#F49C3B;}
	.st16{fill:url(#SVGID_4_);}
	.st17{fill:url(#SVGID_5_);}
	.st18{fill:url(#SVGID_6_);}
	.st19{fill:url(#XMLID_134_);}
	.st20{fill:url(#XMLID_135_);}
	.st21{fill:url(#XMLID_136_);}
	.st22{fill:url(#XMLID_137_);}
	.st23{fill:url(#XMLID_138_);}
	.st24{fill:url(#XMLID_139_);}
	.st25{fill:url(#XMLID_140_);}
	.st26{fill:url(#XMLID_141_);}
	.st27{fill:url(#XMLID_142_);}
	.st28{fill:url(#XMLID_143_);}
	.st29{fill:url(#XMLID_144_);}
	.st30{fill:url(#XMLID_145_);}
	.st31{fill:url(#SVGID_7_);}
	.st32{fill:url(#SVGID_8_);}
	.st33{fill:url(#SVGID_9_);}
	.st34{fill:url(#XMLID_146_);}
	.st35{fill:url(#XMLID_147_);}
	.st36{fill:url(#XMLID_148_);}
	.st37{fill:url(#XMLID_149_);}
	.st38{fill:url(#XMLID_150_);}
	.st39{fill:url(#XMLID_151_);}
	.st40{fill:url(#XMLID_152_);}
	.st41{fill:url(#XMLID_153_);}
	.st42{fill:url(#XMLID_154_);}
	.st43{fill:url(#XMLID_155_);}
	.st44{fill:url(#XMLID_156_);}
	.st45{fill:url(#XMLID_157_);}
	.st46{fill:url(#SVGID_10_);}
	.st47{fill:url(#SVGID_11_);}
	.st48{fill:url(#SVGID_12_);}
	.st49{fill:url(#XMLID_158_);}
	.st50{fill:url(#XMLID_159_);}
	.st51{fill:url(#XMLID_160_);}
	.st52{fill:url(#XMLID_161_);}
	.st53{fill:url(#XMLID_162_);}
	.st54{fill:url(#XMLID_163_);}
	.st55{fill:url(#XMLID_164_);}
	.st56{fill:url(#XMLID_165_);}
	.st57{fill:url(#XMLID_166_);}
	.st58{fill:url(#XMLID_167_);}
	.st59{fill:url(#XMLID_168_);}
	.st60{fill:url(#XMLID_169_);}
	.st61{fill:url(#SVGID_13_);}
	.st62{fill:url(#SVGID_14_);}
	.st63{fill:url(#SVGID_15_);}
	.st64{fill:url(#XMLID_170_);}
	.st65{fill:url(#XMLID_171_);}
	.st66{fill:url(#XMLID_172_);}
	.st67{fill:url(#XMLID_173_);}
	.st68{fill:url(#XMLID_174_);}
	.st69{fill:url(#XMLID_175_);}
	.st70{fill:url(#XMLID_176_);}
	.st71{fill:url(#XMLID_177_);}
	.st72{fill:url(#XMLID_178_);}
	.st73{fill:url(#XMLID_179_);}
	.st74{fill:url(#XMLID_180_);}
	.st75{fill:url(#XMLID_181_);}
	.st76{fill:url(#SVGID_16_);}
	.st77{fill:url(#SVGID_17_);}
	.st78{fill:url(#SVGID_18_);}
	.st79{fill:url(#XMLID_182_);}
	.st80{fill:url(#XMLID_183_);}
	.st81{fill:url(#XMLID_184_);}
	.st82{fill:url(#XMLID_185_);}
	.st83{fill:url(#XMLID_186_);}
	.st84{fill:url(#XMLID_187_);}
	.st85{fill:url(#XMLID_188_);}
	.st86{fill:url(#XMLID_189_);}
	.st87{fill:url(#XMLID_190_);}
	.st88{fill:url(#XMLID_191_);}
	.st89{fill:url(#XMLID_192_);}
	.st90{fill:url(#XMLID_193_);}
	.st91{fill:url(#SVGID_19_);}
	.st92{fill:url(#SVGID_20_);}
	.st93{fill:url(#SVGID_21_);}
	.st94{fill:url(#XMLID_194_);}
	.st95{fill:url(#XMLID_195_);}
	.st96{fill:url(#XMLID_196_);}
	.st97{fill:url(#XMLID_197_);}
	.st98{fill:url(#XMLID_198_);}
	.st99{fill:url(#XMLID_199_);}
	.st100{fill:url(#XMLID_200_);}
	.st101{fill:url(#XMLID_201_);}
	.st102{fill:url(#XMLID_202_);}
	.st103{fill:url(#XMLID_203_);}
	.st104{fill:url(#XMLID_204_);}
	.st105{fill:url(#XMLID_205_);}
	.st106{fill:url(#SVGID_22_);}
	.st107{fill:url(#SVGID_23_);}
	.st108{fill:url(#SVGID_24_);}
	.st109{fill:url(#XMLID_206_);}
	.st110{fill:url(#XMLID_207_);}
	.st111{fill:url(#XMLID_208_);}
	.st112{fill:url(#XMLID_209_);}
	.st113{fill:url(#XMLID_210_);}
	.st114{fill:url(#XMLID_211_);}
	.st115{fill:url(#XMLID_212_);}
	.st116{fill:url(#XMLID_213_);}
	.st117{fill:url(#XMLID_214_);}
	.st118{fill:url(#XMLID_215_);}
	.st119{fill:url(#XMLID_216_);}
	.st120{fill:url(#XMLID_217_);}
	.st121{fill:url(#SVGID_25_);}
	.st122{fill:url(#SVGID_26_);}
	.st123{fill:url(#SVGID_27_);}
	.st124{fill:url(#XMLID_218_);}
	.st125{fill:url(#XMLID_219_);}
	.st126{fill:url(#XMLID_220_);}
	.st127{fill:url(#XMLID_221_);}
	.st128{fill:url(#XMLID_222_);}
	.st129{fill:url(#XMLID_223_);}
	.st130{fill:url(#XMLID_224_);}
	.st131{fill:url(#XMLID_225_);}
	.st132{fill:url(#XMLID_226_);}
	.st133{fill:url(#XMLID_227_);}
	.st134{fill:url(#XMLID_228_);}
	.st135{fill:url(#XMLID_229_);}
	.st136{fill:url(#SVGID_28_);}
	.st137{fill:url(#SVGID_29_);}
	.st138{fill:url(#SVGID_30_);}
	.st139{fill:url(#XMLID_230_);}
	.st140{fill:url(#XMLID_231_);}
	.st141{fill:url(#XMLID_232_);}
	.st142{fill:url(#XMLID_233_);}
	.st143{fill:url(#XMLID_234_);}
	.st144{fill:url(#XMLID_235_);}
	.st145{fill:url(#XMLID_236_);}
	.st146{fill:url(#XMLID_237_);}
	.st147{fill:url(#XMLID_238_);}
	.st148{fill:url(#XMLID_239_);}
	.st149{fill:url(#XMLID_240_);}
	.st150{fill:url(#XMLID_241_);}
</style>
<linearGradient id="SVGID_1_" gradientUnits="userSpaceOnUse" x1="0.8424" y1="119.3321" x2="120.034" y2="-0.2111">
	<stop  offset="0" style="stop-color:#F1F2F2"/>
	<stop  offset="1" style="stop-color:#FFFFFF"/>
</linearGradient>
<rect class="st0" width="120" height="120"/>
<g>
	
		<linearGradient id="SVGID_2_" gradientUnits="userSpaceOnUse" x1="60.1843" y1="98.7724" x2="100.6488" y2="98.7724" gradientTransform="matrix(0.9989 -4.584129e-02 4.584129e-02 0.9989 -24.8464 -47.0385)">
		<stop  offset="0" style="stop-color:#FBB040"/>
		<stop  offset="1" style="stop-color:#F7941D"/>
	</linearGradient>
	<circle class="st1" cx="60" cy="47.9" r="20.2"/>
	
		<linearGradient id="SVGID_3_" gradientUnits="userSpaceOnUse" x1="62.0117" y1="98.7724" x2="98.8214" y2="98.7724" gradientTransform="matrix(0.9989 -4.584129e-02 4.584129e-02 0.9989 -24.8464 -47.0385)">
		<stop  offset="0" style="stop-color:#F9ED32"/>
		<stop  offset="1" style="stop-color:#EFB25E"/>
	</linearGradient>
	<circle class="st2" cx="60" cy="47.9" r="18.4"/>
	
		<linearGradient id="XMLID_122_" gradientUnits="userSpaceOnUse" x1="116.402" y1="105.5271" x2="59.8146" y2="86.2911" gradientTransform="matrix(0.9989 -4.584129e-02 4.584129e-02 0.9989 -24.8464 -47.0385)">
		<stop  offset="0" style="stop-color:#00C9FF"/>
		<stop  offset="1" style="stop-color:#92FE9D"/>
	</linearGradient>
	<path id="XMLID_108_" class="st3" d="M58.6,16.4c-13,0.6-23.8,9-28.1,20.5l0,0c0,0-5.3,3.8-5.7,7.6c-0.4,3.8,0.3,6.7,0.3,6.7
		s-0.5,2.5,1.7,3.7c0,0-1.3,2.8,2.5,3.9c0,0,0.3,4.7,4,2.2c1-1.2,0-2.4,1.4-4.5c1.4-2.1,3.8-7.3,6-5c0,0,0.2,1.5,1.1,3.6
		c0,0,4.4-2.1,3.5-6.6c-0.9-4.5-4.8-8.4,1-15c3.3-3.2,7.8-5.2,12.7-5.5c10.1-0.5,18.8,6.8,20.3,16.6l11.8-0.5
		C89.5,27.9,75.2,15.6,58.6,16.4z"/>
	
		<linearGradient id="XMLID_123_" gradientUnits="userSpaceOnUse" x1="100.098" y1="100.0954" x2="107.8951" y2="81.8399" gradientTransform="matrix(0.9989 -4.584129e-02 4.584129e-02 0.9989 -24.8464 -47.0385)">
		<stop  offset="0" style="stop-color:#134763;stop-opacity:0.3"/>
		<stop  offset="0.9839" style="stop-color:#134763;stop-opacity:0"/>
	</linearGradient>
	<path id="XMLID_107_" class="st4" d="M79,42.6c0.1,0.5,0.2,0.9,0.2,1c0,0,0,0,0,0c2.2,2.4,4.7-2.9,6-5c1.4-2.1,2.4-5,2.9-5.1
		c-0.4-0.8-0.8-1.5-1.2-2.2c0,0-1,0.9-1.5,3.2C84.9,36.9,82.1,42.9,79,42.6z"/>
	
		<linearGradient id="XMLID_124_" gradientUnits="userSpaceOnUse" x1="54.8681" y1="89.0522" x2="90.5387" y2="107.3544" gradientTransform="matrix(0.9989 -4.584129e-02 4.584129e-02 0.9989 -24.8464 -47.0385)">
		<stop  offset="0" style="stop-color:#00C9FF"/>
		<stop  offset="1" style="stop-color:#92FE9D"/>
	</linearGradient>
	<path id="XMLID_106_" class="st5" d="M94.9,44.2c0,0,0.5-2.5-1.7-3.7c0,0,1.3-2.8-2.5-3.9c0,0-0.2-3.3-2.5-2.9
		c-1.1,0.2-1.9,1.2-2,2.3c0,0.8-0.1,1.6-0.8,2.8c-1.4,2.1-3.8,7.3-6,5c0,0-0.2-1.5-1.1-3.6c0,0-4.4,2.1-3.5,6.6
		c0.9,4.5,4.8,8.4-1,15c-3.3,3.2-7.8,5.2-12.7,5.5c-8.4,0.4-15.8-4.6-19-11.9c0,0,0,0,0,0c-0.9-2-1.1-3.5-1.1-3.6c0,0,0,0,0,0
		c-2.2-2.4-4.6,2.9-6,5c-1.4,2.1-0.4,3.2-1.4,4.5c-0.6,0.4-1.1,0.6-1.5,0.7c5.4,10.7,16.8,17.8,29.5,17.2c13-0.6,23.8-9,28.1-20.5
		l0,0c0,0,5.3-3.8,5.7-7.6C95.5,47.1,94.9,44.2,94.9,44.2z"/>
	
		<linearGradient id="XMLID_125_" gradientUnits="userSpaceOnUse" x1="57.2678" y1="104.2472" x2="54.84" y2="112.0599" gradientTransform="matrix(0.9989 -4.584129e-02 4.584129e-02 0.9989 -24.8464 -47.0385)">
		<stop  offset="0" style="stop-color:#134763;stop-opacity:0.3"/>
		<stop  offset="0.9839" style="stop-color:#134763;stop-opacity:0"/>
	</linearGradient>
	<path id="XMLID_105_" class="st6" d="M41,52.7c-0.1-0.5-0.2-0.9-0.2-1c0,0,0,0,0,0c-2.2-2.4-4.7,2.9-6,5c-1.4,2.1-0.4,3.2-1.4,4.5
		c-0.6,0.4-1.1,0.6-1.5,0.7c0.4,0.8,0.8,1.5,1.2,2.2c0,0,1-0.9,1.5-3.2C35.1,58.4,37.9,52.4,41,52.7z"/>
	
		<linearGradient id="XMLID_126_" gradientUnits="userSpaceOnUse" x1="46.921" y1="98.9559" x2="50.7807" y2="91.2989" gradientTransform="matrix(0.9989 -4.584129e-02 4.584129e-02 0.9989 -24.8464 -47.0385)">
		<stop  offset="0" style="stop-color:#134763;stop-opacity:0.3"/>
		<stop  offset="0.9839" style="stop-color:#134763;stop-opacity:0"/>
	</linearGradient>
	<path id="XMLID_104_" class="st7" d="M26,51.1c0,0,0-0.1,0-0.2c0-0.1,0-0.3,0-0.5c0-0.2,0.1-0.4,0.2-0.7c0-0.1,0.1-0.3,0.1-0.4
		c0-0.1,0.1-0.3,0.2-0.4c0.1-0.2,0.3-0.5,0.4-0.7c0.2-0.2,0.3-0.4,0.5-0.5c0.1-0.1,0.2-0.1,0.2-0.2c0.1,0,0.1-0.1,0.2-0.1
		c0.1,0,0.1,0,0.1-0.1c0,0,0,0,0,0s0,0,0,0c0,0,0,0.1-0.1,0.1c0,0.1-0.1,0.1-0.1,0.2c0,0.1-0.1,0.2-0.1,0.2
		c-0.1,0.2-0.2,0.4-0.3,0.6c0,0.1,0,0.1-0.1,0.2c0,0.1-0.1,0.1-0.1,0.2c-0.1,0.1-0.1,0.2-0.2,0.4c-0.1,0.1-0.1,0.2-0.2,0.4
		c-0.1,0.1-0.1,0.2-0.2,0.3c-0.1,0.2-0.2,0.4-0.3,0.6c-0.1,0.2-0.2,0.3-0.3,0.4C26.1,51.1,26,51.1,26,51.1z"/>
	
		<linearGradient id="XMLID_127_" gradientUnits="userSpaceOnUse" x1="48.4531" y1="101.9686" x2="52.5306" y2="94.7162" gradientTransform="matrix(0.9989 -4.584129e-02 4.584129e-02 0.9989 -24.8464 -47.0385)">
		<stop  offset="0" style="stop-color:#134763;stop-opacity:0.3"/>
		<stop  offset="0.9839" style="stop-color:#134763;stop-opacity:0"/>
	</linearGradient>
	<path id="XMLID_103_" class="st8" d="M26.8,54.9c0,0,0-0.1,0-0.3c0-0.1,0-0.2,0.1-0.4c0-0.1,0.1-0.3,0.1-0.5c0-0.2,0.1-0.3,0.2-0.5
		c0-0.1,0.1-0.2,0.1-0.3c0-0.1,0.1-0.2,0.1-0.3c0-0.1,0.1-0.2,0.1-0.3c0-0.1,0-0.1,0.1-0.2c0,0,0.1-0.1,0.1-0.1
		c0.1-0.1,0.1-0.2,0.2-0.3c0.1-0.1,0.1-0.2,0.2-0.3c0.1-0.1,0.1-0.2,0.2-0.3c0.1-0.1,0.1-0.2,0.2-0.3c0.1-0.2,0.3-0.3,0.4-0.5
		c0.1-0.2,0.3-0.3,0.5-0.4c0.1-0.1,0.1-0.1,0.2-0.2c0.1-0.1,0.2-0.1,0.2-0.2c0.1-0.1,0.3-0.2,0.4-0.3c0.1-0.1,0.2-0.1,0.3-0.2
		c0.1,0,0.2-0.1,0.2-0.1c0,0,0.1,0,0.1,0s0,0-0.1,0.1c0,0-0.1,0.1-0.2,0.2c-0.1,0.1-0.1,0.2-0.2,0.3c-0.1,0.1-0.2,0.2-0.3,0.3
		C30,50,30,50,29.9,50.1c-0.1,0.1-0.1,0.1-0.2,0.2c-0.1,0.1-0.3,0.3-0.4,0.5c-0.1,0.1-0.1,0.2-0.2,0.2c-0.1,0.1-0.1,0.2-0.2,0.3
		c-0.1,0.1-0.1,0.2-0.2,0.3c-0.1,0.1-0.1,0.2-0.2,0.3c-0.1,0.1-0.1,0.2-0.2,0.3c-0.1,0.1-0.1,0.2-0.2,0.3c-0.1,0.2-0.2,0.4-0.3,0.5
		c-0.1,0.2-0.2,0.3-0.3,0.5c-0.1,0.2-0.2,0.3-0.3,0.5c-0.1,0.1-0.2,0.3-0.2,0.4c-0.1,0.1-0.1,0.2-0.2,0.3
		C26.9,54.7,26.9,54.7,26.8,54.9C26.9,54.8,26.8,54.9,26.8,54.9z"/>
	
		<linearGradient id="XMLID_128_" gradientUnits="userSpaceOnUse" x1="51.6303" y1="103.5688" x2="58.0112" y2="91.0872" gradientTransform="matrix(0.9989 -4.584129e-02 4.584129e-02 0.9989 -24.8464 -47.0385)">
		<stop  offset="0" style="stop-color:#134763;stop-opacity:0.3"/>
		<stop  offset="0.9839" style="stop-color:#134763;stop-opacity:0"/>
	</linearGradient>
	<path id="XMLID_102_" class="st9" d="M29.4,58.8c0,0,0-0.1,0-0.4c0-0.1,0-0.3,0.1-0.5c0-0.1,0-0.2,0-0.3c0-0.1,0-0.2,0.1-0.3
		c0-0.2,0.1-0.4,0.2-0.7c0-0.1,0.1-0.2,0.1-0.4c0-0.1,0.1-0.3,0.1-0.4c0.1-0.3,0.2-0.5,0.3-0.8c0.1-0.1,0.1-0.3,0.2-0.4
		c0.1-0.1,0.1-0.3,0.2-0.4c0.1-0.3,0.3-0.5,0.4-0.8c0-0.1,0.1-0.1,0.1-0.2c0-0.1,0.1-0.1,0.1-0.2c0.1-0.1,0.2-0.2,0.2-0.3
		c0-0.1,0.1-0.1,0.1-0.2c0-0.1,0.1-0.1,0.1-0.2c0.1-0.1,0.2-0.2,0.2-0.3c0.1-0.1,0.2-0.2,0.2-0.3c0.1-0.1,0.2-0.2,0.2-0.2
		c0.2-0.2,0.3-0.3,0.4-0.4c0.1-0.1,0.3-0.2,0.4-0.3c0.1-0.1,0.2-0.1,0.2-0.2c0.1,0,0.1-0.1,0.1-0.1s0,0-0.1,0.1
		c0,0.1-0.1,0.1-0.2,0.2c-0.1,0.1-0.2,0.2-0.3,0.4c-0.1,0.1-0.1,0.1-0.2,0.2c-0.1,0.1-0.1,0.2-0.2,0.3c-0.1,0.2-0.3,0.4-0.4,0.6
		c-0.1,0.1-0.1,0.2-0.2,0.3c0,0.1-0.1,0.1-0.1,0.2c0,0.1-0.1,0.1-0.1,0.2c-0.1,0.2-0.3,0.5-0.4,0.7c-0.1,0.2-0.3,0.5-0.4,0.7
		c-0.1,0.1-0.1,0.3-0.2,0.4c-0.1,0.1-0.1,0.3-0.2,0.4c-0.1,0.1-0.1,0.2-0.2,0.4c-0.1,0.1-0.1,0.2-0.2,0.4c-0.1,0.1-0.1,0.2-0.2,0.4
		c-0.1,0.1-0.1,0.2-0.2,0.3c-0.1,0.2-0.2,0.4-0.3,0.6c-0.1,0.2-0.2,0.4-0.2,0.5c-0.1,0.2-0.1,0.3-0.2,0.4
		C29.4,58.7,29.4,58.8,29.4,58.8z"/>
	
		<linearGradient id="XMLID_129_" gradientUnits="userSpaceOnUse" x1="112.7138" y1="101.8483" x2="107.8115" y2="110.8127" gradientTransform="matrix(0.9989 -4.584129e-02 4.584129e-02 0.9989 -24.8464 -47.0385)">
		<stop  offset="0" style="stop-color:#134763;stop-opacity:0.3"/>
		<stop  offset="0.9839" style="stop-color:#134763;stop-opacity:0"/>
	</linearGradient>
	<path id="XMLID_101_" class="st10" d="M94.8,44.1c0,0,0,0.1,0,0.2c0,0.1,0,0.3,0,0.5c0,0.2-0.1,0.4-0.2,0.7c0,0.1-0.1,0.3-0.1,0.4
		c0,0.1-0.1,0.3-0.2,0.4c-0.1,0.2-0.3,0.5-0.4,0.7c-0.2,0.2-0.3,0.4-0.5,0.5c-0.1,0.1-0.2,0.1-0.2,0.2c-0.1,0-0.1,0.1-0.2,0.1
		c-0.1,0-0.1,0-0.1,0.1c0,0,0,0,0,0s0,0,0,0c0,0,0-0.1,0.1-0.1c0-0.1,0.1-0.1,0.1-0.2c0-0.1,0.1-0.2,0.1-0.2
		c0.1-0.2,0.2-0.4,0.3-0.6c0-0.1,0-0.1,0.1-0.2c0-0.1,0.1-0.1,0.1-0.2c0.1-0.1,0.1-0.2,0.2-0.4c0.1-0.1,0.1-0.2,0.2-0.4
		c0.1-0.1,0.1-0.2,0.2-0.3c0.1-0.2,0.2-0.4,0.3-0.6c0.1-0.2,0.2-0.3,0.3-0.4C94.8,44.2,94.8,44.1,94.8,44.1z"/>
	
		<linearGradient id="XMLID_130_" gradientUnits="userSpaceOnUse" x1="109.9611" y1="98.8688" x2="102.3508" y2="110.0742" gradientTransform="matrix(0.9989 -4.584129e-02 4.584129e-02 0.9989 -24.8464 -47.0385)">
		<stop  offset="0" style="stop-color:#134763;stop-opacity:0.3"/>
		<stop  offset="0.9839" style="stop-color:#134763;stop-opacity:0"/>
	</linearGradient>
	<path id="XMLID_100_" class="st11" d="M93.2,40.4c0,0,0,0.1,0,0.3c0,0.1,0,0.2-0.1,0.4c0,0.1-0.1,0.3-0.1,0.5
		c0,0.2-0.1,0.3-0.2,0.5c0,0.1-0.1,0.2-0.1,0.3c0,0.1-0.1,0.2-0.1,0.3c0,0.1-0.1,0.2-0.1,0.3c0,0.1,0,0.1-0.1,0.2
		c0,0-0.1,0.1-0.1,0.1c-0.1,0.1-0.1,0.2-0.2,0.3c-0.1,0.1-0.1,0.2-0.2,0.3c-0.1,0.1-0.1,0.2-0.2,0.3c-0.1,0.1-0.1,0.2-0.2,0.3
		c-0.1,0.2-0.3,0.3-0.4,0.5c-0.1,0.2-0.3,0.3-0.5,0.4c-0.1,0.1-0.1,0.1-0.2,0.2c-0.1,0.1-0.2,0.1-0.2,0.2c-0.1,0.1-0.3,0.2-0.4,0.3
		c-0.1,0.1-0.2,0.1-0.3,0.2c-0.1,0-0.2,0.1-0.2,0.1c0,0-0.1,0-0.1,0s0,0,0.1-0.1c0,0,0.1-0.1,0.2-0.2c0.1-0.1,0.1-0.2,0.2-0.3
		c0.1-0.1,0.2-0.2,0.3-0.3c0.1-0.1,0.1-0.1,0.2-0.2c0.1-0.1,0.1-0.1,0.2-0.2c0.1-0.1,0.3-0.3,0.4-0.5c0.1-0.1,0.1-0.2,0.2-0.2
		c0.1-0.1,0.1-0.2,0.2-0.3c0.1-0.1,0.1-0.2,0.2-0.3c0.1-0.1,0.1-0.2,0.2-0.3c0.1-0.1,0.1-0.2,0.2-0.3c0.1-0.1,0.1-0.2,0.2-0.3
		c0.1-0.2,0.2-0.4,0.3-0.5c0.1-0.2,0.2-0.3,0.3-0.5c0.1-0.2,0.2-0.3,0.3-0.5c0.1-0.1,0.2-0.3,0.2-0.4c0.1-0.1,0.1-0.2,0.2-0.3
		C93.1,40.6,93.1,40.5,93.2,40.4C93.1,40.4,93.2,40.4,93.2,40.4z"/>
	
		<linearGradient id="XMLID_131_" gradientUnits="userSpaceOnUse" x1="110.596" y1="89.3565" x2="115.0315" y2="77.5908" gradientTransform="matrix(0.9989 -4.584129e-02 4.584129e-02 0.9989 -24.8464 -47.0385)">
		<stop  offset="0" style="stop-color:#134763;stop-opacity:0.3"/>
		<stop  offset="0.9839" style="stop-color:#134763;stop-opacity:0"/>
	</linearGradient>
	<path id="XMLID_99_" class="st12" d="M90.6,36.5c0,0,0,0.1,0,0.4c0,0.1,0,0.3-0.1,0.5c0,0.1,0,0.2,0,0.3c0,0.1,0,0.2-0.1,0.3
		c0,0.2-0.1,0.4-0.2,0.7c0,0.1-0.1,0.2-0.1,0.4c0,0.1-0.1,0.3-0.1,0.4c-0.1,0.3-0.2,0.5-0.3,0.8c-0.1,0.1-0.1,0.3-0.2,0.4
		c-0.1,0.1-0.1,0.3-0.2,0.4c-0.1,0.3-0.3,0.5-0.4,0.8c0,0.1-0.1,0.1-0.1,0.2c0,0.1-0.1,0.1-0.1,0.2c-0.1,0.1-0.2,0.2-0.2,0.3
		c0,0.1-0.1,0.1-0.1,0.2c0,0.1-0.1,0.1-0.1,0.2c-0.1,0.1-0.2,0.2-0.2,0.3c-0.1,0.1-0.2,0.2-0.2,0.3c-0.1,0.1-0.2,0.2-0.2,0.2
		c-0.2,0.2-0.3,0.3-0.4,0.4c-0.1,0.1-0.3,0.2-0.4,0.3c-0.1,0.1-0.2,0.1-0.2,0.2c-0.1,0-0.1,0.1-0.1,0.1s0,0,0.1-0.1
		c0-0.1,0.1-0.1,0.2-0.2c0.1-0.1,0.2-0.2,0.3-0.4c0.1-0.1,0.1-0.1,0.2-0.2c0.1-0.1,0.1-0.2,0.2-0.3c0.1-0.2,0.3-0.4,0.4-0.6
		c0.1-0.1,0.1-0.2,0.2-0.3c0-0.1,0.1-0.1,0.1-0.2c0-0.1,0.1-0.1,0.1-0.2c0.1-0.2,0.3-0.5,0.4-0.7c0.1-0.2,0.3-0.5,0.4-0.7
		c0.1-0.1,0.1-0.3,0.2-0.4c0.1-0.1,0.1-0.3,0.2-0.4c0.1-0.1,0.1-0.2,0.2-0.4c0.1-0.1,0.1-0.2,0.2-0.4c0.1-0.1,0.1-0.2,0.2-0.4
		c0.1-0.1,0.1-0.2,0.2-0.3c0.1-0.2,0.2-0.4,0.3-0.6c0.1-0.2,0.2-0.4,0.2-0.5c0.1-0.2,0.1-0.3,0.2-0.4C90.6,36.6,90.6,36.5,90.6,36.5
		z"/>
	<g>
		
			<linearGradient id="XMLID_132_" gradientUnits="userSpaceOnUse" x1="80.4166" y1="118.4137" x2="80.4166" y2="147.6716" gradientTransform="matrix(0.9989 -4.584129e-02 4.584129e-02 0.9989 -24.8464 -47.0385)">
			<stop  offset="0" style="stop-color:#00C9FF"/>
			<stop  offset="1" style="stop-color:#92FE9D"/>
		</linearGradient>
		<path id="XMLID_98_" class="st13" d="M79.3,74.1C74,78,67.7,80.2,61.1,80.5c-6.5,0.3-12.8-1.3-18.4-4.6c-0.1-0.1-0.2-0.1-0.3-0.2
			l17.9,27.9l19.8-30.2C79.8,73.7,79.6,73.9,79.3,74.1z"/>
		
			<linearGradient id="XMLID_133_" gradientUnits="userSpaceOnUse" x1="85.1223" y1="134.273" x2="84.6865" y2="149.7116" gradientTransform="matrix(0.9989 -4.584129e-02 4.584129e-02 0.9989 -24.8464 -47.0385)">
			<stop  offset="0" style="stop-color:#00C9FF"/>
			<stop  offset="1" style="stop-color:#92FE9D"/>
		</linearGradient>
		<path id="XMLID_97_" class="st14" d="M52.6,91.6l7.7,12l19.8-30.2C80.1,73.5,69.9,88.7,52.6,91.6z"/>
	</g>
	<path class="st15" d="M61.2,46.1L61,41.6c0.9,0.2,1.8,0.6,2.3,1.1c0.4,0.3,0.7,0.5,1.1,0.5c0.7,0,1.3-0.6,1.3-1.4
		c0-0.3-0.1-0.6-0.3-0.8c-0.9-1.1-2.5-1.8-4.5-2l0-0.7l0-0.7c0-0.6-0.6-1.1-1.2-1.1c-0.6,0-1.1,0.6-1.1,1.2l0,0.7l0,0.7
		c-3.1,0.5-4.4,2.4-4.3,4.6c0.1,3,2.4,3.9,4.7,4.6l0.2,5.1c-1.2-0.2-2.1-0.8-3-1.6c-0.3-0.2-0.6-0.5-1.1-0.5c-0.7,0-1.3,0.6-1.2,1.4
		c0,0.2,0.1,0.5,0.2,0.7c0.9,1.3,2.8,2.5,5.2,2.7l0,0.3l0,1.1c0,0.6,0.6,1.1,1.2,1.1c0.6,0,1.1-0.6,1.1-1.2l0-1.1l0-0.3
		c3.3-0.5,4.9-2.3,4.8-5C66.2,47.7,63.6,46.8,61.2,46.1z M57.1,43.6c0-0.8,0.4-1.5,1.6-1.9l0.2,3.6C57.9,45,57.1,44.5,57.1,43.6z
		 M61.5,53.4L61.3,49c1.3,0.4,2.2,1,2.3,2.1C63.6,52.4,62.9,53.1,61.5,53.4z"/>
</g>
</svg>
