<?xml version="1.0" encoding="utf-8"?>
<!-- Generator: Adobe Illustrator 20.1.0, SVG Export Plug-In . SVG Version: 6.00 Build 0)  -->
<svg version="1.1" id="Layer_1" xmlns="http://www.w3.org/2000/svg" xmlns:xlink="http://www.w3.org/1999/xlink" x="0px" y="0px"
	 viewBox="0 0 40 40" style="enable-background:new 0 0 40 40;" xml:space="preserve">
<style type="text/css">
	.st0{fill:url(#SVGID_1_);}
	.st1{fill:url(#SVGID_2_);}
	.st2{fill:url(#SVGID_3_);}
	.st3{fill:url(#XMLID_122_);}
	.st4{fill:url(#XMLID_123_);}
	.st5{fill:url(#XMLID_124_);}
	.st6{fill:url(#XMLID_125_);}
	.st7{fill:url(#XMLID_126_);}
	.st8{fill:url(#XMLID_127_);}
	.st9{fill:url(#XMLID_128_);}
	.st10{fill:url(#XMLID_129_);}
	.st11{fill:url(#XMLID_130_);}
	.st12{fill:url(#XMLID_131_);}
	.st13{fill:url(#XMLID_132_);}
	.st14{fill:url(#XMLID_133_);}
	.st15{fill:#F49C3B;}
	.st16{fill:url(#SVGID_4_);}
	.st17{fill:url(#SVGID_5_);}
	.st18{fill:url(#SVGID_6_);}
	.st19{fill:url(#XMLID_134_);}
	.st20{fill:url(#XMLID_135_);}
	.st21{fill:url(#XMLID_136_);}
	.st22{fill:url(#XMLID_137_);}
	.st23{fill:url(#XMLID_138_);}
	.st24{fill:url(#XMLID_139_);}
	.st25{fill:url(#XMLID_140_);}
	.st26{fill:url(#XMLID_141_);}
	.st27{fill:url(#XMLID_142_);}
	.st28{fill:url(#XMLID_143_);}
	.st29{fill:url(#XMLID_144_);}
	.st30{fill:url(#XMLID_145_);}
	.st31{fill:url(#SVGID_7_);}
	.st32{fill:url(#SVGID_8_);}
	.st33{fill:url(#SVGID_9_);}
	.st34{fill:url(#XMLID_146_);}
	.st35{fill:url(#XMLID_147_);}
	.st36{fill:url(#XMLID_148_);}
	.st37{fill:url(#XMLID_149_);}
	.st38{fill:url(#XMLID_150_);}
	.st39{fill:url(#XMLID_151_);}
	.st40{fill:url(#XMLID_152_);}
	.st41{fill:url(#XMLID_153_);}
	.st42{fill:url(#XMLID_154_);}
	.st43{fill:url(#XMLID_155_);}
	.st44{fill:url(#XMLID_156_);}
	.st45{fill:url(#XMLID_157_);}
	.st46{fill:url(#SVGID_10_);}
	.st47{fill:url(#SVGID_11_);}
	.st48{fill:url(#SVGID_12_);}
	.st49{fill:url(#XMLID_158_);}
	.st50{fill:url(#XMLID_159_);}
	.st51{fill:url(#XMLID_160_);}
	.st52{fill:url(#XMLID_161_);}
	.st53{fill:url(#XMLID_162_);}
	.st54{fill:url(#XMLID_163_);}
	.st55{fill:url(#XMLID_164_);}
	.st56{fill:url(#XMLID_165_);}
	.st57{fill:url(#XMLID_166_);}
	.st58{fill:url(#XMLID_167_);}
	.st59{fill:url(#XMLID_168_);}
	.st60{fill:url(#XMLID_169_);}
	.st61{fill:url(#SVGID_13_);}
	.st62{fill:url(#SVGID_14_);}
	.st63{fill:url(#SVGID_15_);}
	.st64{fill:url(#XMLID_170_);}
	.st65{fill:url(#XMLID_171_);}
	.st66{fill:url(#XMLID_172_);}
	.st67{fill:url(#XMLID_173_);}
	.st68{fill:url(#XMLID_174_);}
	.st69{fill:url(#XMLID_175_);}
	.st70{fill:url(#XMLID_176_);}
	.st71{fill:url(#XMLID_177_);}
	.st72{fill:url(#XMLID_178_);}
	.st73{fill:url(#XMLID_179_);}
	.st74{fill:url(#XMLID_180_);}
	.st75{fill:url(#XMLID_181_);}
	.st76{fill:url(#SVGID_16_);}
	.st77{fill:url(#SVGID_17_);}
	.st78{fill:url(#SVGID_18_);}
	.st79{fill:url(#XMLID_182_);}
	.st80{fill:url(#XMLID_183_);}
	.st81{fill:url(#XMLID_184_);}
	.st82{fill:url(#XMLID_185_);}
	.st83{fill:url(#XMLID_186_);}
	.st84{fill:url(#XMLID_187_);}
	.st85{fill:url(#XMLID_188_);}
	.st86{fill:url(#XMLID_189_);}
	.st87{fill:url(#XMLID_190_);}
	.st88{fill:url(#XMLID_191_);}
	.st89{fill:url(#XMLID_192_);}
	.st90{fill:url(#XMLID_193_);}
	.st91{fill:url(#SVGID_19_);}
	.st92{fill:url(#SVGID_20_);}
	.st93{fill:url(#SVGID_21_);}
	.st94{fill:url(#XMLID_194_);}
	.st95{fill:url(#XMLID_195_);}
	.st96{fill:url(#XMLID_196_);}
	.st97{fill:url(#XMLID_197_);}
	.st98{fill:url(#XMLID_198_);}
	.st99{fill:url(#XMLID_199_);}
	.st100{fill:url(#XMLID_200_);}
	.st101{fill:url(#XMLID_201_);}
	.st102{fill:url(#XMLID_202_);}
	.st103{fill:url(#XMLID_203_);}
	.st104{fill:url(#XMLID_204_);}
	.st105{fill:url(#XMLID_205_);}
	.st106{fill:url(#SVGID_22_);}
	.st107{fill:url(#SVGID_23_);}
	.st108{fill:url(#SVGID_24_);}
	.st109{fill:url(#XMLID_206_);}
	.st110{fill:url(#XMLID_207_);}
	.st111{fill:url(#XMLID_208_);}
	.st112{fill:url(#XMLID_209_);}
	.st113{fill:url(#XMLID_210_);}
	.st114{fill:url(#XMLID_211_);}
	.st115{fill:url(#XMLID_212_);}
	.st116{fill:url(#XMLID_213_);}
	.st117{fill:url(#XMLID_214_);}
	.st118{fill:url(#XMLID_215_);}
	.st119{fill:url(#XMLID_216_);}
	.st120{fill:url(#XMLID_217_);}
	.st121{fill:url(#SVGID_25_);}
	.st122{fill:url(#SVGID_26_);}
	.st123{fill:url(#SVGID_27_);}
	.st124{fill:url(#XMLID_218_);}
	.st125{fill:url(#XMLID_219_);}
	.st126{fill:url(#XMLID_220_);}
	.st127{fill:url(#XMLID_221_);}
	.st128{fill:url(#XMLID_222_);}
	.st129{fill:url(#XMLID_223_);}
	.st130{fill:url(#XMLID_224_);}
	.st131{fill:url(#XMLID_225_);}
	.st132{fill:url(#XMLID_226_);}
	.st133{fill:url(#XMLID_227_);}
	.st134{fill:url(#XMLID_228_);}
	.st135{fill:url(#XMLID_229_);}
	.st136{fill:url(#SVGID_28_);}
	.st137{fill:url(#SVGID_29_);}
	.st138{fill:url(#SVGID_30_);}
	.st139{fill:url(#XMLID_230_);}
	.st140{fill:url(#XMLID_231_);}
	.st141{fill:url(#XMLID_232_);}
	.st142{fill:url(#XMLID_233_);}
	.st143{fill:url(#XMLID_234_);}
	.st144{fill:url(#XMLID_235_);}
	.st145{fill:url(#XMLID_236_);}
	.st146{fill:url(#XMLID_237_);}
	.st147{fill:url(#XMLID_238_);}
	.st148{fill:url(#XMLID_239_);}
	.st149{fill:url(#XMLID_240_);}
	.st150{fill:url(#XMLID_241_);}
</style>
<linearGradient id="SVGID_1_" gradientUnits="userSpaceOnUse" x1="0.2808" y1="39.7774" x2="40.0113" y2="-7.037620e-02">
	<stop  offset="0" style="stop-color:#F1F2F2"/>
	<stop  offset="1" style="stop-color:#FFFFFF"/>
</linearGradient>
<rect class="st0" width="40" height="40"/>
<g>
	
		<linearGradient id="SVGID_2_" gradientUnits="userSpaceOnUse" x1="14.0251" y1="51.086" x2="27.5132" y2="51.086" gradientTransform="matrix(0.9989 -4.584129e-02 4.584129e-02 0.9989 -3.0847 -34.099)">
		<stop  offset="0" style="stop-color:#FBB040"/>
		<stop  offset="1" style="stop-color:#F7941D"/>
	</linearGradient>
	<circle class="st1" cx="20" cy="16" r="6.7"/>
	
		<linearGradient id="SVGID_3_" gradientUnits="userSpaceOnUse" x1="14.6342" y1="51.086" x2="26.9041" y2="51.086" gradientTransform="matrix(0.9989 -4.584129e-02 4.584129e-02 0.9989 -3.0847 -34.099)">
		<stop  offset="0" style="stop-color:#F9ED32"/>
		<stop  offset="1" style="stop-color:#EFB25E"/>
	</linearGradient>
	<circle class="st2" cx="20" cy="16" r="6.1"/>
	
		<linearGradient id="XMLID_122_" gradientUnits="userSpaceOnUse" x1="32.7643" y1="53.3376" x2="13.9018" y2="46.9256" gradientTransform="matrix(0.9989 -4.584129e-02 4.584129e-02 0.9989 -3.0847 -34.099)">
		<stop  offset="0" style="stop-color:#00C9FF"/>
		<stop  offset="1" style="stop-color:#92FE9D"/>
	</linearGradient>
	<path id="XMLID_40_" class="st3" d="M19.5,5.5c-4.3,0.2-7.9,3-9.4,6.8l0,0c0,0-1.8,1.3-1.9,2.5s0.1,2.2,0.1,2.2s-0.2,0.8,0.6,1.2
		c0,0-0.4,0.9,0.8,1.3c0,0,0.1,1.6,1.3,0.7c0.3-0.4,0-0.8,0.5-1.5c0.5-0.7,1.3-2.4,2-1.7c0,0,0.1,0.5,0.4,1.2c0,0,1.5-0.7,1.2-2.2
		c-0.3-1.5-1.6-2.8,0.3-5c1.1-1.1,2.6-1.7,4.2-1.8c3.4-0.2,6.3,2.3,6.8,5.5l3.9-0.2C29.8,9.3,25.1,5.2,19.5,5.5z"/>
	
		<linearGradient id="XMLID_123_" gradientUnits="userSpaceOnUse" x1="27.3297" y1="51.527" x2="29.9287" y2="45.4418" gradientTransform="matrix(0.9989 -4.584129e-02 4.584129e-02 0.9989 -3.0847 -34.099)">
		<stop  offset="0" style="stop-color:#134763;stop-opacity:0.3"/>
		<stop  offset="0.9839" style="stop-color:#134763;stop-opacity:0"/>
	</linearGradient>
	<path id="XMLID_38_" class="st4" d="M26.3,14.2c0,0.2,0.1,0.3,0.1,0.3c0,0,0,0,0,0c0.7,0.8,1.6-1,2-1.7c0.5-0.7,0.8-1.7,1-1.7
		c-0.1-0.3-0.3-0.5-0.4-0.7c0,0-0.3,0.3-0.5,1.1C28.3,12.3,27.4,14.3,26.3,14.2z"/>
	
		<linearGradient id="XMLID_124_" gradientUnits="userSpaceOnUse" x1="12.253" y1="47.8459" x2="24.1432" y2="53.9467" gradientTransform="matrix(0.9989 -4.584129e-02 4.584129e-02 0.9989 -3.0847 -34.099)">
		<stop  offset="0" style="stop-color:#00C9FF"/>
		<stop  offset="1" style="stop-color:#92FE9D"/>
	</linearGradient>
	<path id="XMLID_37_" class="st5" d="M31.6,14.7c0,0,0.2-0.8-0.6-1.2c0,0,0.4-0.9-0.8-1.3c0,0-0.1-1.1-0.8-1
		c-0.4,0.1-0.6,0.4-0.7,0.8c0,0.3,0,0.5-0.3,0.9c-0.5,0.7-1.3,2.4-2,1.7c0,0-0.1-0.5-0.4-1.2c0,0-1.5,0.7-1.2,2.2
		c0.3,1.5,1.6,2.8-0.3,5c-1.1,1.1-2.6,1.7-4.2,1.8c-2.8,0.1-5.3-1.5-6.3-4c0,0,0,0,0,0c-0.3-0.7-0.4-1.2-0.4-1.2c0,0,0,0,0,0
		c-0.7-0.8-1.5,1-2,1.7c-0.5,0.7-0.1,1.1-0.5,1.5c-0.2,0.1-0.4,0.2-0.5,0.2c1.8,3.6,5.6,5.9,9.8,5.7c4.3-0.2,7.9-3,9.4-6.8l0,0
		c0,0,1.8-1.3,1.9-2.5C31.8,15.7,31.6,14.7,31.6,14.7z"/>
	
		<linearGradient id="XMLID_125_" gradientUnits="userSpaceOnUse" x1="13.0529" y1="52.9109" x2="12.2436" y2="55.5152" gradientTransform="matrix(0.9989 -4.584129e-02 4.584129e-02 0.9989 -3.0847 -34.099)">
		<stop  offset="0" style="stop-color:#134763;stop-opacity:0.3"/>
		<stop  offset="0.9839" style="stop-color:#134763;stop-opacity:0"/>
	</linearGradient>
	<path id="XMLID_36_" class="st6" d="M13.7,17.6c0-0.2-0.1-0.3-0.1-0.3c0,0,0,0,0,0c-0.7-0.8-1.6,1-2,1.7c-0.5,0.7-0.1,1.1-0.5,1.5
		c-0.2,0.1-0.4,0.2-0.5,0.2c0.1,0.3,0.3,0.5,0.4,0.7c0,0,0.3-0.3,0.5-1.1C11.7,19.5,12.6,17.5,13.7,17.6z"/>
	
		<linearGradient id="XMLID_126_" gradientUnits="userSpaceOnUse" x1="9.604" y1="51.1472" x2="10.8905" y2="48.5948" gradientTransform="matrix(0.9989 -4.584129e-02 4.584129e-02 0.9989 -3.0847 -34.099)">
		<stop  offset="0" style="stop-color:#134763;stop-opacity:0.3"/>
		<stop  offset="0.9839" style="stop-color:#134763;stop-opacity:0"/>
	</linearGradient>
	<path id="XMLID_35_" class="st7" d="M8.7,17C8.7,17,8.7,17,8.7,17c0-0.1,0-0.2,0-0.2c0-0.1,0-0.1,0.1-0.2c0,0,0-0.1,0-0.1
		c0,0,0-0.1,0.1-0.1c0-0.1,0.1-0.2,0.1-0.2C9,16,9.1,16,9.1,15.9c0,0,0.1,0,0.1-0.1c0,0,0,0,0.1,0c0,0,0,0,0,0c0,0,0,0,0,0s0,0,0,0
		c0,0,0,0,0,0c0,0,0,0,0,0.1c0,0,0,0.1,0,0.1c0,0.1-0.1,0.1-0.1,0.2c0,0,0,0,0,0.1c0,0,0,0,0,0.1c0,0,0,0.1-0.1,0.1
		c0,0,0,0.1-0.1,0.1c0,0,0,0.1-0.1,0.1c0,0.1-0.1,0.1-0.1,0.2C8.8,16.9,8.7,17,8.7,17C8.7,17,8.7,17,8.7,17z"/>
	
		<linearGradient id="XMLID_127_" gradientUnits="userSpaceOnUse" x1="10.1147" y1="52.1514" x2="11.4738" y2="49.7339" gradientTransform="matrix(0.9989 -4.584129e-02 4.584129e-02 0.9989 -3.0847 -34.099)">
		<stop  offset="0" style="stop-color:#134763;stop-opacity:0.3"/>
		<stop  offset="0.9839" style="stop-color:#134763;stop-opacity:0"/>
	</linearGradient>
	<path id="XMLID_34_" class="st8" d="M8.9,18.3c0,0,0,0,0-0.1c0,0,0-0.1,0-0.1c0,0,0-0.1,0-0.2c0-0.1,0-0.1,0.1-0.2c0,0,0-0.1,0-0.1
		c0,0,0-0.1,0-0.1c0,0,0-0.1,0-0.1c0,0,0,0,0-0.1c0,0,0,0,0,0c0,0,0-0.1,0.1-0.1c0,0,0-0.1,0.1-0.1c0,0,0-0.1,0.1-0.1
		c0,0,0-0.1,0.1-0.1c0-0.1,0.1-0.1,0.1-0.2c0-0.1,0.1-0.1,0.2-0.1c0,0,0,0,0.1-0.1c0,0,0.1,0,0.1-0.1c0,0,0.1-0.1,0.1-0.1
		c0,0,0.1,0,0.1-0.1c0,0,0.1,0,0.1,0c0,0,0,0,0,0s0,0,0,0c0,0,0,0-0.1,0.1c0,0,0,0.1-0.1,0.1c0,0-0.1,0.1-0.1,0.1c0,0,0,0-0.1,0.1
		c0,0,0,0-0.1,0.1c0,0-0.1,0.1-0.1,0.2c0,0,0,0.1-0.1,0.1c0,0,0,0.1-0.1,0.1c0,0,0,0.1-0.1,0.1c0,0,0,0.1-0.1,0.1c0,0,0,0.1-0.1,0.1
		c0,0,0,0.1-0.1,0.1c0,0.1-0.1,0.1-0.1,0.2c0,0.1-0.1,0.1-0.1,0.2c0,0.1-0.1,0.1-0.1,0.2c0,0-0.1,0.1-0.1,0.1
		C9,18.1,9,18.2,8.9,18.3C9,18.2,9,18.2,8.9,18.3C9,18.3,8.9,18.3,8.9,18.3z"/>
	
		<linearGradient id="XMLID_128_" gradientUnits="userSpaceOnUse" x1="11.1737" y1="52.6848" x2="13.3007" y2="48.5243" gradientTransform="matrix(0.9989 -4.584129e-02 4.584129e-02 0.9989 -3.0847 -34.099)">
		<stop  offset="0" style="stop-color:#134763;stop-opacity:0.3"/>
		<stop  offset="0.9839" style="stop-color:#134763;stop-opacity:0"/>
	</linearGradient>
	<path id="XMLID_33_" class="st9" d="M9.8,19.6c0,0,0,0,0-0.1c0,0,0-0.1,0-0.2c0,0,0-0.1,0-0.1c0,0,0-0.1,0-0.1c0-0.1,0-0.1,0.1-0.2
		c0,0,0-0.1,0-0.1c0,0,0-0.1,0-0.1c0-0.1,0.1-0.2,0.1-0.3c0,0,0-0.1,0.1-0.1c0,0,0-0.1,0.1-0.1c0-0.1,0.1-0.2,0.1-0.3c0,0,0,0,0-0.1
		c0,0,0,0,0-0.1c0,0,0.1-0.1,0.1-0.1c0,0,0,0,0-0.1c0,0,0,0,0-0.1c0,0,0.1-0.1,0.1-0.1c0,0,0.1-0.1,0.1-0.1c0,0,0.1-0.1,0.1-0.1
		c0.1-0.1,0.1-0.1,0.1-0.1c0,0,0.1-0.1,0.1-0.1c0,0,0.1,0,0.1-0.1c0,0,0,0,0,0s0,0,0,0c0,0,0,0-0.1,0.1c0,0-0.1,0.1-0.1,0.1
		c0,0,0,0-0.1,0.1c0,0,0,0.1-0.1,0.1c0,0.1-0.1,0.1-0.1,0.2c0,0,0,0.1-0.1,0.1c0,0,0,0,0,0.1c0,0,0,0,0,0.1c0,0.1-0.1,0.2-0.1,0.2
		c0,0.1-0.1,0.2-0.1,0.2c0,0,0,0.1-0.1,0.1c0,0,0,0.1-0.1,0.1c0,0,0,0.1-0.1,0.1c0,0,0,0.1-0.1,0.1c0,0,0,0.1-0.1,0.1
		c0,0,0,0.1-0.1,0.1c0,0.1-0.1,0.1-0.1,0.2c0,0.1-0.1,0.1-0.1,0.2c0,0.1,0,0.1-0.1,0.1C9.8,19.6,9.8,19.6,9.8,19.6z"/>
	
		<linearGradient id="XMLID_129_" gradientUnits="userSpaceOnUse" x1="31.5349" y1="52.1113" x2="29.9008" y2="55.0994" gradientTransform="matrix(0.9989 -4.584129e-02 4.584129e-02 0.9989 -3.0847 -34.099)">
		<stop  offset="0" style="stop-color:#134763;stop-opacity:0.3"/>
		<stop  offset="0.9839" style="stop-color:#134763;stop-opacity:0"/>
	</linearGradient>
	<path id="XMLID_32_" class="st10" d="M31.6,14.7C31.6,14.7,31.6,14.7,31.6,14.7c0,0.1,0,0.2,0,0.2c0,0.1,0,0.1-0.1,0.2
		c0,0,0,0.1,0,0.1c0,0,0,0.1-0.1,0.1c0,0.1-0.1,0.2-0.1,0.2c-0.1,0.1-0.1,0.1-0.2,0.2c0,0-0.1,0-0.1,0.1c0,0,0,0-0.1,0c0,0,0,0,0,0
		c0,0,0,0,0,0s0,0,0,0c0,0,0,0,0,0c0,0,0,0,0-0.1c0,0,0-0.1,0-0.1c0-0.1,0.1-0.1,0.1-0.2c0,0,0,0,0-0.1c0,0,0,0,0-0.1
		c0,0,0-0.1,0.1-0.1c0,0,0-0.1,0.1-0.1c0,0,0-0.1,0.1-0.1c0-0.1,0.1-0.1,0.1-0.2C31.5,14.8,31.6,14.8,31.6,14.7
		C31.6,14.7,31.6,14.7,31.6,14.7z"/>
	
		<linearGradient id="XMLID_130_" gradientUnits="userSpaceOnUse" x1="30.6174" y1="51.1181" x2="28.0806" y2="54.8533" gradientTransform="matrix(0.9989 -4.584129e-02 4.584129e-02 0.9989 -3.0847 -34.099)">
		<stop  offset="0" style="stop-color:#134763;stop-opacity:0.3"/>
		<stop  offset="0.9839" style="stop-color:#134763;stop-opacity:0"/>
	</linearGradient>
	<path id="XMLID_31_" class="st11" d="M31.1,13.5c0,0,0,0,0,0.1c0,0,0,0.1,0,0.1c0,0,0,0.1,0,0.2c0,0.1,0,0.1-0.1,0.2
		c0,0,0,0.1,0,0.1c0,0,0,0.1,0,0.1c0,0,0,0.1,0,0.1c0,0,0,0,0,0.1c0,0,0,0,0,0c0,0,0,0.1-0.1,0.1c0,0,0,0.1-0.1,0.1
		c0,0,0,0.1-0.1,0.1c0,0,0,0.1-0.1,0.1c0,0.1-0.1,0.1-0.1,0.2c0,0.1-0.1,0.1-0.2,0.1c0,0,0,0-0.1,0.1c0,0-0.1,0-0.1,0.1
		c0,0-0.1,0.1-0.1,0.1c0,0-0.1,0-0.1,0.1c0,0-0.1,0-0.1,0c0,0,0,0,0,0s0,0,0,0c0,0,0,0,0.1-0.1c0,0,0-0.1,0.1-0.1
		c0,0,0.1-0.1,0.1-0.1c0,0,0,0,0.1-0.1c0,0,0,0,0.1-0.1c0,0,0.1-0.1,0.1-0.2c0,0,0-0.1,0.1-0.1c0,0,0-0.1,0.1-0.1c0,0,0-0.1,0.1-0.1
		c0,0,0-0.1,0.1-0.1c0,0,0-0.1,0.1-0.1c0,0,0-0.1,0.1-0.1c0-0.1,0.1-0.1,0.1-0.2c0-0.1,0.1-0.1,0.1-0.2c0-0.1,0.1-0.1,0.1-0.2
		c0,0,0.1-0.1,0.1-0.1C31,13.6,31,13.6,31.1,13.5C31,13.5,31,13.5,31.1,13.5C31,13.5,31.1,13.5,31.1,13.5z"/>
	
		<linearGradient id="XMLID_131_" gradientUnits="userSpaceOnUse" x1="30.829" y1="47.9474" x2="32.3075" y2="44.0255" gradientTransform="matrix(0.9989 -4.584129e-02 4.584129e-02 0.9989 -3.0847 -34.099)">
		<stop  offset="0" style="stop-color:#134763;stop-opacity:0.3"/>
		<stop  offset="0.9839" style="stop-color:#134763;stop-opacity:0"/>
	</linearGradient>
	<path id="XMLID_29_" class="st12" d="M30.2,12.2c0,0,0,0,0,0.1c0,0,0,0.1,0,0.2c0,0,0,0.1,0,0.1c0,0,0,0.1,0,0.1
		c0,0.1,0,0.1-0.1,0.2c0,0,0,0.1,0,0.1c0,0,0,0.1,0,0.1c0,0.1-0.1,0.2-0.1,0.3c0,0,0,0.1-0.1,0.1c0,0,0,0.1-0.1,0.1
		c0,0.1-0.1,0.2-0.1,0.3c0,0,0,0,0,0.1c0,0,0,0,0,0.1c0,0-0.1,0.1-0.1,0.1c0,0,0,0,0,0.1c0,0,0,0,0,0.1c0,0-0.1,0.1-0.1,0.1
		c0,0-0.1,0.1-0.1,0.1c0,0-0.1,0.1-0.1,0.1c-0.1,0.1-0.1,0.1-0.1,0.1c0,0-0.1,0.1-0.1,0.1c0,0-0.1,0-0.1,0.1c0,0,0,0,0,0s0,0,0,0
		c0,0,0,0,0.1-0.1c0,0,0.1-0.1,0.1-0.1c0,0,0,0,0.1-0.1c0,0,0-0.1,0.1-0.1c0-0.1,0.1-0.1,0.1-0.2c0,0,0-0.1,0.1-0.1c0,0,0,0,0-0.1
		c0,0,0,0,0-0.1c0-0.1,0.1-0.2,0.1-0.2c0-0.1,0.1-0.2,0.1-0.2c0,0,0-0.1,0.1-0.1c0,0,0-0.1,0.1-0.1c0,0,0-0.1,0.1-0.1
		c0,0,0-0.1,0.1-0.1c0,0,0-0.1,0.1-0.1c0,0,0-0.1,0.1-0.1c0-0.1,0.1-0.1,0.1-0.2c0-0.1,0.1-0.1,0.1-0.2c0-0.1,0-0.1,0.1-0.1
		C30.2,12.2,30.2,12.2,30.2,12.2z"/>
	<g>
		
			<linearGradient id="XMLID_132_" gradientUnits="userSpaceOnUse" x1="20.7692" y1="57.6331" x2="20.7692" y2="67.3857" gradientTransform="matrix(0.9989 -4.584129e-02 4.584129e-02 0.9989 -3.0847 -34.099)">
			<stop  offset="0" style="stop-color:#00C9FF"/>
			<stop  offset="1" style="stop-color:#92FE9D"/>
		</linearGradient>
		<path id="XMLID_27_" class="st13" d="M26.4,24.7c-1.8,1.3-3.9,2.1-6.1,2.2c-2.2,0.1-4.3-0.4-6.1-1.5c0,0-0.1,0-0.1-0.1l6,9.3
			l6.6-10.1C26.6,24.6,26.5,24.6,26.4,24.7z"/>
		
			<linearGradient id="XMLID_133_" gradientUnits="userSpaceOnUse" x1="22.3377" y1="62.9195" x2="22.1925" y2="68.0657" gradientTransform="matrix(0.9989 -4.584129e-02 4.584129e-02 0.9989 -3.0847 -34.099)">
			<stop  offset="0" style="stop-color:#00C9FF"/>
			<stop  offset="1" style="stop-color:#92FE9D"/>
		</linearGradient>
		<path id="XMLID_26_" class="st14" d="M17.5,30.5l2.6,4l6.6-10.1C26.7,24.5,23.3,29.6,17.5,30.5z"/>
	</g>
	<path class="st15" d="M20.4,15.4l-0.1-1.5c0.3,0.1,0.6,0.2,0.8,0.4c0.1,0.1,0.2,0.2,0.4,0.2c0.2,0,0.4-0.2,0.4-0.5
		c0-0.1,0-0.2-0.1-0.3c-0.3-0.4-0.8-0.6-1.5-0.7l0-0.2l0-0.2c0-0.2-0.2-0.4-0.4-0.4c-0.2,0-0.4,0.2-0.4,0.4l0,0.2l0,0.2
		c-1,0.2-1.5,0.8-1.4,1.5c0,1,0.8,1.3,1.6,1.5l0.1,1.7c-0.4-0.1-0.7-0.3-1-0.5c-0.1-0.1-0.2-0.2-0.4-0.2c-0.2,0-0.4,0.2-0.4,0.5
		c0,0.1,0,0.2,0.1,0.2c0.3,0.4,0.9,0.8,1.7,0.9l0,0.1l0,0.4c0,0.2,0.2,0.4,0.4,0.4c0.2,0,0.4-0.2,0.4-0.4l0-0.4l0-0.1
		c1.1-0.2,1.6-0.8,1.6-1.7C22.1,15.9,21.2,15.6,20.4,15.4z M19,14.5c0-0.3,0.1-0.5,0.5-0.6l0.1,1.2C19.3,15,19,14.8,19,14.5z
		 M20.5,17.8l-0.1-1.5c0.4,0.1,0.7,0.3,0.8,0.7C21.2,17.5,21,17.7,20.5,17.8z"/>
</g>
</svg>
